%TF.GenerationSoftware,KiCad,Pcbnew,5.1.6-c6e7f7d~86~ubuntu18.04.1*%
%TF.CreationDate,2020-06-11T10:44:15+02:00*%
%TF.ProjectId,AVR_ISP_With_POGO_Pin,4156525f-4953-4505-9f57-6974685f504f,rev?*%
%TF.SameCoordinates,PX80efd00PY76109c0*%
%TF.FileFunction,Paste,Top*%
%TF.FilePolarity,Positive*%
%FSLAX46Y46*%
G04 Gerber Fmt 4.6, Leading zero omitted, Abs format (unit mm)*
G04 Created by KiCad (PCBNEW 5.1.6-c6e7f7d~86~ubuntu18.04.1) date 2020-06-11 10:44:15*
%MOMM*%
%LPD*%
G01*
G04 APERTURE LIST*
%TA.AperFunction,Profile*%
%ADD10C,0.150000*%
%TD*%
%ADD11R,1.138880X1.138880*%
%ADD12R,0.440000X0.840000*%
%ADD13R,0.990000X0.590000*%
%ADD14R,0.304800X2.000000*%
G04 APERTURE END LIST*
D10*
X2780000Y1020000D02*
X3800000Y0D01*
X2802713Y10749714D02*
X2780000Y1020000D01*
X15600000Y28210000D02*
X15300000Y28500000D01*
X15602763Y21102606D02*
X15600000Y28210000D01*
X300000Y28500000D02*
X0Y28200000D01*
X15300000Y28500000D02*
X300000Y28500000D01*
X15602763Y21102605D02*
G75*
G03*
X12800000Y10800000I9447237J-8102605D01*
G01*
X2802713Y10749714D02*
G75*
G03*
X0Y21100000I-12202713J2250286D01*
G01*
X11800000Y0D02*
X12800000Y1000000D01*
X11800000Y0D02*
X3800000Y0D01*
X12800000Y10800000D02*
X12800000Y1000000D01*
X0Y21100000D02*
X0Y28200000D01*
D11*
%TO.C,D1*%
X2500000Y23949020D03*
X2500000Y21850980D03*
%TD*%
D12*
%TO.C,R1*%
X2770000Y26000000D03*
X1270000Y26000000D03*
%TD*%
D13*
%TO.C,S1*%
X5725000Y18975000D03*
X9875000Y18975000D03*
X5725000Y16825000D03*
X9875000Y16825000D03*
%TD*%
D14*
%TO.C,P2*%
X11267100Y3024800D03*
X11267100Y6024800D03*
X11267100Y9024800D03*
X11267100Y12024800D03*
X10682900Y3024800D03*
X10682900Y6024800D03*
X10682900Y9024800D03*
X10682900Y12024800D03*
X9997100Y3278800D03*
X8727100Y3278800D03*
X4917100Y3024800D03*
X9997100Y9278800D03*
X8727100Y9278800D03*
X7457100Y9278800D03*
X6187100Y9278800D03*
X4917100Y9024800D03*
X9997100Y6278800D03*
X8727100Y6278800D03*
X7457100Y6278800D03*
X6187100Y6278800D03*
X4917100Y6024800D03*
X9997100Y12278800D03*
X8727100Y12278800D03*
X7457100Y12278800D03*
X6187100Y12278800D03*
X4917100Y12024800D03*
X9412900Y12278800D03*
X8142900Y12278800D03*
X6872900Y12278800D03*
X5602900Y12278800D03*
X4332900Y12024800D03*
X9412900Y9278800D03*
X8142900Y9278800D03*
X6872900Y9278800D03*
X5602900Y9278800D03*
X4332900Y9024800D03*
X9412900Y6278800D03*
X8142900Y6278800D03*
X6872900Y6278800D03*
X5602900Y6278800D03*
X4332900Y6024800D03*
X9412900Y3278800D03*
X8142900Y3278800D03*
X4332900Y3024800D03*
X7457100Y3278800D03*
X6187100Y3278800D03*
X6872900Y3278800D03*
X5602900Y3278800D03*
%TD*%
M02*
