M48
; DRILL file {KiCad 5.1.6-c6e7f7d~86~ubuntu18.04.1} date Thu Jun 11 11:49:16 2020
; FORMAT={-:-/ absolute / metric / decimal}
; #@! TF.CreationDate,2020-06-11T11:49:16+02:00
; #@! TF.GenerationSoftware,Kicad,Pcbnew,5.1.6-c6e7f7d~86~ubuntu18.04.1
; #@! TF.FileFunction,Plated,1,2,PTH
FMAT,2
METRIC
T1C0.300
%
G90
G05
T1
X51.1Y-51.1
X51.1Y-79.6
X51.1Y-108.1
X52.794Y-51.1
X52.794Y-58.561
X52.794Y-79.6
X52.794Y-87.061
X52.794Y-108.1
X52.794Y-115.561
X53.6Y-76.8
X53.6Y-105.3
X53.6Y-133.8
X54.65Y-64.55
X54.65Y-93.05
X54.65Y-121.55
X56.6Y-55.5
X56.6Y-84.0
X56.6Y-112.5
X57.1Y-58.55
X57.1Y-63.9
X57.1Y-87.05
X57.1Y-92.4
X57.1Y-115.55
X57.1Y-120.9
X59.3Y-60.6
X59.3Y-89.1
X59.3Y-117.6
X60.05Y-63.75
X60.05Y-92.25
X60.05Y-120.75
X62.0Y-76.8
X62.0Y-105.3
X62.0Y-133.8
X62.5Y-60.8
X62.5Y-89.3
X62.5Y-117.8
X64.5Y-51.1
X64.5Y-79.6
X64.5Y-108.1
X66.703Y-51.1
X66.703Y-79.6
X66.703Y-108.1
X68.397Y-51.1
X68.397Y-58.561
X68.397Y-79.6
X68.397Y-87.061
X68.397Y-108.1
X68.397Y-115.561
X69.203Y-76.8
X69.203Y-105.3
X69.203Y-133.8
X70.253Y-64.55
X70.253Y-93.05
X70.253Y-121.55
X72.203Y-55.5
X72.203Y-84.0
X72.203Y-112.5
X72.703Y-58.55
X72.703Y-63.9
X72.703Y-87.05
X72.703Y-92.4
X72.703Y-115.55
X72.703Y-120.9
X74.903Y-60.6
X74.903Y-89.1
X74.903Y-117.6
X75.653Y-63.75
X75.653Y-92.25
X75.653Y-120.75
X77.603Y-76.8
X77.603Y-105.3
X77.603Y-133.8
X78.103Y-60.8
X78.103Y-89.3
X78.103Y-117.8
X80.103Y-51.1
X80.103Y-79.6
X80.103Y-108.1
X82.306Y-51.1
X82.306Y-79.6
X82.306Y-108.1
X84.0Y-51.1
X84.0Y-58.561
X84.0Y-79.6
X84.0Y-87.061
X84.0Y-108.1
X84.0Y-115.561
X84.806Y-76.8
X84.806Y-105.3
X84.806Y-133.8
X85.856Y-64.55
X85.856Y-93.05
X85.856Y-121.55
X87.806Y-55.5
X87.806Y-84.0
X87.806Y-112.5
X88.306Y-58.55
X88.306Y-63.9
X88.306Y-87.05
X88.306Y-92.4
X88.306Y-115.55
X88.306Y-120.9
X90.506Y-60.6
X90.506Y-89.1
X90.506Y-117.6
X91.256Y-63.75
X91.256Y-92.25
X91.256Y-120.75
X93.206Y-76.8
X93.206Y-105.3
X93.206Y-133.8
X93.706Y-60.8
X93.706Y-89.3
X93.706Y-117.8
X95.706Y-51.1
X95.706Y-79.6
X95.706Y-108.1
X97.908Y-51.1
X97.908Y-79.6
X97.908Y-108.1
X99.602Y-51.1
X99.602Y-58.561
X99.602Y-79.6
X99.602Y-87.061
X99.602Y-108.1
X99.602Y-115.561
X100.408Y-76.8
X100.408Y-105.3
X100.408Y-133.8
X101.458Y-64.55
X101.458Y-93.05
X101.458Y-121.55
X103.408Y-55.5
X103.408Y-84.0
X103.408Y-112.5
X103.908Y-58.55
X103.908Y-63.9
X103.908Y-87.05
X103.908Y-92.4
X103.908Y-115.55
X103.908Y-120.9
X106.108Y-60.6
X106.108Y-89.1
X106.108Y-117.6
X106.858Y-63.75
X106.858Y-92.25
X106.858Y-120.75
X108.808Y-76.8
X108.808Y-105.3
X108.808Y-133.8
X109.308Y-60.8
X109.308Y-89.3
X109.308Y-117.8
X111.308Y-51.1
X111.308Y-79.6
X111.308Y-108.1
X113.511Y-51.1
X113.511Y-79.6
X113.511Y-108.1
X115.205Y-51.1
X115.205Y-58.561
X115.205Y-79.6
X115.205Y-87.061
X115.205Y-108.1
X115.205Y-115.561
X116.011Y-76.8
X116.011Y-105.3
X116.011Y-133.8
X117.061Y-64.55
X117.061Y-93.05
X117.061Y-121.55
X119.011Y-55.5
X119.011Y-84.0
X119.011Y-112.5
X119.511Y-58.55
X119.511Y-63.9
X119.511Y-87.05
X119.511Y-92.4
X119.511Y-115.55
X119.511Y-120.9
X121.711Y-60.6
X121.711Y-89.1
X121.711Y-117.6
X122.461Y-63.75
X122.461Y-92.25
X122.461Y-120.75
X124.411Y-76.8
X124.411Y-105.3
X124.411Y-133.8
X124.911Y-60.8
X124.911Y-89.3
X124.911Y-117.8
X126.911Y-51.1
X126.911Y-79.6
X126.911Y-108.1
X129.114Y-51.1
X129.114Y-79.6
X129.114Y-108.1
X130.808Y-51.1
X130.808Y-58.561
X130.808Y-79.6
X130.808Y-87.061
X130.808Y-108.1
X130.808Y-115.561
X131.614Y-76.8
X131.614Y-105.3
X131.614Y-133.8
X132.664Y-64.55
X132.664Y-93.05
X132.664Y-121.55
X134.614Y-55.5
X134.614Y-84.0
X134.614Y-112.5
X135.114Y-58.55
X135.114Y-63.9
X135.114Y-87.05
X135.114Y-92.4
X135.114Y-115.55
X135.114Y-120.9
X137.314Y-60.6
X137.314Y-89.1
X137.314Y-117.6
X138.064Y-63.75
X138.064Y-92.25
X138.064Y-120.75
X140.014Y-76.8
X140.014Y-105.3
X140.014Y-133.8
X140.514Y-60.8
X140.514Y-89.3
X140.514Y-117.8
X142.514Y-51.1
X142.514Y-79.6
X142.514Y-108.1
T0
M30
