%TF.GenerationSoftware,KiCad,Pcbnew,5.1.6-c6e7f7d~86~ubuntu18.04.1*%
%TF.CreationDate,2020-06-11T11:06:45+02:00*%
%TF.ProjectId,AVR_ISP_With_POGO_Pin_panelized_corrected,4156525f-4953-4505-9f57-6974685f504f,rev?*%
%TF.SameCoordinates,Original*%
%TF.FileFunction,Soldermask,Top*%
%TF.FilePolarity,Negative*%
%FSLAX46Y46*%
G04 Gerber Fmt 4.6, Leading zero omitted, Abs format (unit mm)*
G04 Created by KiCad (PCBNEW 5.1.6-c6e7f7d~86~ubuntu18.04.1) date 2020-06-11 11:06:45*
%MOMM*%
%LPD*%
G01*
G04 APERTURE LIST*
%TA.AperFunction,Profile*%
%ADD10C,0.100000*%
%TD*%
%ADD11C,0.600000*%
%ADD12R,0.304800X11.000000*%
%ADD13R,0.404800X11.100000*%
%ADD14R,1.400000X4.100000*%
%ADD15R,1.150000X0.750000*%
%ADD16R,0.600000X1.000000*%
%ADD17R,1.298880X1.298880*%
%ADD18C,0.254000*%
G04 APERTURE END LIST*
D10*
X65601000Y-78789900D02*
X65601800Y-80846800D01*
X65300500Y-78499200D02*
X65601000Y-78789900D01*
X61802400Y-78499000D02*
X65300500Y-78499200D01*
X62801000Y-77500100D02*
X61802400Y-78499000D01*
X62801000Y-67700000D02*
X62801000Y-77500100D01*
X62632800Y-66331600D02*
X62801000Y-67700000D01*
X62617000Y-64953100D02*
X62632800Y-66331600D01*
X62753800Y-63581400D02*
X62617000Y-64953100D01*
X63041500Y-62233100D02*
X62753800Y-63581400D01*
X63476400Y-60925000D02*
X63041500Y-62233100D01*
X64053500Y-59673000D02*
X63476400Y-60925000D01*
X64765400Y-58492600D02*
X64053500Y-59673000D01*
X65601800Y-57400300D02*
X64765400Y-58492600D01*
X66446300Y-58498900D02*
X65601800Y-57400300D01*
X67162800Y-59684300D02*
X66446300Y-58498900D01*
X67742800Y-60942300D02*
X67162800Y-59684300D01*
X68178900Y-62257000D02*
X67742800Y-60942300D01*
X68465800Y-63612200D02*
X68178900Y-62257000D01*
X68599800Y-64990900D02*
X68465800Y-63612200D01*
X68579300Y-66376000D02*
X68599800Y-64990900D01*
X68404500Y-67750300D02*
X68579300Y-66376000D01*
X68381800Y-77480100D02*
X68404500Y-67750300D01*
X69400400Y-78499000D02*
X68381800Y-77480100D01*
X65902200Y-78499200D02*
X69400400Y-78499000D01*
X65601800Y-78799900D02*
X65902200Y-78499200D01*
X65601800Y-80846800D02*
X65601800Y-78799900D01*
X81203800Y-78789900D02*
X81204500Y-80606800D01*
X80903300Y-78499100D02*
X81203800Y-78789900D01*
X77405200Y-78499000D02*
X80903300Y-78499100D01*
X78403800Y-77500100D02*
X77405200Y-78499000D01*
X78403800Y-67700000D02*
X78403800Y-77500100D01*
X78235600Y-66331600D02*
X78403800Y-67700000D01*
X78219800Y-64953100D02*
X78235600Y-66331600D01*
X78356600Y-63581400D02*
X78219800Y-64953100D01*
X78644200Y-62233100D02*
X78356600Y-63581400D01*
X79079200Y-60925000D02*
X78644200Y-62233100D01*
X79656200Y-59673000D02*
X79079200Y-60925000D01*
X80368200Y-58492600D02*
X79656200Y-59673000D01*
X81204600Y-57400300D02*
X80368200Y-58492600D01*
X82049000Y-58498900D02*
X81204600Y-57400300D01*
X82765600Y-59684300D02*
X82049000Y-58498900D01*
X83345600Y-60942300D02*
X82765600Y-59684300D01*
X83781700Y-62257000D02*
X83345600Y-60942300D01*
X84068600Y-63612200D02*
X83781700Y-62257000D01*
X84202600Y-64990900D02*
X84068600Y-63612200D01*
X84182100Y-66376000D02*
X84202600Y-64990900D01*
X84007300Y-67750300D02*
X84182100Y-66376000D01*
X83984500Y-77480100D02*
X84007300Y-67750300D01*
X85003100Y-78499000D02*
X83984500Y-77480100D01*
X81505000Y-78499100D02*
X85003100Y-78499000D01*
X81204500Y-78799900D02*
X81505000Y-78499100D01*
X81204500Y-80606800D02*
X81204500Y-78799900D01*
X96806500Y-78789900D02*
X96807300Y-80811700D01*
X96506000Y-78499200D02*
X96806500Y-78789900D01*
X93007900Y-78499000D02*
X96506000Y-78499200D01*
X94006500Y-77500100D02*
X93007900Y-78499000D01*
X94006500Y-67700000D02*
X94006500Y-77500100D01*
X93838400Y-66331600D02*
X94006500Y-67700000D01*
X93822600Y-64953100D02*
X93838400Y-66331600D01*
X93959400Y-63581400D02*
X93822600Y-64953100D01*
X94247000Y-62233100D02*
X93959400Y-63581400D01*
X94682000Y-60925000D02*
X94247000Y-62233100D01*
X95259000Y-59673000D02*
X94682000Y-60925000D01*
X95970900Y-58492600D02*
X95259000Y-59673000D01*
X96807300Y-57400300D02*
X95970900Y-58492600D01*
X97651800Y-58498900D02*
X96807300Y-57400300D01*
X98368400Y-59684300D02*
X97651800Y-58498900D01*
X98948300Y-60942300D02*
X98368400Y-59684300D01*
X99384500Y-62257000D02*
X98948300Y-60942300D01*
X99671300Y-63612200D02*
X99384500Y-62257000D01*
X99805300Y-64990900D02*
X99671300Y-63612200D01*
X99784800Y-66376000D02*
X99805300Y-64990900D01*
X99610000Y-67750300D02*
X99784800Y-66376000D01*
X99587300Y-77480100D02*
X99610000Y-67750300D01*
X100605900Y-78499000D02*
X99587300Y-77480100D01*
X97107700Y-78499200D02*
X100605900Y-78499000D01*
X96807300Y-78799900D02*
X97107700Y-78499200D01*
X96807300Y-80811700D02*
X96807300Y-78799900D01*
X112409300Y-78789900D02*
X112410100Y-80830600D01*
X112108800Y-78499200D02*
X112409300Y-78789900D01*
X108610700Y-78499000D02*
X112108800Y-78499200D01*
X109609300Y-77500100D02*
X108610700Y-78499000D01*
X109609300Y-67700000D02*
X109609300Y-77500100D01*
X109441200Y-66331600D02*
X109609300Y-67700000D01*
X109425400Y-64953100D02*
X109441200Y-66331600D01*
X109562100Y-63581400D02*
X109425400Y-64953100D01*
X109849800Y-62233100D02*
X109562100Y-63581400D01*
X110284800Y-60925000D02*
X109849800Y-62233100D01*
X110861800Y-59673000D02*
X110284800Y-60925000D01*
X111573700Y-58492600D02*
X110861800Y-59673000D01*
X112410100Y-57400300D02*
X111573700Y-58492600D01*
X113254600Y-58498900D02*
X112410100Y-57400300D01*
X113971200Y-59684300D02*
X113254600Y-58498900D01*
X114551100Y-60942300D02*
X113971200Y-59684300D01*
X114987300Y-62257000D02*
X114551100Y-60942300D01*
X115274100Y-63612200D02*
X114987300Y-62257000D01*
X115408100Y-64990900D02*
X115274100Y-63612200D01*
X115387600Y-66376000D02*
X115408100Y-64990900D01*
X115212800Y-67750300D02*
X115387600Y-66376000D01*
X115190100Y-77480100D02*
X115212800Y-67750300D01*
X116208700Y-78499000D02*
X115190100Y-77480100D01*
X112710500Y-78499200D02*
X116208700Y-78499000D01*
X112410100Y-78799900D02*
X112710500Y-78499200D01*
X112410100Y-80830600D02*
X112410100Y-78799900D01*
X128012100Y-78789900D02*
X128012900Y-80849800D01*
X127711600Y-78499200D02*
X128012100Y-78789900D01*
X124213500Y-78499000D02*
X127711600Y-78499200D01*
X125212100Y-77500100D02*
X124213500Y-78499000D01*
X125212100Y-67700000D02*
X125212100Y-77500100D01*
X125043900Y-66331600D02*
X125212100Y-67700000D01*
X125028100Y-64953100D02*
X125043900Y-66331600D01*
X125164900Y-63581400D02*
X125028100Y-64953100D01*
X125452500Y-62233100D02*
X125164900Y-63581400D01*
X125887500Y-60925000D02*
X125452500Y-62233100D01*
X126464500Y-59673000D02*
X125887500Y-60925000D01*
X127176500Y-58492600D02*
X126464500Y-59673000D01*
X128012900Y-57400300D02*
X127176500Y-58492600D01*
X128857400Y-58498900D02*
X128012900Y-57400300D01*
X129573900Y-59684300D02*
X128857400Y-58498900D01*
X130153900Y-60942300D02*
X129573900Y-59684300D01*
X130590000Y-62257000D02*
X130153900Y-60942300D01*
X130876900Y-63612200D02*
X130590000Y-62257000D01*
X131010900Y-64990900D02*
X130876900Y-63612200D01*
X130990400Y-66376000D02*
X131010900Y-64990900D01*
X130815600Y-67750300D02*
X130990400Y-66376000D01*
X130792900Y-77480100D02*
X130815600Y-67750300D01*
X131811500Y-78499000D02*
X130792900Y-77480100D01*
X128313300Y-78499200D02*
X131811500Y-78499000D01*
X128012900Y-78799900D02*
X128313300Y-78499200D01*
X128012900Y-80849800D02*
X128012900Y-78799900D01*
X65601000Y-107289900D02*
X65601800Y-109346900D01*
X65300500Y-106999200D02*
X65601000Y-107289900D01*
X61802400Y-106999000D02*
X65300500Y-106999200D01*
X62801000Y-106000100D02*
X61802400Y-106999000D01*
X62801000Y-96200000D02*
X62801000Y-106000100D01*
X62632800Y-94831600D02*
X62801000Y-96200000D01*
X62617000Y-93453100D02*
X62632800Y-94831600D01*
X62753800Y-92081400D02*
X62617000Y-93453100D01*
X63041500Y-90733200D02*
X62753800Y-92081400D01*
X63476400Y-89425000D02*
X63041500Y-90733200D01*
X64053500Y-88173100D02*
X63476400Y-89425000D01*
X64765400Y-86992600D02*
X64053500Y-88173100D01*
X65601800Y-85900300D02*
X64765400Y-86992600D01*
X66446300Y-86998900D02*
X65601800Y-85900300D01*
X67162800Y-88184300D02*
X66446300Y-86998900D01*
X67742800Y-89442300D02*
X67162800Y-88184300D01*
X68178900Y-90757000D02*
X67742800Y-89442300D01*
X68465800Y-92112200D02*
X68178900Y-90757000D01*
X68599800Y-93490900D02*
X68465800Y-92112200D01*
X68579300Y-94876000D02*
X68599800Y-93490900D01*
X68404500Y-96250300D02*
X68579300Y-94876000D01*
X68381800Y-105980100D02*
X68404500Y-96250300D01*
X69400400Y-106999000D02*
X68381800Y-105980100D01*
X65902200Y-106999200D02*
X69400400Y-106999000D01*
X65601800Y-107299900D02*
X65902200Y-106999200D01*
X65601800Y-109346900D02*
X65601800Y-107299900D01*
X81203800Y-107289900D02*
X81204500Y-109106800D01*
X80903300Y-106999100D02*
X81203800Y-107289900D01*
X77405200Y-106999000D02*
X80903300Y-106999100D01*
X78403800Y-106000100D02*
X77405200Y-106999000D01*
X78403800Y-96200000D02*
X78403800Y-106000100D01*
X78235600Y-94831600D02*
X78403800Y-96200000D01*
X78219800Y-93453100D02*
X78235600Y-94831600D01*
X78356600Y-92081400D02*
X78219800Y-93453100D01*
X78644200Y-90733200D02*
X78356600Y-92081400D01*
X79079200Y-89425000D02*
X78644200Y-90733200D01*
X79656200Y-88173100D02*
X79079200Y-89425000D01*
X80368200Y-86992600D02*
X79656200Y-88173100D01*
X81204600Y-85900300D02*
X80368200Y-86992600D01*
X82049000Y-86998900D02*
X81204600Y-85900300D01*
X82765600Y-88184300D02*
X82049000Y-86998900D01*
X83345600Y-89442300D02*
X82765600Y-88184300D01*
X83781700Y-90757000D02*
X83345600Y-89442300D01*
X84068600Y-92112200D02*
X83781700Y-90757000D01*
X84202600Y-93490900D02*
X84068600Y-92112200D01*
X84182100Y-94876000D02*
X84202600Y-93490900D01*
X84007300Y-96250300D02*
X84182100Y-94876000D01*
X83984500Y-105980100D02*
X84007300Y-96250300D01*
X85003100Y-106999000D02*
X83984500Y-105980100D01*
X81505000Y-106999100D02*
X85003100Y-106999000D01*
X81204500Y-107299900D02*
X81505000Y-106999100D01*
X81204500Y-109106800D02*
X81204500Y-107299900D01*
X96806500Y-107289900D02*
X96807300Y-109311700D01*
X96506000Y-106999200D02*
X96806500Y-107289900D01*
X93007900Y-106999000D02*
X96506000Y-106999200D01*
X94006500Y-106000100D02*
X93007900Y-106999000D01*
X94006500Y-96200000D02*
X94006500Y-106000100D01*
X93838400Y-94831600D02*
X94006500Y-96200000D01*
X93822600Y-93453100D02*
X93838400Y-94831600D01*
X93959400Y-92081400D02*
X93822600Y-93453100D01*
X94247000Y-90733200D02*
X93959400Y-92081400D01*
X94682000Y-89425000D02*
X94247000Y-90733200D01*
X95259000Y-88173100D02*
X94682000Y-89425000D01*
X95970900Y-86992600D02*
X95259000Y-88173100D01*
X96807400Y-85900300D02*
X95970900Y-86992600D01*
X97651800Y-86998900D02*
X96807400Y-85900300D01*
X98368400Y-88184300D02*
X97651800Y-86998900D01*
X98948300Y-89442300D02*
X98368400Y-88184300D01*
X99384500Y-90757000D02*
X98948300Y-89442300D01*
X99671300Y-92112200D02*
X99384500Y-90757000D01*
X99805300Y-93490900D02*
X99671300Y-92112200D01*
X99784800Y-94876000D02*
X99805300Y-93490900D01*
X99610000Y-96250300D02*
X99784800Y-94876000D01*
X99587300Y-105980100D02*
X99610000Y-96250300D01*
X100605900Y-106999000D02*
X99587300Y-105980100D01*
X97107700Y-106999200D02*
X100605900Y-106999000D01*
X96807300Y-107299900D02*
X97107700Y-106999200D01*
X96807300Y-109311700D02*
X96807300Y-107299900D01*
X112409300Y-107289900D02*
X112410100Y-109330600D01*
X112108800Y-106999200D02*
X112409300Y-107289900D01*
X108610700Y-106999000D02*
X112108800Y-106999200D01*
X109609300Y-106000100D02*
X108610700Y-106999000D01*
X109609300Y-96200000D02*
X109609300Y-106000100D01*
X109441200Y-94831600D02*
X109609300Y-96200000D01*
X109425400Y-93453100D02*
X109441200Y-94831600D01*
X109562100Y-92081400D02*
X109425400Y-93453100D01*
X109849800Y-90733200D02*
X109562100Y-92081400D01*
X110284800Y-89425000D02*
X109849800Y-90733200D01*
X110861800Y-88173100D02*
X110284800Y-89425000D01*
X111573700Y-86992600D02*
X110861800Y-88173100D01*
X112410100Y-85900300D02*
X111573700Y-86992600D01*
X113254600Y-86998900D02*
X112410100Y-85900300D01*
X113971200Y-88184300D02*
X113254600Y-86998900D01*
X114551100Y-89442300D02*
X113971200Y-88184300D01*
X114987300Y-90757000D02*
X114551100Y-89442300D01*
X115274100Y-92112200D02*
X114987300Y-90757000D01*
X115408100Y-93490900D02*
X115274100Y-92112200D01*
X115387600Y-94876000D02*
X115408100Y-93490900D01*
X115212800Y-96250300D02*
X115387600Y-94876000D01*
X115190100Y-105980100D02*
X115212800Y-96250300D01*
X116208700Y-106999000D02*
X115190100Y-105980100D01*
X112710500Y-106999200D02*
X116208700Y-106999000D01*
X112410100Y-107299900D02*
X112710500Y-106999200D01*
X112410100Y-109330600D02*
X112410100Y-107299900D01*
X128012100Y-107289900D02*
X128012900Y-109349800D01*
X127711600Y-106999200D02*
X128012100Y-107289900D01*
X124213500Y-106999000D02*
X127711600Y-106999200D01*
X125212100Y-106000100D02*
X124213500Y-106999000D01*
X125212100Y-96200000D02*
X125212100Y-106000100D01*
X125043900Y-94831600D02*
X125212100Y-96200000D01*
X125028100Y-93453100D02*
X125043900Y-94831600D01*
X125164900Y-92081400D02*
X125028100Y-93453100D01*
X125452500Y-90733200D02*
X125164900Y-92081400D01*
X125887500Y-89425000D02*
X125452500Y-90733200D01*
X126464500Y-88173100D02*
X125887500Y-89425000D01*
X127176500Y-86992600D02*
X126464500Y-88173100D01*
X128012900Y-85900300D02*
X127176500Y-86992600D01*
X128857400Y-86998900D02*
X128012900Y-85900300D01*
X129573900Y-88184300D02*
X128857400Y-86998900D01*
X130153900Y-89442300D02*
X129573900Y-88184300D01*
X130590000Y-90757000D02*
X130153900Y-89442300D01*
X130876900Y-92112200D02*
X130590000Y-90757000D01*
X131010900Y-93490900D02*
X130876900Y-92112200D01*
X130990400Y-94876000D02*
X131010900Y-93490900D01*
X130815600Y-96250300D02*
X130990400Y-94876000D01*
X130792900Y-105980100D02*
X130815600Y-96250300D01*
X131811500Y-106999000D02*
X130792900Y-105980100D01*
X128313300Y-106999200D02*
X131811500Y-106999000D01*
X128012900Y-107299900D02*
X128313300Y-106999200D01*
X128012900Y-109349800D02*
X128012900Y-107299900D01*
X140814900Y-106000100D02*
X139816300Y-106999000D01*
X140814900Y-96200000D02*
X140814900Y-106000100D01*
X140646700Y-94831600D02*
X140814900Y-96200000D01*
X140630900Y-93453100D02*
X140646700Y-94831600D01*
X140767700Y-92081400D02*
X140630900Y-93453100D01*
X141055300Y-90733200D02*
X140767700Y-92081400D01*
X141490300Y-89425000D02*
X141055300Y-90733200D01*
X142067300Y-88173100D02*
X141490300Y-89425000D01*
X142779300Y-86992600D02*
X142067300Y-88173100D01*
X143617600Y-85897500D02*
X142779300Y-86992600D01*
X143614800Y-78789500D02*
X143617600Y-85897500D01*
X143314000Y-78499000D02*
X143614800Y-78789500D01*
X139816300Y-78499000D02*
X143314000Y-78499000D01*
X140814900Y-77500100D02*
X139816300Y-78499000D01*
X140814900Y-67700000D02*
X140814900Y-77500100D01*
X140646700Y-66331600D02*
X140814900Y-67700000D01*
X140630900Y-64953100D02*
X140646700Y-66331600D01*
X140767700Y-63581400D02*
X140630900Y-64953100D01*
X141055300Y-62233100D02*
X140767700Y-63581400D01*
X141490300Y-60925000D02*
X141055300Y-62233100D01*
X142067300Y-59673000D02*
X141490300Y-60925000D01*
X142779300Y-58492600D02*
X142067300Y-59673000D01*
X143617600Y-57397500D02*
X142779300Y-58492600D01*
X143614900Y-50290000D02*
X143617600Y-57397500D01*
X143314400Y-49999200D02*
X143614900Y-50290000D01*
X128313700Y-49999000D02*
X143314400Y-49999200D01*
X128012900Y-50299900D02*
X128313700Y-49999000D01*
X128012900Y-52349800D02*
X128012900Y-50299900D01*
X128012100Y-50289900D02*
X128012900Y-52349800D01*
X127711100Y-49999000D02*
X128012100Y-50289900D01*
X112710900Y-49999000D02*
X127711100Y-49999000D01*
X112410100Y-50299900D02*
X112710900Y-49999000D01*
X112410100Y-52330600D02*
X112410100Y-50299900D01*
X112409300Y-50289900D02*
X112410100Y-52330600D01*
X112108300Y-49999000D02*
X112409300Y-50289900D01*
X97108100Y-49999000D02*
X112108300Y-49999000D01*
X96807300Y-50299900D02*
X97108100Y-49999000D01*
X96807300Y-52311700D02*
X96807300Y-50299900D01*
X96806500Y-50289900D02*
X96807300Y-52311700D01*
X96505500Y-49999000D02*
X96806500Y-50289900D01*
X81505400Y-49999000D02*
X96505500Y-49999000D01*
X81204500Y-50299900D02*
X81505400Y-49999000D01*
X81204500Y-52106800D02*
X81204500Y-50299900D01*
X81203800Y-50289900D02*
X81204500Y-52106800D01*
X80902900Y-49999000D02*
X81203800Y-50289900D01*
X65902700Y-49999000D02*
X80902900Y-49999000D01*
X65601800Y-50299900D02*
X65902700Y-49999000D01*
X65601800Y-52346800D02*
X65601800Y-50299900D01*
X65601000Y-50289900D02*
X65601800Y-52346800D01*
X65300100Y-49999000D02*
X65601000Y-50289900D01*
X50300000Y-49999000D02*
X65300100Y-49999000D01*
X49999200Y-50299400D02*
X50300000Y-49999000D01*
X49999000Y-57400200D02*
X49999200Y-50299400D01*
X50843500Y-58498900D02*
X49999000Y-57400200D01*
X51560100Y-59684300D02*
X50843500Y-58498900D01*
X52140000Y-60942300D02*
X51560100Y-59684300D01*
X52576200Y-62257000D02*
X52140000Y-60942300D01*
X52863000Y-63612200D02*
X52576200Y-62257000D01*
X52997000Y-64990900D02*
X52863000Y-63612200D01*
X52976500Y-66376000D02*
X52997000Y-64990900D01*
X52801700Y-67750300D02*
X52976500Y-66376000D01*
X52779000Y-77480100D02*
X52801700Y-67750300D01*
X53797600Y-78499000D02*
X52779000Y-77480100D01*
X50299900Y-78499000D02*
X53797600Y-78499000D01*
X49999100Y-78799500D02*
X50299900Y-78499000D01*
X49999000Y-85900100D02*
X49999100Y-78799500D01*
X50843500Y-86998900D02*
X49999000Y-85900100D01*
X51560100Y-88184300D02*
X50843500Y-86998900D01*
X52140000Y-89442300D02*
X51560100Y-88184300D01*
X52576200Y-90757000D02*
X52140000Y-89442300D01*
X52863000Y-92112200D02*
X52576200Y-90757000D01*
X52997000Y-93490900D02*
X52863000Y-92112200D01*
X52976500Y-94876000D02*
X52997000Y-93490900D01*
X52801700Y-96250300D02*
X52976500Y-94876000D01*
X52779000Y-105980100D02*
X52801700Y-96250300D01*
X53797600Y-106999000D02*
X52779000Y-105980100D01*
X50299900Y-106999000D02*
X53797600Y-106999000D01*
X49999100Y-107299500D02*
X50299900Y-106999000D01*
X49999000Y-114400000D02*
X49999100Y-107299500D01*
X50843500Y-115498900D02*
X49999000Y-114400000D01*
X51560100Y-116684300D02*
X50843500Y-115498900D01*
X52140000Y-117942300D02*
X51560100Y-116684300D01*
X52576200Y-119257100D02*
X52140000Y-117942300D01*
X52863000Y-120612200D02*
X52576200Y-119257100D01*
X52997000Y-121990900D02*
X52863000Y-120612200D01*
X52976500Y-123376000D02*
X52997000Y-121990900D01*
X52801700Y-124750300D02*
X52976500Y-123376000D01*
X52779000Y-134480100D02*
X52801700Y-124750300D01*
X53799400Y-135500800D02*
X52779000Y-134480100D01*
X61800100Y-135501000D02*
X53799400Y-135500800D01*
X62800900Y-134500500D02*
X61800100Y-135501000D01*
X62801000Y-124700000D02*
X62800900Y-134500500D01*
X62632800Y-123331600D02*
X62801000Y-124700000D01*
X62617000Y-121953100D02*
X62632800Y-123331600D01*
X62753800Y-120581400D02*
X62617000Y-121953100D01*
X63041500Y-119233200D02*
X62753800Y-120581400D01*
X63476400Y-117925000D02*
X63041500Y-119233200D01*
X64053500Y-116673100D02*
X63476400Y-117925000D01*
X64765400Y-115492600D02*
X64053500Y-116673100D01*
X65601800Y-114400300D02*
X64765400Y-115492600D01*
X66446300Y-115498900D02*
X65601800Y-114400300D01*
X67162800Y-116684300D02*
X66446300Y-115498900D01*
X67742800Y-117942300D02*
X67162800Y-116684300D01*
X68178900Y-119257100D02*
X67742800Y-117942300D01*
X68465800Y-120612200D02*
X68178900Y-119257100D01*
X68599800Y-121990900D02*
X68465800Y-120612200D01*
X68579300Y-123376000D02*
X68599800Y-121990900D01*
X68404500Y-124750300D02*
X68579300Y-123376000D01*
X68381800Y-134480100D02*
X68404500Y-124750300D01*
X69402200Y-135500800D02*
X68381800Y-134480100D01*
X77402900Y-135501000D02*
X69402200Y-135500800D01*
X78403700Y-134500500D02*
X77402900Y-135501000D01*
X78403800Y-124700000D02*
X78403700Y-134500500D01*
X78235600Y-123331600D02*
X78403800Y-124700000D01*
X78219800Y-121953100D02*
X78235600Y-123331600D01*
X78356600Y-120581400D02*
X78219800Y-121953100D01*
X78644200Y-119233200D02*
X78356600Y-120581400D01*
X79079200Y-117925000D02*
X78644200Y-119233200D01*
X79656200Y-116673100D02*
X79079200Y-117925000D01*
X80368200Y-115492600D02*
X79656200Y-116673100D01*
X81204600Y-114400300D02*
X80368200Y-115492600D01*
X82049000Y-115498900D02*
X81204600Y-114400300D01*
X82765600Y-116684300D02*
X82049000Y-115498900D01*
X83345600Y-117942300D02*
X82765600Y-116684300D01*
X83781700Y-119257100D02*
X83345600Y-117942300D01*
X84068600Y-120612200D02*
X83781700Y-119257100D01*
X84202600Y-121990900D02*
X84068600Y-120612200D01*
X84182100Y-123376000D02*
X84202600Y-121990900D01*
X84007300Y-124750300D02*
X84182100Y-123376000D01*
X83984600Y-134480500D02*
X84007300Y-124750300D01*
X85005400Y-135501000D02*
X83984600Y-134480500D01*
X93006000Y-135500900D02*
X85005400Y-135501000D01*
X94006500Y-134500100D02*
X93006000Y-135500900D01*
X94006500Y-124700000D02*
X94006500Y-134500100D01*
X93838400Y-123331600D02*
X94006500Y-124700000D01*
X93822600Y-121953100D02*
X93838400Y-123331600D01*
X93959400Y-120581400D02*
X93822600Y-121953100D01*
X94247000Y-119233200D02*
X93959400Y-120581400D01*
X94682000Y-117925000D02*
X94247000Y-119233200D01*
X95259000Y-116673100D02*
X94682000Y-117925000D01*
X95970900Y-115492600D02*
X95259000Y-116673100D01*
X96807400Y-114400300D02*
X95970900Y-115492600D01*
X97651800Y-115498900D02*
X96807400Y-114400300D01*
X98368400Y-116684300D02*
X97651800Y-115498900D01*
X98948300Y-117942300D02*
X98368400Y-116684300D01*
X99384500Y-119257100D02*
X98948300Y-117942300D01*
X99671300Y-120612200D02*
X99384500Y-119257100D01*
X99805300Y-121990900D02*
X99671300Y-120612200D01*
X99784800Y-123376000D02*
X99805300Y-121990900D01*
X99610000Y-124750300D02*
X99784800Y-123376000D01*
X99587400Y-134480500D02*
X99610000Y-124750300D01*
X100608200Y-135501000D02*
X99587400Y-134480500D01*
X108608700Y-135500900D02*
X100608200Y-135501000D01*
X109609300Y-134500100D02*
X108608700Y-135500900D01*
X109609300Y-124700000D02*
X109609300Y-134500100D01*
X109441200Y-123331600D02*
X109609300Y-124700000D01*
X109425400Y-121953100D02*
X109441200Y-123331600D01*
X109562100Y-120581400D02*
X109425400Y-121953100D01*
X109849800Y-119233200D02*
X109562100Y-120581400D01*
X110284800Y-117925000D02*
X109849800Y-119233200D01*
X110861800Y-116673100D02*
X110284800Y-117925000D01*
X111573700Y-115492600D02*
X110861800Y-116673100D01*
X112410100Y-114400300D02*
X111573700Y-115492600D01*
X113254600Y-115498900D02*
X112410100Y-114400300D01*
X113971200Y-116684300D02*
X113254600Y-115498900D01*
X114551100Y-117942300D02*
X113971200Y-116684300D01*
X114987300Y-119257100D02*
X114551100Y-117942300D01*
X115274100Y-120612200D02*
X114987300Y-119257100D01*
X115408100Y-121990900D02*
X115274100Y-120612200D01*
X115387600Y-123376000D02*
X115408100Y-121990900D01*
X115212800Y-124750300D02*
X115387600Y-123376000D01*
X115190200Y-134480500D02*
X115212800Y-124750300D01*
X116211000Y-135501000D02*
X115190200Y-134480500D01*
X124211400Y-135501000D02*
X116211000Y-135501000D01*
X125212100Y-134500100D02*
X124211400Y-135501000D01*
X125212100Y-124700000D02*
X125212100Y-134500100D01*
X125043900Y-123331600D02*
X125212100Y-124700000D01*
X125028100Y-121953100D02*
X125043900Y-123331600D01*
X125164900Y-120581400D02*
X125028100Y-121953100D01*
X125452500Y-119233200D02*
X125164900Y-120581400D01*
X125887500Y-117925000D02*
X125452500Y-119233200D01*
X126464500Y-116673100D02*
X125887500Y-117925000D01*
X127176500Y-115492600D02*
X126464500Y-116673100D01*
X128012900Y-114400300D02*
X127176500Y-115492600D01*
X128857400Y-115498900D02*
X128012900Y-114400300D01*
X129573900Y-116684300D02*
X128857400Y-115498900D01*
X130153900Y-117942300D02*
X129573900Y-116684300D01*
X130590000Y-119257100D02*
X130153900Y-117942300D01*
X130876900Y-120612200D02*
X130590000Y-119257100D01*
X131010900Y-121990900D02*
X130876900Y-120612200D01*
X130990400Y-123376000D02*
X131010900Y-121990900D01*
X130815600Y-124750300D02*
X130990400Y-123376000D01*
X130793000Y-134480500D02*
X130815600Y-124750300D01*
X131813800Y-135501000D02*
X130793000Y-134480500D01*
X139814200Y-135501000D02*
X131813800Y-135501000D01*
X140814900Y-134500100D02*
X139814200Y-135501000D01*
X140814900Y-124700000D02*
X140814900Y-134500100D01*
X140646700Y-123331600D02*
X140814900Y-124700000D01*
X140630900Y-121953100D02*
X140646700Y-123331600D01*
X140767700Y-120581400D02*
X140630900Y-121953100D01*
X141055300Y-119233200D02*
X140767700Y-120581400D01*
X141490300Y-117925000D02*
X141055300Y-119233200D01*
X142067300Y-116673100D02*
X141490300Y-117925000D01*
X142779300Y-115492600D02*
X142067300Y-116673100D01*
X143617600Y-114397400D02*
X142779300Y-115492600D01*
X143614800Y-107289500D02*
X143617600Y-114397400D01*
X143314000Y-106999000D02*
X143614800Y-107289500D01*
X139816300Y-106999000D02*
X143314000Y-106999000D01*
D11*
%TO.C,REF\u002A\u002A*%
X128013870Y-50000000D03*
%TD*%
%TO.C,REF\u002A\u002A*%
X128013870Y-50750000D03*
%TD*%
%TO.C,REF\u002A\u002A*%
X128013870Y-51500000D03*
%TD*%
%TO.C,REF\u002A\u002A*%
X128013870Y-52250001D03*
%TD*%
%TO.C,REF\u002A\u002A*%
X128013870Y-53000001D03*
%TD*%
%TO.C,REF\u002A\u002A*%
X128013870Y-53750001D03*
%TD*%
%TO.C,REF\u002A\u002A*%
X128013870Y-54500002D03*
%TD*%
%TO.C,REF\u002A\u002A*%
X128013870Y-55250002D03*
%TD*%
%TO.C,REF\u002A\u002A*%
X128013870Y-56000002D03*
%TD*%
%TO.C,REF\u002A\u002A*%
X128013870Y-56750003D03*
%TD*%
%TO.C,REF\u002A\u002A*%
X128013870Y-57500003D03*
%TD*%
%TO.C,REF\u002A\u002A*%
X128013870Y-79250013D03*
%TD*%
%TO.C,REF\u002A\u002A*%
X128013870Y-80000013D03*
%TD*%
%TO.C,REF\u002A\u002A*%
X128013870Y-80750014D03*
%TD*%
%TO.C,REF\u002A\u002A*%
X128013870Y-81500014D03*
%TD*%
%TO.C,REF\u002A\u002A*%
X128013870Y-82250014D03*
%TD*%
%TO.C,REF\u002A\u002A*%
X128013870Y-83000015D03*
%TD*%
%TO.C,REF\u002A\u002A*%
X128013870Y-83750015D03*
%TD*%
%TO.C,REF\u002A\u002A*%
X128013870Y-84500015D03*
%TD*%
%TO.C,REF\u002A\u002A*%
X128013870Y-85250016D03*
%TD*%
%TO.C,REF\u002A\u002A*%
X128013870Y-86000016D03*
%TD*%
%TO.C,REF\u002A\u002A*%
X128013870Y-107750026D03*
%TD*%
%TO.C,REF\u002A\u002A*%
X128013870Y-108500026D03*
%TD*%
%TO.C,REF\u002A\u002A*%
X128013870Y-109250027D03*
%TD*%
%TO.C,REF\u002A\u002A*%
X128013870Y-110000027D03*
%TD*%
%TO.C,REF\u002A\u002A*%
X128013870Y-110750027D03*
%TD*%
%TO.C,REF\u002A\u002A*%
X128013870Y-111500028D03*
%TD*%
%TO.C,REF\u002A\u002A*%
X128013870Y-112250028D03*
%TD*%
%TO.C,REF\u002A\u002A*%
X128013870Y-113000028D03*
%TD*%
%TO.C,REF\u002A\u002A*%
X128013870Y-113750029D03*
%TD*%
%TO.C,REF\u002A\u002A*%
X128013870Y-114500029D03*
%TD*%
%TO.C,REF\u002A\u002A*%
X112411096Y-50000000D03*
%TD*%
%TO.C,REF\u002A\u002A*%
X112411096Y-50750000D03*
%TD*%
%TO.C,REF\u002A\u002A*%
X112411096Y-51500000D03*
%TD*%
%TO.C,REF\u002A\u002A*%
X112411096Y-52250001D03*
%TD*%
%TO.C,REF\u002A\u002A*%
X112411096Y-53000001D03*
%TD*%
%TO.C,REF\u002A\u002A*%
X112411096Y-53750001D03*
%TD*%
%TO.C,REF\u002A\u002A*%
X112411096Y-54500002D03*
%TD*%
%TO.C,REF\u002A\u002A*%
X112411096Y-55250002D03*
%TD*%
%TO.C,REF\u002A\u002A*%
X112411096Y-56000002D03*
%TD*%
%TO.C,REF\u002A\u002A*%
X112411096Y-56750003D03*
%TD*%
%TO.C,REF\u002A\u002A*%
X112411096Y-57500003D03*
%TD*%
%TO.C,REF\u002A\u002A*%
X112411096Y-79250013D03*
%TD*%
%TO.C,REF\u002A\u002A*%
X112411096Y-80000013D03*
%TD*%
%TO.C,REF\u002A\u002A*%
X112411096Y-80750014D03*
%TD*%
%TO.C,REF\u002A\u002A*%
X112411096Y-81500014D03*
%TD*%
%TO.C,REF\u002A\u002A*%
X112411096Y-82250014D03*
%TD*%
%TO.C,REF\u002A\u002A*%
X112411096Y-83000015D03*
%TD*%
%TO.C,REF\u002A\u002A*%
X112411096Y-83750015D03*
%TD*%
%TO.C,REF\u002A\u002A*%
X112411096Y-84500015D03*
%TD*%
%TO.C,REF\u002A\u002A*%
X112411096Y-85250016D03*
%TD*%
%TO.C,REF\u002A\u002A*%
X112411096Y-86000016D03*
%TD*%
%TO.C,REF\u002A\u002A*%
X112411096Y-107750026D03*
%TD*%
%TO.C,REF\u002A\u002A*%
X112411096Y-108500026D03*
%TD*%
%TO.C,REF\u002A\u002A*%
X112411096Y-109250027D03*
%TD*%
%TO.C,REF\u002A\u002A*%
X112411096Y-110000027D03*
%TD*%
%TO.C,REF\u002A\u002A*%
X112411096Y-110750027D03*
%TD*%
%TO.C,REF\u002A\u002A*%
X112411096Y-111500028D03*
%TD*%
%TO.C,REF\u002A\u002A*%
X112411096Y-112250028D03*
%TD*%
%TO.C,REF\u002A\u002A*%
X112411096Y-113000028D03*
%TD*%
%TO.C,REF\u002A\u002A*%
X112411096Y-113750029D03*
%TD*%
%TO.C,REF\u002A\u002A*%
X112411096Y-114500029D03*
%TD*%
%TO.C,REF\u002A\u002A*%
X96808322Y-50000000D03*
%TD*%
%TO.C,REF\u002A\u002A*%
X96808322Y-50750000D03*
%TD*%
%TO.C,REF\u002A\u002A*%
X96808322Y-51500000D03*
%TD*%
%TO.C,REF\u002A\u002A*%
X96808322Y-52250001D03*
%TD*%
%TO.C,REF\u002A\u002A*%
X96808322Y-53000001D03*
%TD*%
%TO.C,REF\u002A\u002A*%
X96808322Y-53750001D03*
%TD*%
%TO.C,REF\u002A\u002A*%
X96808322Y-54500002D03*
%TD*%
%TO.C,REF\u002A\u002A*%
X96808322Y-55250002D03*
%TD*%
%TO.C,REF\u002A\u002A*%
X96808322Y-56000002D03*
%TD*%
%TO.C,REF\u002A\u002A*%
X96808322Y-56750003D03*
%TD*%
%TO.C,REF\u002A\u002A*%
X96808322Y-57500003D03*
%TD*%
%TO.C,REF\u002A\u002A*%
X96808322Y-78500013D03*
%TD*%
%TO.C,REF\u002A\u002A*%
X96808322Y-79250013D03*
%TD*%
%TO.C,REF\u002A\u002A*%
X96808322Y-80000013D03*
%TD*%
%TO.C,REF\u002A\u002A*%
X96808322Y-80750014D03*
%TD*%
%TO.C,REF\u002A\u002A*%
X96808322Y-81500014D03*
%TD*%
%TO.C,REF\u002A\u002A*%
X96808322Y-82250014D03*
%TD*%
%TO.C,REF\u002A\u002A*%
X96808322Y-83000015D03*
%TD*%
%TO.C,REF\u002A\u002A*%
X96808322Y-83750015D03*
%TD*%
%TO.C,REF\u002A\u002A*%
X96808322Y-84500015D03*
%TD*%
%TO.C,REF\u002A\u002A*%
X96808322Y-85250016D03*
%TD*%
%TO.C,REF\u002A\u002A*%
X96808322Y-86000016D03*
%TD*%
%TO.C,REF\u002A\u002A*%
X96808322Y-107000026D03*
%TD*%
%TO.C,REF\u002A\u002A*%
X96808322Y-107750026D03*
%TD*%
%TO.C,REF\u002A\u002A*%
X96808322Y-108500026D03*
%TD*%
%TO.C,REF\u002A\u002A*%
X96808322Y-109250027D03*
%TD*%
%TO.C,REF\u002A\u002A*%
X96808322Y-110000027D03*
%TD*%
%TO.C,REF\u002A\u002A*%
X96808322Y-110750027D03*
%TD*%
%TO.C,REF\u002A\u002A*%
X96808322Y-111500028D03*
%TD*%
%TO.C,REF\u002A\u002A*%
X96808322Y-112250028D03*
%TD*%
%TO.C,REF\u002A\u002A*%
X96808322Y-113000028D03*
%TD*%
%TO.C,REF\u002A\u002A*%
X96808322Y-113750029D03*
%TD*%
%TO.C,REF\u002A\u002A*%
X96808322Y-114500029D03*
%TD*%
%TO.C,REF\u002A\u002A*%
X81205548Y-50000000D03*
%TD*%
%TO.C,REF\u002A\u002A*%
X81205548Y-50750000D03*
%TD*%
%TO.C,REF\u002A\u002A*%
X81205548Y-51500000D03*
%TD*%
%TO.C,REF\u002A\u002A*%
X81205548Y-52250001D03*
%TD*%
%TO.C,REF\u002A\u002A*%
X81205548Y-53000001D03*
%TD*%
%TO.C,REF\u002A\u002A*%
X81205548Y-53750001D03*
%TD*%
%TO.C,REF\u002A\u002A*%
X81205548Y-54500002D03*
%TD*%
%TO.C,REF\u002A\u002A*%
X81205548Y-55250002D03*
%TD*%
%TO.C,REF\u002A\u002A*%
X81205548Y-56000002D03*
%TD*%
%TO.C,REF\u002A\u002A*%
X81205548Y-56750003D03*
%TD*%
%TO.C,REF\u002A\u002A*%
X81205548Y-57500003D03*
%TD*%
%TO.C,REF\u002A\u002A*%
X81205548Y-79250013D03*
%TD*%
%TO.C,REF\u002A\u002A*%
X81205548Y-80000013D03*
%TD*%
%TO.C,REF\u002A\u002A*%
X81205548Y-80750014D03*
%TD*%
%TO.C,REF\u002A\u002A*%
X81205548Y-81500014D03*
%TD*%
%TO.C,REF\u002A\u002A*%
X81205548Y-82250014D03*
%TD*%
%TO.C,REF\u002A\u002A*%
X81205548Y-83000015D03*
%TD*%
%TO.C,REF\u002A\u002A*%
X81205548Y-83750015D03*
%TD*%
%TO.C,REF\u002A\u002A*%
X81205548Y-84500015D03*
%TD*%
%TO.C,REF\u002A\u002A*%
X81205548Y-85250016D03*
%TD*%
%TO.C,REF\u002A\u002A*%
X81205548Y-86000016D03*
%TD*%
%TO.C,REF\u002A\u002A*%
X81205548Y-107750026D03*
%TD*%
%TO.C,REF\u002A\u002A*%
X81205548Y-108500026D03*
%TD*%
%TO.C,REF\u002A\u002A*%
X81205548Y-109250027D03*
%TD*%
%TO.C,REF\u002A\u002A*%
X81205548Y-110000027D03*
%TD*%
%TO.C,REF\u002A\u002A*%
X81205548Y-110750027D03*
%TD*%
%TO.C,REF\u002A\u002A*%
X81205548Y-111500028D03*
%TD*%
%TO.C,REF\u002A\u002A*%
X81205548Y-112250028D03*
%TD*%
%TO.C,REF\u002A\u002A*%
X81205548Y-113000028D03*
%TD*%
%TO.C,REF\u002A\u002A*%
X81205548Y-113750029D03*
%TD*%
%TO.C,REF\u002A\u002A*%
X81205548Y-114500029D03*
%TD*%
%TO.C,REF\u002A\u002A*%
X65602774Y-50000000D03*
%TD*%
%TO.C,REF\u002A\u002A*%
X65602774Y-50750000D03*
%TD*%
%TO.C,REF\u002A\u002A*%
X65602774Y-51500000D03*
%TD*%
%TO.C,REF\u002A\u002A*%
X65602774Y-52250001D03*
%TD*%
%TO.C,REF\u002A\u002A*%
X65602774Y-53000001D03*
%TD*%
%TO.C,REF\u002A\u002A*%
X65602774Y-53750001D03*
%TD*%
%TO.C,REF\u002A\u002A*%
X65602774Y-54500002D03*
%TD*%
%TO.C,REF\u002A\u002A*%
X65602774Y-55250002D03*
%TD*%
%TO.C,REF\u002A\u002A*%
X65602774Y-56000002D03*
%TD*%
%TO.C,REF\u002A\u002A*%
X65602774Y-56750003D03*
%TD*%
%TO.C,REF\u002A\u002A*%
X65602774Y-57500003D03*
%TD*%
%TO.C,REF\u002A\u002A*%
X65602774Y-79250013D03*
%TD*%
%TO.C,REF\u002A\u002A*%
X65602774Y-80000013D03*
%TD*%
%TO.C,REF\u002A\u002A*%
X65602774Y-80750014D03*
%TD*%
%TO.C,REF\u002A\u002A*%
X65602774Y-81500014D03*
%TD*%
%TO.C,REF\u002A\u002A*%
X65602774Y-82250014D03*
%TD*%
%TO.C,REF\u002A\u002A*%
X65602774Y-83000015D03*
%TD*%
%TO.C,REF\u002A\u002A*%
X65602774Y-83750015D03*
%TD*%
%TO.C,REF\u002A\u002A*%
X65602774Y-84500015D03*
%TD*%
%TO.C,REF\u002A\u002A*%
X65602774Y-85250016D03*
%TD*%
%TO.C,REF\u002A\u002A*%
X65602774Y-86000016D03*
%TD*%
%TO.C,REF\u002A\u002A*%
X65602774Y-107750026D03*
%TD*%
%TO.C,REF\u002A\u002A*%
X65602774Y-108500026D03*
%TD*%
%TO.C,REF\u002A\u002A*%
X65602774Y-109250027D03*
%TD*%
%TO.C,REF\u002A\u002A*%
X65602774Y-110000027D03*
%TD*%
%TO.C,REF\u002A\u002A*%
X65602774Y-110750027D03*
%TD*%
%TO.C,REF\u002A\u002A*%
X65602774Y-111500028D03*
%TD*%
%TO.C,REF\u002A\u002A*%
X65602774Y-112250028D03*
%TD*%
%TO.C,REF\u002A\u002A*%
X65602774Y-113000028D03*
%TD*%
%TO.C,REF\u002A\u002A*%
X65602774Y-113750029D03*
%TD*%
%TO.C,REF\u002A\u002A*%
X65602774Y-114500029D03*
%TD*%
%TO.C,REF\u002A\u002A*%
X143616644Y-107000026D03*
%TD*%
%TO.C,REF\u002A\u002A*%
X142861671Y-107000026D03*
%TD*%
%TO.C,REF\u002A\u002A*%
X142106698Y-107000026D03*
%TD*%
%TO.C,REF\u002A\u002A*%
X141351725Y-107000026D03*
%TD*%
%TO.C,REF\u002A\u002A*%
X140596752Y-107000026D03*
%TD*%
%TO.C,REF\u002A\u002A*%
X139841779Y-107000026D03*
%TD*%
%TO.C,REF\u002A\u002A*%
X139086806Y-107000026D03*
%TD*%
%TO.C,REF\u002A\u002A*%
X138331833Y-107000026D03*
%TD*%
%TO.C,REF\u002A\u002A*%
X137576860Y-107000026D03*
%TD*%
%TO.C,REF\u002A\u002A*%
X136821887Y-107000026D03*
%TD*%
%TO.C,REF\u002A\u002A*%
X136066914Y-107000026D03*
%TD*%
%TO.C,REF\u002A\u002A*%
X135311941Y-107000026D03*
%TD*%
%TO.C,REF\u002A\u002A*%
X134556968Y-107000026D03*
%TD*%
%TO.C,REF\u002A\u002A*%
X133801995Y-107000026D03*
%TD*%
%TO.C,REF\u002A\u002A*%
X133047022Y-107000026D03*
%TD*%
%TO.C,REF\u002A\u002A*%
X132292049Y-107000026D03*
%TD*%
%TO.C,REF\u002A\u002A*%
X131537077Y-107000026D03*
%TD*%
%TO.C,REF\u002A\u002A*%
X130782104Y-107000026D03*
%TD*%
%TO.C,REF\u002A\u002A*%
X130027131Y-107000026D03*
%TD*%
%TO.C,REF\u002A\u002A*%
X129272158Y-107000026D03*
%TD*%
%TO.C,REF\u002A\u002A*%
X128517185Y-107000026D03*
%TD*%
%TO.C,REF\u002A\u002A*%
X127762212Y-107000026D03*
%TD*%
%TO.C,REF\u002A\u002A*%
X127007239Y-107000026D03*
%TD*%
%TO.C,REF\u002A\u002A*%
X126252266Y-107000026D03*
%TD*%
%TO.C,REF\u002A\u002A*%
X125497293Y-107000026D03*
%TD*%
%TO.C,REF\u002A\u002A*%
X124742320Y-107000026D03*
%TD*%
%TO.C,REF\u002A\u002A*%
X123987347Y-107000026D03*
%TD*%
%TO.C,REF\u002A\u002A*%
X123232374Y-107000026D03*
%TD*%
%TO.C,REF\u002A\u002A*%
X122477401Y-107000026D03*
%TD*%
%TO.C,REF\u002A\u002A*%
X121722428Y-107000026D03*
%TD*%
%TO.C,REF\u002A\u002A*%
X120967455Y-107000026D03*
%TD*%
%TO.C,REF\u002A\u002A*%
X120212483Y-107000026D03*
%TD*%
%TO.C,REF\u002A\u002A*%
X119457510Y-107000026D03*
%TD*%
%TO.C,REF\u002A\u002A*%
X118702537Y-107000026D03*
%TD*%
%TO.C,REF\u002A\u002A*%
X117947564Y-107000026D03*
%TD*%
%TO.C,REF\u002A\u002A*%
X117192591Y-107000026D03*
%TD*%
%TO.C,REF\u002A\u002A*%
X116437618Y-107000026D03*
%TD*%
%TO.C,REF\u002A\u002A*%
X115682645Y-107000026D03*
%TD*%
%TO.C,REF\u002A\u002A*%
X114927672Y-107000026D03*
%TD*%
%TO.C,REF\u002A\u002A*%
X114172699Y-107000026D03*
%TD*%
%TO.C,REF\u002A\u002A*%
X113417726Y-107000026D03*
%TD*%
%TO.C,REF\u002A\u002A*%
X112662753Y-107000026D03*
%TD*%
%TO.C,REF\u002A\u002A*%
X111907780Y-107000026D03*
%TD*%
%TO.C,REF\u002A\u002A*%
X111152807Y-107000026D03*
%TD*%
%TO.C,REF\u002A\u002A*%
X110397834Y-107000026D03*
%TD*%
%TO.C,REF\u002A\u002A*%
X109642861Y-107000026D03*
%TD*%
%TO.C,REF\u002A\u002A*%
X108887888Y-107000026D03*
%TD*%
%TO.C,REF\u002A\u002A*%
X108132916Y-107000026D03*
%TD*%
%TO.C,REF\u002A\u002A*%
X107377943Y-107000026D03*
%TD*%
%TO.C,REF\u002A\u002A*%
X106622970Y-107000026D03*
%TD*%
%TO.C,REF\u002A\u002A*%
X105867997Y-107000026D03*
%TD*%
%TO.C,REF\u002A\u002A*%
X105113024Y-107000026D03*
%TD*%
%TO.C,REF\u002A\u002A*%
X104358051Y-107000026D03*
%TD*%
%TO.C,REF\u002A\u002A*%
X103603078Y-107000026D03*
%TD*%
%TO.C,REF\u002A\u002A*%
X102848105Y-107000026D03*
%TD*%
%TO.C,REF\u002A\u002A*%
X102093132Y-107000026D03*
%TD*%
%TO.C,REF\u002A\u002A*%
X101338159Y-107000026D03*
%TD*%
%TO.C,REF\u002A\u002A*%
X100583186Y-107000026D03*
%TD*%
%TO.C,REF\u002A\u002A*%
X99828213Y-107000026D03*
%TD*%
%TO.C,REF\u002A\u002A*%
X99073240Y-107000026D03*
%TD*%
%TO.C,REF\u002A\u002A*%
X98318267Y-107000026D03*
%TD*%
%TO.C,REF\u002A\u002A*%
X97563294Y-107000026D03*
%TD*%
%TO.C,REF\u002A\u002A*%
X96808322Y-107000026D03*
%TD*%
%TO.C,REF\u002A\u002A*%
X96053349Y-107000026D03*
%TD*%
%TO.C,REF\u002A\u002A*%
X95298376Y-107000026D03*
%TD*%
%TO.C,REF\u002A\u002A*%
X94543403Y-107000026D03*
%TD*%
%TO.C,REF\u002A\u002A*%
X93788430Y-107000026D03*
%TD*%
%TO.C,REF\u002A\u002A*%
X93033457Y-107000026D03*
%TD*%
%TO.C,REF\u002A\u002A*%
X92278484Y-107000026D03*
%TD*%
%TO.C,REF\u002A\u002A*%
X91523511Y-107000026D03*
%TD*%
%TO.C,REF\u002A\u002A*%
X90768538Y-107000026D03*
%TD*%
%TO.C,REF\u002A\u002A*%
X90013565Y-107000026D03*
%TD*%
%TO.C,REF\u002A\u002A*%
X89258592Y-107000026D03*
%TD*%
%TO.C,REF\u002A\u002A*%
X88503619Y-107000026D03*
%TD*%
%TO.C,REF\u002A\u002A*%
X87748646Y-107000026D03*
%TD*%
%TO.C,REF\u002A\u002A*%
X86993673Y-107000026D03*
%TD*%
%TO.C,REF\u002A\u002A*%
X86238700Y-107000026D03*
%TD*%
%TO.C,REF\u002A\u002A*%
X85483727Y-107000026D03*
%TD*%
%TO.C,REF\u002A\u002A*%
X84728755Y-107000026D03*
%TD*%
%TO.C,REF\u002A\u002A*%
X83973782Y-107000026D03*
%TD*%
%TO.C,REF\u002A\u002A*%
X83218809Y-107000026D03*
%TD*%
%TO.C,REF\u002A\u002A*%
X82463836Y-107000026D03*
%TD*%
%TO.C,REF\u002A\u002A*%
X81708863Y-107000026D03*
%TD*%
%TO.C,REF\u002A\u002A*%
X80953890Y-107000026D03*
%TD*%
%TO.C,REF\u002A\u002A*%
X80198917Y-107000026D03*
%TD*%
%TO.C,REF\u002A\u002A*%
X79443944Y-107000026D03*
%TD*%
%TO.C,REF\u002A\u002A*%
X78688971Y-107000026D03*
%TD*%
%TO.C,REF\u002A\u002A*%
X77933998Y-107000026D03*
%TD*%
%TO.C,REF\u002A\u002A*%
X77179025Y-107000026D03*
%TD*%
%TO.C,REF\u002A\u002A*%
X76424052Y-107000026D03*
%TD*%
%TO.C,REF\u002A\u002A*%
X75669079Y-107000026D03*
%TD*%
%TO.C,REF\u002A\u002A*%
X74914106Y-107000026D03*
%TD*%
%TO.C,REF\u002A\u002A*%
X74159133Y-107000026D03*
%TD*%
%TO.C,REF\u002A\u002A*%
X73404161Y-107000026D03*
%TD*%
%TO.C,REF\u002A\u002A*%
X72649188Y-107000026D03*
%TD*%
%TO.C,REF\u002A\u002A*%
X71894215Y-107000026D03*
%TD*%
%TO.C,REF\u002A\u002A*%
X71139242Y-107000026D03*
%TD*%
%TO.C,REF\u002A\u002A*%
X70384269Y-107000026D03*
%TD*%
%TO.C,REF\u002A\u002A*%
X69629296Y-107000026D03*
%TD*%
%TO.C,REF\u002A\u002A*%
X68874323Y-107000026D03*
%TD*%
%TO.C,REF\u002A\u002A*%
X68119350Y-107000026D03*
%TD*%
%TO.C,REF\u002A\u002A*%
X67364377Y-107000026D03*
%TD*%
%TO.C,REF\u002A\u002A*%
X66609404Y-107000026D03*
%TD*%
%TO.C,REF\u002A\u002A*%
X65854431Y-107000026D03*
%TD*%
%TO.C,REF\u002A\u002A*%
X65099458Y-107000026D03*
%TD*%
%TO.C,REF\u002A\u002A*%
X64344485Y-107000026D03*
%TD*%
%TO.C,REF\u002A\u002A*%
X63589512Y-107000026D03*
%TD*%
%TO.C,REF\u002A\u002A*%
X62834539Y-107000026D03*
%TD*%
%TO.C,REF\u002A\u002A*%
X62079566Y-107000026D03*
%TD*%
%TO.C,REF\u002A\u002A*%
X61324594Y-107000026D03*
%TD*%
%TO.C,REF\u002A\u002A*%
X60569621Y-107000026D03*
%TD*%
%TO.C,REF\u002A\u002A*%
X59814648Y-107000026D03*
%TD*%
%TO.C,REF\u002A\u002A*%
X59059675Y-107000026D03*
%TD*%
%TO.C,REF\u002A\u002A*%
X58304702Y-107000026D03*
%TD*%
%TO.C,REF\u002A\u002A*%
X57549729Y-107000026D03*
%TD*%
%TO.C,REF\u002A\u002A*%
X56794756Y-107000026D03*
%TD*%
%TO.C,REF\u002A\u002A*%
X56039783Y-107000026D03*
%TD*%
%TO.C,REF\u002A\u002A*%
X55284810Y-107000026D03*
%TD*%
%TO.C,REF\u002A\u002A*%
X54529837Y-107000026D03*
%TD*%
%TO.C,REF\u002A\u002A*%
X53774864Y-107000026D03*
%TD*%
%TO.C,REF\u002A\u002A*%
X53019891Y-107000026D03*
%TD*%
%TO.C,REF\u002A\u002A*%
X52264918Y-107000026D03*
%TD*%
%TO.C,REF\u002A\u002A*%
X51509945Y-107000026D03*
%TD*%
%TO.C,REF\u002A\u002A*%
X50754972Y-107000026D03*
%TD*%
%TO.C,REF\u002A\u002A*%
X143616644Y-78500013D03*
%TD*%
%TO.C,REF\u002A\u002A*%
X142861671Y-78500013D03*
%TD*%
%TO.C,REF\u002A\u002A*%
X142106698Y-78500013D03*
%TD*%
%TO.C,REF\u002A\u002A*%
X141351725Y-78500013D03*
%TD*%
%TO.C,REF\u002A\u002A*%
X140596752Y-78500013D03*
%TD*%
%TO.C,REF\u002A\u002A*%
X139841779Y-78500013D03*
%TD*%
%TO.C,REF\u002A\u002A*%
X139086806Y-78500013D03*
%TD*%
%TO.C,REF\u002A\u002A*%
X138331833Y-78500013D03*
%TD*%
%TO.C,REF\u002A\u002A*%
X137576860Y-78500013D03*
%TD*%
%TO.C,REF\u002A\u002A*%
X136821887Y-78500013D03*
%TD*%
%TO.C,REF\u002A\u002A*%
X136066914Y-78500013D03*
%TD*%
%TO.C,REF\u002A\u002A*%
X135311941Y-78500013D03*
%TD*%
%TO.C,REF\u002A\u002A*%
X134556968Y-78500013D03*
%TD*%
%TO.C,REF\u002A\u002A*%
X133801995Y-78500013D03*
%TD*%
%TO.C,REF\u002A\u002A*%
X133047022Y-78500013D03*
%TD*%
%TO.C,REF\u002A\u002A*%
X132292049Y-78500013D03*
%TD*%
%TO.C,REF\u002A\u002A*%
X131537077Y-78500013D03*
%TD*%
%TO.C,REF\u002A\u002A*%
X130782104Y-78500013D03*
%TD*%
%TO.C,REF\u002A\u002A*%
X130027131Y-78500013D03*
%TD*%
%TO.C,REF\u002A\u002A*%
X129272158Y-78500013D03*
%TD*%
%TO.C,REF\u002A\u002A*%
X128517185Y-78500013D03*
%TD*%
%TO.C,REF\u002A\u002A*%
X127762212Y-78500013D03*
%TD*%
%TO.C,REF\u002A\u002A*%
X127007239Y-78500013D03*
%TD*%
%TO.C,REF\u002A\u002A*%
X126252266Y-78500013D03*
%TD*%
%TO.C,REF\u002A\u002A*%
X125497293Y-78500013D03*
%TD*%
%TO.C,REF\u002A\u002A*%
X124742320Y-78500013D03*
%TD*%
%TO.C,REF\u002A\u002A*%
X123987347Y-78500013D03*
%TD*%
%TO.C,REF\u002A\u002A*%
X123232374Y-78500013D03*
%TD*%
%TO.C,REF\u002A\u002A*%
X122477401Y-78500013D03*
%TD*%
%TO.C,REF\u002A\u002A*%
X121722428Y-78500013D03*
%TD*%
%TO.C,REF\u002A\u002A*%
X120967455Y-78500013D03*
%TD*%
%TO.C,REF\u002A\u002A*%
X120212483Y-78500013D03*
%TD*%
%TO.C,REF\u002A\u002A*%
X119457510Y-78500013D03*
%TD*%
%TO.C,REF\u002A\u002A*%
X118702537Y-78500013D03*
%TD*%
%TO.C,REF\u002A\u002A*%
X117947564Y-78500013D03*
%TD*%
%TO.C,REF\u002A\u002A*%
X117192591Y-78500013D03*
%TD*%
%TO.C,REF\u002A\u002A*%
X116437618Y-78500013D03*
%TD*%
%TO.C,REF\u002A\u002A*%
X115682645Y-78500013D03*
%TD*%
%TO.C,REF\u002A\u002A*%
X114927672Y-78500013D03*
%TD*%
%TO.C,REF\u002A\u002A*%
X114172699Y-78500013D03*
%TD*%
%TO.C,REF\u002A\u002A*%
X113417726Y-78500013D03*
%TD*%
%TO.C,REF\u002A\u002A*%
X112662753Y-78500013D03*
%TD*%
%TO.C,REF\u002A\u002A*%
X111907780Y-78500013D03*
%TD*%
%TO.C,REF\u002A\u002A*%
X111152807Y-78500013D03*
%TD*%
%TO.C,REF\u002A\u002A*%
X110397834Y-78500013D03*
%TD*%
%TO.C,REF\u002A\u002A*%
X109642861Y-78500013D03*
%TD*%
%TO.C,REF\u002A\u002A*%
X108887888Y-78500013D03*
%TD*%
%TO.C,REF\u002A\u002A*%
X108132916Y-78500013D03*
%TD*%
%TO.C,REF\u002A\u002A*%
X107377943Y-78500013D03*
%TD*%
%TO.C,REF\u002A\u002A*%
X106622970Y-78500013D03*
%TD*%
%TO.C,REF\u002A\u002A*%
X105867997Y-78500013D03*
%TD*%
%TO.C,REF\u002A\u002A*%
X105113024Y-78500013D03*
%TD*%
%TO.C,REF\u002A\u002A*%
X104358051Y-78500013D03*
%TD*%
%TO.C,REF\u002A\u002A*%
X103603078Y-78500013D03*
%TD*%
%TO.C,REF\u002A\u002A*%
X102848105Y-78500013D03*
%TD*%
%TO.C,REF\u002A\u002A*%
X102093132Y-78500013D03*
%TD*%
%TO.C,REF\u002A\u002A*%
X101338159Y-78500013D03*
%TD*%
%TO.C,REF\u002A\u002A*%
X100583186Y-78500013D03*
%TD*%
%TO.C,REF\u002A\u002A*%
X99828213Y-78500013D03*
%TD*%
%TO.C,REF\u002A\u002A*%
X99073240Y-78500013D03*
%TD*%
%TO.C,REF\u002A\u002A*%
X98318267Y-78500013D03*
%TD*%
%TO.C,REF\u002A\u002A*%
X97563294Y-78500013D03*
%TD*%
%TO.C,REF\u002A\u002A*%
X96808322Y-78500013D03*
%TD*%
%TO.C,REF\u002A\u002A*%
X96053349Y-78500013D03*
%TD*%
%TO.C,REF\u002A\u002A*%
X95298376Y-78500013D03*
%TD*%
%TO.C,REF\u002A\u002A*%
X94543403Y-78500013D03*
%TD*%
%TO.C,REF\u002A\u002A*%
X93788430Y-78500013D03*
%TD*%
%TO.C,REF\u002A\u002A*%
X93033457Y-78500013D03*
%TD*%
%TO.C,REF\u002A\u002A*%
X92278484Y-78500013D03*
%TD*%
%TO.C,REF\u002A\u002A*%
X91523511Y-78500013D03*
%TD*%
%TO.C,REF\u002A\u002A*%
X90768538Y-78500013D03*
%TD*%
%TO.C,REF\u002A\u002A*%
X90013565Y-78500013D03*
%TD*%
%TO.C,REF\u002A\u002A*%
X89258592Y-78500013D03*
%TD*%
%TO.C,REF\u002A\u002A*%
X88503619Y-78500013D03*
%TD*%
%TO.C,REF\u002A\u002A*%
X87748646Y-78500013D03*
%TD*%
%TO.C,REF\u002A\u002A*%
X86993673Y-78500013D03*
%TD*%
%TO.C,REF\u002A\u002A*%
X86238700Y-78500013D03*
%TD*%
%TO.C,REF\u002A\u002A*%
X85483727Y-78500013D03*
%TD*%
%TO.C,REF\u002A\u002A*%
X84728755Y-78500013D03*
%TD*%
%TO.C,REF\u002A\u002A*%
X83973782Y-78500013D03*
%TD*%
%TO.C,REF\u002A\u002A*%
X83218809Y-78500013D03*
%TD*%
%TO.C,REF\u002A\u002A*%
X82463836Y-78500013D03*
%TD*%
%TO.C,REF\u002A\u002A*%
X81708863Y-78500013D03*
%TD*%
%TO.C,REF\u002A\u002A*%
X80953890Y-78500013D03*
%TD*%
%TO.C,REF\u002A\u002A*%
X80198917Y-78500013D03*
%TD*%
%TO.C,REF\u002A\u002A*%
X79443944Y-78500013D03*
%TD*%
%TO.C,REF\u002A\u002A*%
X78688971Y-78500013D03*
%TD*%
%TO.C,REF\u002A\u002A*%
X77933998Y-78500013D03*
%TD*%
%TO.C,REF\u002A\u002A*%
X77179025Y-78500013D03*
%TD*%
%TO.C,REF\u002A\u002A*%
X76424052Y-78500013D03*
%TD*%
%TO.C,REF\u002A\u002A*%
X75669079Y-78500013D03*
%TD*%
%TO.C,REF\u002A\u002A*%
X74914106Y-78500013D03*
%TD*%
%TO.C,REF\u002A\u002A*%
X74159133Y-78500013D03*
%TD*%
%TO.C,REF\u002A\u002A*%
X73404161Y-78500013D03*
%TD*%
%TO.C,REF\u002A\u002A*%
X72649188Y-78500013D03*
%TD*%
%TO.C,REF\u002A\u002A*%
X71894215Y-78500013D03*
%TD*%
%TO.C,REF\u002A\u002A*%
X71139242Y-78500013D03*
%TD*%
%TO.C,REF\u002A\u002A*%
X70384269Y-78500013D03*
%TD*%
%TO.C,REF\u002A\u002A*%
X69629296Y-78500013D03*
%TD*%
%TO.C,REF\u002A\u002A*%
X68874323Y-78500013D03*
%TD*%
%TO.C,REF\u002A\u002A*%
X68119350Y-78500013D03*
%TD*%
%TO.C,REF\u002A\u002A*%
X67364377Y-78500013D03*
%TD*%
%TO.C,REF\u002A\u002A*%
X66609404Y-78500013D03*
%TD*%
%TO.C,REF\u002A\u002A*%
X65854431Y-78500013D03*
%TD*%
%TO.C,REF\u002A\u002A*%
X65099458Y-78500013D03*
%TD*%
%TO.C,REF\u002A\u002A*%
X64344485Y-78500013D03*
%TD*%
%TO.C,REF\u002A\u002A*%
X63589512Y-78500013D03*
%TD*%
%TO.C,REF\u002A\u002A*%
X62834539Y-78500013D03*
%TD*%
%TO.C,REF\u002A\u002A*%
X62079566Y-78500013D03*
%TD*%
%TO.C,REF\u002A\u002A*%
X61324594Y-78500013D03*
%TD*%
%TO.C,REF\u002A\u002A*%
X60569621Y-78500013D03*
%TD*%
%TO.C,REF\u002A\u002A*%
X59814648Y-78500013D03*
%TD*%
%TO.C,REF\u002A\u002A*%
X59059675Y-78500013D03*
%TD*%
%TO.C,REF\u002A\u002A*%
X58304702Y-78500013D03*
%TD*%
%TO.C,REF\u002A\u002A*%
X57549729Y-78500013D03*
%TD*%
%TO.C,REF\u002A\u002A*%
X56794756Y-78500013D03*
%TD*%
%TO.C,REF\u002A\u002A*%
X56039783Y-78500013D03*
%TD*%
%TO.C,REF\u002A\u002A*%
X55284810Y-78500013D03*
%TD*%
%TO.C,REF\u002A\u002A*%
X54529837Y-78500013D03*
%TD*%
%TO.C,REF\u002A\u002A*%
X53774864Y-78500013D03*
%TD*%
%TO.C,REF\u002A\u002A*%
X53019891Y-78500013D03*
%TD*%
%TO.C,REF\u002A\u002A*%
X52264918Y-78500013D03*
%TD*%
%TO.C,REF\u002A\u002A*%
X51509945Y-78500013D03*
%TD*%
%TO.C,REF\u002A\u002A*%
X50754972Y-78500013D03*
%TD*%
D12*
%TO.C,P2*%
X132638871Y-127979427D03*
X133908871Y-127725427D03*
X135178871Y-127725427D03*
X136448871Y-127725427D03*
X137718871Y-127725427D03*
X138988871Y-127979427D03*
D13*
X132346771Y-127979427D03*
X133616771Y-127725427D03*
X134886771Y-127725427D03*
X136156771Y-127725427D03*
X137426771Y-127725427D03*
X132930971Y-127979427D03*
X134200971Y-127725427D03*
X135470971Y-127725427D03*
X136740971Y-127725427D03*
X138010971Y-127725427D03*
X138696771Y-127979427D03*
X139280971Y-127979427D03*
%TD*%
D14*
%TO.C,P1*%
X138353871Y-109500027D03*
X135813871Y-109500027D03*
X133273871Y-109500027D03*
%TD*%
D15*
%TO.C,S1*%
X137888871Y-118675027D03*
X133738871Y-118675027D03*
X137888871Y-116525027D03*
X133738871Y-116525027D03*
%TD*%
D16*
%TO.C,R1*%
X129283871Y-109500027D03*
X130783871Y-109500027D03*
%TD*%
D17*
%TO.C,D1*%
X130513871Y-113649047D03*
X130513871Y-111551007D03*
%TD*%
D12*
%TO.C,P2*%
X117036097Y-127979427D03*
X118306097Y-127725427D03*
X119576097Y-127725427D03*
X120846097Y-127725427D03*
X122116097Y-127725427D03*
X123386097Y-127979427D03*
D13*
X116743997Y-127979427D03*
X118013997Y-127725427D03*
X119283997Y-127725427D03*
X120553997Y-127725427D03*
X121823997Y-127725427D03*
X117328197Y-127979427D03*
X118598197Y-127725427D03*
X119868197Y-127725427D03*
X121138197Y-127725427D03*
X122408197Y-127725427D03*
X123093997Y-127979427D03*
X123678197Y-127979427D03*
%TD*%
D14*
%TO.C,P1*%
X122751097Y-109500027D03*
X120211097Y-109500027D03*
X117671097Y-109500027D03*
%TD*%
D15*
%TO.C,S1*%
X122286097Y-118675027D03*
X118136097Y-118675027D03*
X122286097Y-116525027D03*
X118136097Y-116525027D03*
%TD*%
D16*
%TO.C,R1*%
X113681097Y-109500027D03*
X115181097Y-109500027D03*
%TD*%
D17*
%TO.C,D1*%
X114911097Y-113649047D03*
X114911097Y-111551007D03*
%TD*%
D12*
%TO.C,P2*%
X101433323Y-127979427D03*
X102703323Y-127725427D03*
X103973323Y-127725427D03*
X105243323Y-127725427D03*
X106513323Y-127725427D03*
X107783323Y-127979427D03*
D13*
X101141223Y-127979427D03*
X102411223Y-127725427D03*
X103681223Y-127725427D03*
X104951223Y-127725427D03*
X106221223Y-127725427D03*
X101725423Y-127979427D03*
X102995423Y-127725427D03*
X104265423Y-127725427D03*
X105535423Y-127725427D03*
X106805423Y-127725427D03*
X107491223Y-127979427D03*
X108075423Y-127979427D03*
%TD*%
D14*
%TO.C,P1*%
X107148323Y-109500027D03*
X104608323Y-109500027D03*
X102068323Y-109500027D03*
%TD*%
D15*
%TO.C,S1*%
X106683323Y-118675027D03*
X102533323Y-118675027D03*
X106683323Y-116525027D03*
X102533323Y-116525027D03*
%TD*%
D16*
%TO.C,R1*%
X98078323Y-109500027D03*
X99578323Y-109500027D03*
%TD*%
D17*
%TO.C,D1*%
X99308323Y-113649047D03*
X99308323Y-111551007D03*
%TD*%
D12*
%TO.C,P2*%
X85830549Y-127979427D03*
X87100549Y-127725427D03*
X88370549Y-127725427D03*
X89640549Y-127725427D03*
X90910549Y-127725427D03*
X92180549Y-127979427D03*
D13*
X85538449Y-127979427D03*
X86808449Y-127725427D03*
X88078449Y-127725427D03*
X89348449Y-127725427D03*
X90618449Y-127725427D03*
X86122649Y-127979427D03*
X87392649Y-127725427D03*
X88662649Y-127725427D03*
X89932649Y-127725427D03*
X91202649Y-127725427D03*
X91888449Y-127979427D03*
X92472649Y-127979427D03*
%TD*%
D14*
%TO.C,P1*%
X91545549Y-109500027D03*
X89005549Y-109500027D03*
X86465549Y-109500027D03*
%TD*%
D15*
%TO.C,S1*%
X91080549Y-118675027D03*
X86930549Y-118675027D03*
X91080549Y-116525027D03*
X86930549Y-116525027D03*
%TD*%
D16*
%TO.C,R1*%
X82475549Y-109500027D03*
X83975549Y-109500027D03*
%TD*%
D17*
%TO.C,D1*%
X83705549Y-113649047D03*
X83705549Y-111551007D03*
%TD*%
D12*
%TO.C,P2*%
X70227775Y-127979427D03*
X71497775Y-127725427D03*
X72767775Y-127725427D03*
X74037775Y-127725427D03*
X75307775Y-127725427D03*
X76577775Y-127979427D03*
D13*
X69935675Y-127979427D03*
X71205675Y-127725427D03*
X72475675Y-127725427D03*
X73745675Y-127725427D03*
X75015675Y-127725427D03*
X70519875Y-127979427D03*
X71789875Y-127725427D03*
X73059875Y-127725427D03*
X74329875Y-127725427D03*
X75599875Y-127725427D03*
X76285675Y-127979427D03*
X76869875Y-127979427D03*
%TD*%
D14*
%TO.C,P1*%
X75942775Y-109500027D03*
X73402775Y-109500027D03*
X70862775Y-109500027D03*
%TD*%
D15*
%TO.C,S1*%
X75477775Y-118675027D03*
X71327775Y-118675027D03*
X75477775Y-116525027D03*
X71327775Y-116525027D03*
%TD*%
D16*
%TO.C,R1*%
X66872775Y-109500027D03*
X68372775Y-109500027D03*
%TD*%
D17*
%TO.C,D1*%
X68102775Y-113649047D03*
X68102775Y-111551007D03*
%TD*%
D12*
%TO.C,P2*%
X54625001Y-127979427D03*
X55895001Y-127725427D03*
X57165001Y-127725427D03*
X58435001Y-127725427D03*
X59705001Y-127725427D03*
X60975001Y-127979427D03*
D13*
X54332901Y-127979427D03*
X55602901Y-127725427D03*
X56872901Y-127725427D03*
X58142901Y-127725427D03*
X59412901Y-127725427D03*
X54917101Y-127979427D03*
X56187101Y-127725427D03*
X57457101Y-127725427D03*
X58727101Y-127725427D03*
X59997101Y-127725427D03*
X60682901Y-127979427D03*
X61267101Y-127979427D03*
%TD*%
D14*
%TO.C,P1*%
X60340001Y-109500027D03*
X57800001Y-109500027D03*
X55260001Y-109500027D03*
%TD*%
D15*
%TO.C,S1*%
X59875001Y-118675027D03*
X55725001Y-118675027D03*
X59875001Y-116525027D03*
X55725001Y-116525027D03*
%TD*%
D16*
%TO.C,R1*%
X51270001Y-109500027D03*
X52770001Y-109500027D03*
%TD*%
D17*
%TO.C,D1*%
X52500001Y-113649047D03*
X52500001Y-111551007D03*
%TD*%
D12*
%TO.C,P2*%
X132638871Y-99479414D03*
X133908871Y-99225414D03*
X135178871Y-99225414D03*
X136448871Y-99225414D03*
X137718871Y-99225414D03*
X138988871Y-99479414D03*
D13*
X132346771Y-99479414D03*
X133616771Y-99225414D03*
X134886771Y-99225414D03*
X136156771Y-99225414D03*
X137426771Y-99225414D03*
X132930971Y-99479414D03*
X134200971Y-99225414D03*
X135470971Y-99225414D03*
X136740971Y-99225414D03*
X138010971Y-99225414D03*
X138696771Y-99479414D03*
X139280971Y-99479414D03*
%TD*%
D14*
%TO.C,P1*%
X138353871Y-81000014D03*
X135813871Y-81000014D03*
X133273871Y-81000014D03*
%TD*%
D15*
%TO.C,S1*%
X137888871Y-90175014D03*
X133738871Y-90175014D03*
X137888871Y-88025014D03*
X133738871Y-88025014D03*
%TD*%
D16*
%TO.C,R1*%
X129283871Y-81000014D03*
X130783871Y-81000014D03*
%TD*%
D17*
%TO.C,D1*%
X130513871Y-85149034D03*
X130513871Y-83050994D03*
%TD*%
D12*
%TO.C,P2*%
X117036097Y-99479414D03*
X118306097Y-99225414D03*
X119576097Y-99225414D03*
X120846097Y-99225414D03*
X122116097Y-99225414D03*
X123386097Y-99479414D03*
D13*
X116743997Y-99479414D03*
X118013997Y-99225414D03*
X119283997Y-99225414D03*
X120553997Y-99225414D03*
X121823997Y-99225414D03*
X117328197Y-99479414D03*
X118598197Y-99225414D03*
X119868197Y-99225414D03*
X121138197Y-99225414D03*
X122408197Y-99225414D03*
X123093997Y-99479414D03*
X123678197Y-99479414D03*
%TD*%
D14*
%TO.C,P1*%
X122751097Y-81000014D03*
X120211097Y-81000014D03*
X117671097Y-81000014D03*
%TD*%
D15*
%TO.C,S1*%
X122286097Y-90175014D03*
X118136097Y-90175014D03*
X122286097Y-88025014D03*
X118136097Y-88025014D03*
%TD*%
D16*
%TO.C,R1*%
X113681097Y-81000014D03*
X115181097Y-81000014D03*
%TD*%
D17*
%TO.C,D1*%
X114911097Y-85149034D03*
X114911097Y-83050994D03*
%TD*%
D12*
%TO.C,P2*%
X101433323Y-99479414D03*
X102703323Y-99225414D03*
X103973323Y-99225414D03*
X105243323Y-99225414D03*
X106513323Y-99225414D03*
X107783323Y-99479414D03*
D13*
X101141223Y-99479414D03*
X102411223Y-99225414D03*
X103681223Y-99225414D03*
X104951223Y-99225414D03*
X106221223Y-99225414D03*
X101725423Y-99479414D03*
X102995423Y-99225414D03*
X104265423Y-99225414D03*
X105535423Y-99225414D03*
X106805423Y-99225414D03*
X107491223Y-99479414D03*
X108075423Y-99479414D03*
%TD*%
D14*
%TO.C,P1*%
X107148323Y-81000014D03*
X104608323Y-81000014D03*
X102068323Y-81000014D03*
%TD*%
D15*
%TO.C,S1*%
X106683323Y-90175014D03*
X102533323Y-90175014D03*
X106683323Y-88025014D03*
X102533323Y-88025014D03*
%TD*%
D16*
%TO.C,R1*%
X98078323Y-81000014D03*
X99578323Y-81000014D03*
%TD*%
D17*
%TO.C,D1*%
X99308323Y-85149034D03*
X99308323Y-83050994D03*
%TD*%
D12*
%TO.C,P2*%
X85830549Y-99479414D03*
X87100549Y-99225414D03*
X88370549Y-99225414D03*
X89640549Y-99225414D03*
X90910549Y-99225414D03*
X92180549Y-99479414D03*
D13*
X85538449Y-99479414D03*
X86808449Y-99225414D03*
X88078449Y-99225414D03*
X89348449Y-99225414D03*
X90618449Y-99225414D03*
X86122649Y-99479414D03*
X87392649Y-99225414D03*
X88662649Y-99225414D03*
X89932649Y-99225414D03*
X91202649Y-99225414D03*
X91888449Y-99479414D03*
X92472649Y-99479414D03*
%TD*%
D14*
%TO.C,P1*%
X91545549Y-81000014D03*
X89005549Y-81000014D03*
X86465549Y-81000014D03*
%TD*%
D15*
%TO.C,S1*%
X91080549Y-90175014D03*
X86930549Y-90175014D03*
X91080549Y-88025014D03*
X86930549Y-88025014D03*
%TD*%
D16*
%TO.C,R1*%
X82475549Y-81000014D03*
X83975549Y-81000014D03*
%TD*%
D17*
%TO.C,D1*%
X83705549Y-85149034D03*
X83705549Y-83050994D03*
%TD*%
D12*
%TO.C,P2*%
X70227775Y-99479414D03*
X71497775Y-99225414D03*
X72767775Y-99225414D03*
X74037775Y-99225414D03*
X75307775Y-99225414D03*
X76577775Y-99479414D03*
D13*
X69935675Y-99479414D03*
X71205675Y-99225414D03*
X72475675Y-99225414D03*
X73745675Y-99225414D03*
X75015675Y-99225414D03*
X70519875Y-99479414D03*
X71789875Y-99225414D03*
X73059875Y-99225414D03*
X74329875Y-99225414D03*
X75599875Y-99225414D03*
X76285675Y-99479414D03*
X76869875Y-99479414D03*
%TD*%
D14*
%TO.C,P1*%
X75942775Y-81000014D03*
X73402775Y-81000014D03*
X70862775Y-81000014D03*
%TD*%
D15*
%TO.C,S1*%
X75477775Y-90175014D03*
X71327775Y-90175014D03*
X75477775Y-88025014D03*
X71327775Y-88025014D03*
%TD*%
D16*
%TO.C,R1*%
X66872775Y-81000014D03*
X68372775Y-81000014D03*
%TD*%
D17*
%TO.C,D1*%
X68102775Y-85149034D03*
X68102775Y-83050994D03*
%TD*%
D12*
%TO.C,P2*%
X54625001Y-99479414D03*
X55895001Y-99225414D03*
X57165001Y-99225414D03*
X58435001Y-99225414D03*
X59705001Y-99225414D03*
X60975001Y-99479414D03*
D13*
X54332901Y-99479414D03*
X55602901Y-99225414D03*
X56872901Y-99225414D03*
X58142901Y-99225414D03*
X59412901Y-99225414D03*
X54917101Y-99479414D03*
X56187101Y-99225414D03*
X57457101Y-99225414D03*
X58727101Y-99225414D03*
X59997101Y-99225414D03*
X60682901Y-99479414D03*
X61267101Y-99479414D03*
%TD*%
D14*
%TO.C,P1*%
X60340001Y-81000014D03*
X57800001Y-81000014D03*
X55260001Y-81000014D03*
%TD*%
D15*
%TO.C,S1*%
X59875001Y-90175014D03*
X55725001Y-90175014D03*
X59875001Y-88025014D03*
X55725001Y-88025014D03*
%TD*%
D16*
%TO.C,R1*%
X51270001Y-81000014D03*
X52770001Y-81000014D03*
%TD*%
D17*
%TO.C,D1*%
X52500001Y-85149034D03*
X52500001Y-83050994D03*
%TD*%
D12*
%TO.C,P2*%
X132638871Y-70979401D03*
X133908871Y-70725401D03*
X135178871Y-70725401D03*
X136448871Y-70725401D03*
X137718871Y-70725401D03*
X138988871Y-70979401D03*
D13*
X132346771Y-70979401D03*
X133616771Y-70725401D03*
X134886771Y-70725401D03*
X136156771Y-70725401D03*
X137426771Y-70725401D03*
X132930971Y-70979401D03*
X134200971Y-70725401D03*
X135470971Y-70725401D03*
X136740971Y-70725401D03*
X138010971Y-70725401D03*
X138696771Y-70979401D03*
X139280971Y-70979401D03*
%TD*%
D14*
%TO.C,P1*%
X138353871Y-52500001D03*
X135813871Y-52500001D03*
X133273871Y-52500001D03*
%TD*%
D15*
%TO.C,S1*%
X137888871Y-61675001D03*
X133738871Y-61675001D03*
X137888871Y-59525001D03*
X133738871Y-59525001D03*
%TD*%
D16*
%TO.C,R1*%
X129283871Y-52500001D03*
X130783871Y-52500001D03*
%TD*%
D17*
%TO.C,D1*%
X130513871Y-56649021D03*
X130513871Y-54550981D03*
%TD*%
D12*
%TO.C,P2*%
X117036097Y-70979401D03*
X118306097Y-70725401D03*
X119576097Y-70725401D03*
X120846097Y-70725401D03*
X122116097Y-70725401D03*
X123386097Y-70979401D03*
D13*
X116743997Y-70979401D03*
X118013997Y-70725401D03*
X119283997Y-70725401D03*
X120553997Y-70725401D03*
X121823997Y-70725401D03*
X117328197Y-70979401D03*
X118598197Y-70725401D03*
X119868197Y-70725401D03*
X121138197Y-70725401D03*
X122408197Y-70725401D03*
X123093997Y-70979401D03*
X123678197Y-70979401D03*
%TD*%
D14*
%TO.C,P1*%
X122751097Y-52500001D03*
X120211097Y-52500001D03*
X117671097Y-52500001D03*
%TD*%
D15*
%TO.C,S1*%
X122286097Y-61675001D03*
X118136097Y-61675001D03*
X122286097Y-59525001D03*
X118136097Y-59525001D03*
%TD*%
D16*
%TO.C,R1*%
X113681097Y-52500001D03*
X115181097Y-52500001D03*
%TD*%
D17*
%TO.C,D1*%
X114911097Y-56649021D03*
X114911097Y-54550981D03*
%TD*%
D12*
%TO.C,P2*%
X101433323Y-70979401D03*
X102703323Y-70725401D03*
X103973323Y-70725401D03*
X105243323Y-70725401D03*
X106513323Y-70725401D03*
X107783323Y-70979401D03*
D13*
X101141223Y-70979401D03*
X102411223Y-70725401D03*
X103681223Y-70725401D03*
X104951223Y-70725401D03*
X106221223Y-70725401D03*
X101725423Y-70979401D03*
X102995423Y-70725401D03*
X104265423Y-70725401D03*
X105535423Y-70725401D03*
X106805423Y-70725401D03*
X107491223Y-70979401D03*
X108075423Y-70979401D03*
%TD*%
D14*
%TO.C,P1*%
X107148323Y-52500001D03*
X104608323Y-52500001D03*
X102068323Y-52500001D03*
%TD*%
D15*
%TO.C,S1*%
X106683323Y-61675001D03*
X102533323Y-61675001D03*
X106683323Y-59525001D03*
X102533323Y-59525001D03*
%TD*%
D16*
%TO.C,R1*%
X98078323Y-52500001D03*
X99578323Y-52500001D03*
%TD*%
D17*
%TO.C,D1*%
X99308323Y-56649021D03*
X99308323Y-54550981D03*
%TD*%
D12*
%TO.C,P2*%
X85830549Y-70979401D03*
X87100549Y-70725401D03*
X88370549Y-70725401D03*
X89640549Y-70725401D03*
X90910549Y-70725401D03*
X92180549Y-70979401D03*
D13*
X85538449Y-70979401D03*
X86808449Y-70725401D03*
X88078449Y-70725401D03*
X89348449Y-70725401D03*
X90618449Y-70725401D03*
X86122649Y-70979401D03*
X87392649Y-70725401D03*
X88662649Y-70725401D03*
X89932649Y-70725401D03*
X91202649Y-70725401D03*
X91888449Y-70979401D03*
X92472649Y-70979401D03*
%TD*%
D14*
%TO.C,P1*%
X91545549Y-52500001D03*
X89005549Y-52500001D03*
X86465549Y-52500001D03*
%TD*%
D15*
%TO.C,S1*%
X91080549Y-61675001D03*
X86930549Y-61675001D03*
X91080549Y-59525001D03*
X86930549Y-59525001D03*
%TD*%
D16*
%TO.C,R1*%
X82475549Y-52500001D03*
X83975549Y-52500001D03*
%TD*%
D17*
%TO.C,D1*%
X83705549Y-56649021D03*
X83705549Y-54550981D03*
%TD*%
D12*
%TO.C,P2*%
X70227775Y-70979401D03*
X71497775Y-70725401D03*
X72767775Y-70725401D03*
X74037775Y-70725401D03*
X75307775Y-70725401D03*
X76577775Y-70979401D03*
D13*
X69935675Y-70979401D03*
X71205675Y-70725401D03*
X72475675Y-70725401D03*
X73745675Y-70725401D03*
X75015675Y-70725401D03*
X70519875Y-70979401D03*
X71789875Y-70725401D03*
X73059875Y-70725401D03*
X74329875Y-70725401D03*
X75599875Y-70725401D03*
X76285675Y-70979401D03*
X76869875Y-70979401D03*
%TD*%
D14*
%TO.C,P1*%
X75942775Y-52500001D03*
X73402775Y-52500001D03*
X70862775Y-52500001D03*
%TD*%
D15*
%TO.C,S1*%
X75477775Y-61675001D03*
X71327775Y-61675001D03*
X75477775Y-59525001D03*
X71327775Y-59525001D03*
%TD*%
D16*
%TO.C,R1*%
X66872775Y-52500001D03*
X68372775Y-52500001D03*
%TD*%
D17*
%TO.C,D1*%
X68102775Y-56649021D03*
X68102775Y-54550981D03*
%TD*%
D12*
%TO.C,P2*%
X54625001Y-70979401D03*
X55895001Y-70725401D03*
X57165001Y-70725401D03*
X58435001Y-70725401D03*
X59705001Y-70725401D03*
X60975001Y-70979401D03*
D13*
X54332901Y-70979401D03*
X55602901Y-70725401D03*
X56872901Y-70725401D03*
X58142901Y-70725401D03*
X59412901Y-70725401D03*
X54917101Y-70979401D03*
X56187101Y-70725401D03*
X57457101Y-70725401D03*
X58727101Y-70725401D03*
X59997101Y-70725401D03*
X60682901Y-70979401D03*
X61267101Y-70979401D03*
%TD*%
D14*
%TO.C,P1*%
X60340001Y-52500001D03*
X57800001Y-52500001D03*
X55260001Y-52500001D03*
%TD*%
D15*
%TO.C,S1*%
X59875001Y-61675001D03*
X55725001Y-61675001D03*
X59875001Y-59525001D03*
X55725001Y-59525001D03*
%TD*%
D16*
%TO.C,R1*%
X51270001Y-52500001D03*
X52770001Y-52500001D03*
%TD*%
D17*
%TO.C,D1*%
X52500001Y-56649021D03*
X52500001Y-54550981D03*
%TD*%
D18*
G36*
X61252201Y-78373001D02*
G01*
X54343401Y-78373001D01*
X54343401Y-76366401D01*
X61252201Y-76366401D01*
X61252201Y-78373001D01*
G37*
X61252201Y-78373001D02*
X54343401Y-78373001D01*
X54343401Y-76366401D01*
X61252201Y-76366401D01*
X61252201Y-78373001D01*
G36*
X76854975Y-78373001D02*
G01*
X69946175Y-78373001D01*
X69946175Y-76366401D01*
X76854975Y-76366401D01*
X76854975Y-78373001D01*
G37*
X76854975Y-78373001D02*
X69946175Y-78373001D01*
X69946175Y-76366401D01*
X76854975Y-76366401D01*
X76854975Y-78373001D01*
G36*
X92457749Y-78373001D02*
G01*
X85548949Y-78373001D01*
X85548949Y-76366401D01*
X92457749Y-76366401D01*
X92457749Y-78373001D01*
G37*
X92457749Y-78373001D02*
X85548949Y-78373001D01*
X85548949Y-76366401D01*
X92457749Y-76366401D01*
X92457749Y-78373001D01*
G36*
X108060523Y-78373001D02*
G01*
X101151723Y-78373001D01*
X101151723Y-76366401D01*
X108060523Y-76366401D01*
X108060523Y-78373001D01*
G37*
X108060523Y-78373001D02*
X101151723Y-78373001D01*
X101151723Y-76366401D01*
X108060523Y-76366401D01*
X108060523Y-78373001D01*
G36*
X123663297Y-78373001D02*
G01*
X116754497Y-78373001D01*
X116754497Y-76366401D01*
X123663297Y-76366401D01*
X123663297Y-78373001D01*
G37*
X123663297Y-78373001D02*
X116754497Y-78373001D01*
X116754497Y-76366401D01*
X123663297Y-76366401D01*
X123663297Y-78373001D01*
G36*
X139266071Y-78373001D02*
G01*
X132357271Y-78373001D01*
X132357271Y-76366401D01*
X139266071Y-76366401D01*
X139266071Y-78373001D01*
G37*
X139266071Y-78373001D02*
X132357271Y-78373001D01*
X132357271Y-76366401D01*
X139266071Y-76366401D01*
X139266071Y-78373001D01*
G36*
X61252201Y-106873014D02*
G01*
X54343401Y-106873014D01*
X54343401Y-104866414D01*
X61252201Y-104866414D01*
X61252201Y-106873014D01*
G37*
X61252201Y-106873014D02*
X54343401Y-106873014D01*
X54343401Y-104866414D01*
X61252201Y-104866414D01*
X61252201Y-106873014D01*
G36*
X76854975Y-106873014D02*
G01*
X69946175Y-106873014D01*
X69946175Y-104866414D01*
X76854975Y-104866414D01*
X76854975Y-106873014D01*
G37*
X76854975Y-106873014D02*
X69946175Y-106873014D01*
X69946175Y-104866414D01*
X76854975Y-104866414D01*
X76854975Y-106873014D01*
G36*
X92457749Y-106873014D02*
G01*
X85548949Y-106873014D01*
X85548949Y-104866414D01*
X92457749Y-104866414D01*
X92457749Y-106873014D01*
G37*
X92457749Y-106873014D02*
X85548949Y-106873014D01*
X85548949Y-104866414D01*
X92457749Y-104866414D01*
X92457749Y-106873014D01*
G36*
X108060523Y-106873014D02*
G01*
X101151723Y-106873014D01*
X101151723Y-104866414D01*
X108060523Y-104866414D01*
X108060523Y-106873014D01*
G37*
X108060523Y-106873014D02*
X101151723Y-106873014D01*
X101151723Y-104866414D01*
X108060523Y-104866414D01*
X108060523Y-106873014D01*
G36*
X123663297Y-106873014D02*
G01*
X116754497Y-106873014D01*
X116754497Y-104866414D01*
X123663297Y-104866414D01*
X123663297Y-106873014D01*
G37*
X123663297Y-106873014D02*
X116754497Y-106873014D01*
X116754497Y-104866414D01*
X123663297Y-104866414D01*
X123663297Y-106873014D01*
G36*
X139266071Y-106873014D02*
G01*
X132357271Y-106873014D01*
X132357271Y-104866414D01*
X139266071Y-104866414D01*
X139266071Y-106873014D01*
G37*
X139266071Y-106873014D02*
X132357271Y-106873014D01*
X132357271Y-104866414D01*
X139266071Y-104866414D01*
X139266071Y-106873014D01*
G36*
X61252201Y-135373027D02*
G01*
X54343401Y-135373027D01*
X54343401Y-133366427D01*
X61252201Y-133366427D01*
X61252201Y-135373027D01*
G37*
X61252201Y-135373027D02*
X54343401Y-135373027D01*
X54343401Y-133366427D01*
X61252201Y-133366427D01*
X61252201Y-135373027D01*
G36*
X76854975Y-135373027D02*
G01*
X69946175Y-135373027D01*
X69946175Y-133366427D01*
X76854975Y-133366427D01*
X76854975Y-135373027D01*
G37*
X76854975Y-135373027D02*
X69946175Y-135373027D01*
X69946175Y-133366427D01*
X76854975Y-133366427D01*
X76854975Y-135373027D01*
G36*
X92457749Y-135373027D02*
G01*
X85548949Y-135373027D01*
X85548949Y-133366427D01*
X92457749Y-133366427D01*
X92457749Y-135373027D01*
G37*
X92457749Y-135373027D02*
X85548949Y-135373027D01*
X85548949Y-133366427D01*
X92457749Y-133366427D01*
X92457749Y-135373027D01*
G36*
X108060523Y-135373027D02*
G01*
X101151723Y-135373027D01*
X101151723Y-133366427D01*
X108060523Y-133366427D01*
X108060523Y-135373027D01*
G37*
X108060523Y-135373027D02*
X101151723Y-135373027D01*
X101151723Y-133366427D01*
X108060523Y-133366427D01*
X108060523Y-135373027D01*
G36*
X123663297Y-135373027D02*
G01*
X116754497Y-135373027D01*
X116754497Y-133366427D01*
X123663297Y-133366427D01*
X123663297Y-135373027D01*
G37*
X123663297Y-135373027D02*
X116754497Y-135373027D01*
X116754497Y-133366427D01*
X123663297Y-133366427D01*
X123663297Y-135373027D01*
G36*
X139266071Y-135373027D02*
G01*
X132357271Y-135373027D01*
X132357271Y-133366427D01*
X139266071Y-133366427D01*
X139266071Y-135373027D01*
G37*
X139266071Y-135373027D02*
X132357271Y-135373027D01*
X132357271Y-133366427D01*
X139266071Y-133366427D01*
X139266071Y-135373027D01*
M02*
