%TF.GenerationSoftware,KiCad,Pcbnew,5.1.6-c6e7f7d~86~ubuntu18.04.1*%
%TF.CreationDate,2020-06-11T11:06:45+02:00*%
%TF.ProjectId,AVR_ISP_With_POGO_Pin_panelized_corrected,4156525f-4953-4505-9f57-6974685f504f,rev?*%
%TF.SameCoordinates,Original*%
%TF.FileFunction,Soldermask,Bot*%
%TF.FilePolarity,Negative*%
%FSLAX46Y46*%
G04 Gerber Fmt 4.6, Leading zero omitted, Abs format (unit mm)*
G04 Created by KiCad (PCBNEW 5.1.6-c6e7f7d~86~ubuntu18.04.1) date 2020-06-11 11:06:45*
%MOMM*%
%LPD*%
G01*
G04 APERTURE LIST*
%TA.AperFunction,Profile*%
%ADD10C,0.100000*%
%TD*%
%ADD11C,0.160000*%
%ADD12C,0.220000*%
%ADD13C,0.180000*%
%ADD14C,0.600000*%
%ADD15R,1.400000X4.100000*%
%ADD16R,1.960200X1.528400*%
G04 APERTURE END LIST*
D10*
X65601000Y-78789900D02*
X65601800Y-80846800D01*
X65300500Y-78499200D02*
X65601000Y-78789900D01*
X61802400Y-78499000D02*
X65300500Y-78499200D01*
X62801000Y-77500100D02*
X61802400Y-78499000D01*
X62801000Y-67700000D02*
X62801000Y-77500100D01*
X62632800Y-66331600D02*
X62801000Y-67700000D01*
X62617000Y-64953100D02*
X62632800Y-66331600D01*
X62753800Y-63581400D02*
X62617000Y-64953100D01*
X63041500Y-62233100D02*
X62753800Y-63581400D01*
X63476400Y-60925000D02*
X63041500Y-62233100D01*
X64053500Y-59673000D02*
X63476400Y-60925000D01*
X64765400Y-58492600D02*
X64053500Y-59673000D01*
X65601800Y-57400300D02*
X64765400Y-58492600D01*
X66446300Y-58498900D02*
X65601800Y-57400300D01*
X67162800Y-59684300D02*
X66446300Y-58498900D01*
X67742800Y-60942300D02*
X67162800Y-59684300D01*
X68178900Y-62257000D02*
X67742800Y-60942300D01*
X68465800Y-63612200D02*
X68178900Y-62257000D01*
X68599800Y-64990900D02*
X68465800Y-63612200D01*
X68579300Y-66376000D02*
X68599800Y-64990900D01*
X68404500Y-67750300D02*
X68579300Y-66376000D01*
X68381800Y-77480100D02*
X68404500Y-67750300D01*
X69400400Y-78499000D02*
X68381800Y-77480100D01*
X65902200Y-78499200D02*
X69400400Y-78499000D01*
X65601800Y-78799900D02*
X65902200Y-78499200D01*
X65601800Y-80846800D02*
X65601800Y-78799900D01*
X81203800Y-78789900D02*
X81204500Y-80606800D01*
X80903300Y-78499100D02*
X81203800Y-78789900D01*
X77405200Y-78499000D02*
X80903300Y-78499100D01*
X78403800Y-77500100D02*
X77405200Y-78499000D01*
X78403800Y-67700000D02*
X78403800Y-77500100D01*
X78235600Y-66331600D02*
X78403800Y-67700000D01*
X78219800Y-64953100D02*
X78235600Y-66331600D01*
X78356600Y-63581400D02*
X78219800Y-64953100D01*
X78644200Y-62233100D02*
X78356600Y-63581400D01*
X79079200Y-60925000D02*
X78644200Y-62233100D01*
X79656200Y-59673000D02*
X79079200Y-60925000D01*
X80368200Y-58492600D02*
X79656200Y-59673000D01*
X81204600Y-57400300D02*
X80368200Y-58492600D01*
X82049000Y-58498900D02*
X81204600Y-57400300D01*
X82765600Y-59684300D02*
X82049000Y-58498900D01*
X83345600Y-60942300D02*
X82765600Y-59684300D01*
X83781700Y-62257000D02*
X83345600Y-60942300D01*
X84068600Y-63612200D02*
X83781700Y-62257000D01*
X84202600Y-64990900D02*
X84068600Y-63612200D01*
X84182100Y-66376000D02*
X84202600Y-64990900D01*
X84007300Y-67750300D02*
X84182100Y-66376000D01*
X83984500Y-77480100D02*
X84007300Y-67750300D01*
X85003100Y-78499000D02*
X83984500Y-77480100D01*
X81505000Y-78499100D02*
X85003100Y-78499000D01*
X81204500Y-78799900D02*
X81505000Y-78499100D01*
X81204500Y-80606800D02*
X81204500Y-78799900D01*
X96806500Y-78789900D02*
X96807300Y-80811700D01*
X96506000Y-78499200D02*
X96806500Y-78789900D01*
X93007900Y-78499000D02*
X96506000Y-78499200D01*
X94006500Y-77500100D02*
X93007900Y-78499000D01*
X94006500Y-67700000D02*
X94006500Y-77500100D01*
X93838400Y-66331600D02*
X94006500Y-67700000D01*
X93822600Y-64953100D02*
X93838400Y-66331600D01*
X93959400Y-63581400D02*
X93822600Y-64953100D01*
X94247000Y-62233100D02*
X93959400Y-63581400D01*
X94682000Y-60925000D02*
X94247000Y-62233100D01*
X95259000Y-59673000D02*
X94682000Y-60925000D01*
X95970900Y-58492600D02*
X95259000Y-59673000D01*
X96807300Y-57400300D02*
X95970900Y-58492600D01*
X97651800Y-58498900D02*
X96807300Y-57400300D01*
X98368400Y-59684300D02*
X97651800Y-58498900D01*
X98948300Y-60942300D02*
X98368400Y-59684300D01*
X99384500Y-62257000D02*
X98948300Y-60942300D01*
X99671300Y-63612200D02*
X99384500Y-62257000D01*
X99805300Y-64990900D02*
X99671300Y-63612200D01*
X99784800Y-66376000D02*
X99805300Y-64990900D01*
X99610000Y-67750300D02*
X99784800Y-66376000D01*
X99587300Y-77480100D02*
X99610000Y-67750300D01*
X100605900Y-78499000D02*
X99587300Y-77480100D01*
X97107700Y-78499200D02*
X100605900Y-78499000D01*
X96807300Y-78799900D02*
X97107700Y-78499200D01*
X96807300Y-80811700D02*
X96807300Y-78799900D01*
X112409300Y-78789900D02*
X112410100Y-80830600D01*
X112108800Y-78499200D02*
X112409300Y-78789900D01*
X108610700Y-78499000D02*
X112108800Y-78499200D01*
X109609300Y-77500100D02*
X108610700Y-78499000D01*
X109609300Y-67700000D02*
X109609300Y-77500100D01*
X109441200Y-66331600D02*
X109609300Y-67700000D01*
X109425400Y-64953100D02*
X109441200Y-66331600D01*
X109562100Y-63581400D02*
X109425400Y-64953100D01*
X109849800Y-62233100D02*
X109562100Y-63581400D01*
X110284800Y-60925000D02*
X109849800Y-62233100D01*
X110861800Y-59673000D02*
X110284800Y-60925000D01*
X111573700Y-58492600D02*
X110861800Y-59673000D01*
X112410100Y-57400300D02*
X111573700Y-58492600D01*
X113254600Y-58498900D02*
X112410100Y-57400300D01*
X113971200Y-59684300D02*
X113254600Y-58498900D01*
X114551100Y-60942300D02*
X113971200Y-59684300D01*
X114987300Y-62257000D02*
X114551100Y-60942300D01*
X115274100Y-63612200D02*
X114987300Y-62257000D01*
X115408100Y-64990900D02*
X115274100Y-63612200D01*
X115387600Y-66376000D02*
X115408100Y-64990900D01*
X115212800Y-67750300D02*
X115387600Y-66376000D01*
X115190100Y-77480100D02*
X115212800Y-67750300D01*
X116208700Y-78499000D02*
X115190100Y-77480100D01*
X112710500Y-78499200D02*
X116208700Y-78499000D01*
X112410100Y-78799900D02*
X112710500Y-78499200D01*
X112410100Y-80830600D02*
X112410100Y-78799900D01*
X128012100Y-78789900D02*
X128012900Y-80849800D01*
X127711600Y-78499200D02*
X128012100Y-78789900D01*
X124213500Y-78499000D02*
X127711600Y-78499200D01*
X125212100Y-77500100D02*
X124213500Y-78499000D01*
X125212100Y-67700000D02*
X125212100Y-77500100D01*
X125043900Y-66331600D02*
X125212100Y-67700000D01*
X125028100Y-64953100D02*
X125043900Y-66331600D01*
X125164900Y-63581400D02*
X125028100Y-64953100D01*
X125452500Y-62233100D02*
X125164900Y-63581400D01*
X125887500Y-60925000D02*
X125452500Y-62233100D01*
X126464500Y-59673000D02*
X125887500Y-60925000D01*
X127176500Y-58492600D02*
X126464500Y-59673000D01*
X128012900Y-57400300D02*
X127176500Y-58492600D01*
X128857400Y-58498900D02*
X128012900Y-57400300D01*
X129573900Y-59684300D02*
X128857400Y-58498900D01*
X130153900Y-60942300D02*
X129573900Y-59684300D01*
X130590000Y-62257000D02*
X130153900Y-60942300D01*
X130876900Y-63612200D02*
X130590000Y-62257000D01*
X131010900Y-64990900D02*
X130876900Y-63612200D01*
X130990400Y-66376000D02*
X131010900Y-64990900D01*
X130815600Y-67750300D02*
X130990400Y-66376000D01*
X130792900Y-77480100D02*
X130815600Y-67750300D01*
X131811500Y-78499000D02*
X130792900Y-77480100D01*
X128313300Y-78499200D02*
X131811500Y-78499000D01*
X128012900Y-78799900D02*
X128313300Y-78499200D01*
X128012900Y-80849800D02*
X128012900Y-78799900D01*
X65601000Y-107289900D02*
X65601800Y-109346900D01*
X65300500Y-106999200D02*
X65601000Y-107289900D01*
X61802400Y-106999000D02*
X65300500Y-106999200D01*
X62801000Y-106000100D02*
X61802400Y-106999000D01*
X62801000Y-96200000D02*
X62801000Y-106000100D01*
X62632800Y-94831600D02*
X62801000Y-96200000D01*
X62617000Y-93453100D02*
X62632800Y-94831600D01*
X62753800Y-92081400D02*
X62617000Y-93453100D01*
X63041500Y-90733200D02*
X62753800Y-92081400D01*
X63476400Y-89425000D02*
X63041500Y-90733200D01*
X64053500Y-88173100D02*
X63476400Y-89425000D01*
X64765400Y-86992600D02*
X64053500Y-88173100D01*
X65601800Y-85900300D02*
X64765400Y-86992600D01*
X66446300Y-86998900D02*
X65601800Y-85900300D01*
X67162800Y-88184300D02*
X66446300Y-86998900D01*
X67742800Y-89442300D02*
X67162800Y-88184300D01*
X68178900Y-90757000D02*
X67742800Y-89442300D01*
X68465800Y-92112200D02*
X68178900Y-90757000D01*
X68599800Y-93490900D02*
X68465800Y-92112200D01*
X68579300Y-94876000D02*
X68599800Y-93490900D01*
X68404500Y-96250300D02*
X68579300Y-94876000D01*
X68381800Y-105980100D02*
X68404500Y-96250300D01*
X69400400Y-106999000D02*
X68381800Y-105980100D01*
X65902200Y-106999200D02*
X69400400Y-106999000D01*
X65601800Y-107299900D02*
X65902200Y-106999200D01*
X65601800Y-109346900D02*
X65601800Y-107299900D01*
X81203800Y-107289900D02*
X81204500Y-109106800D01*
X80903300Y-106999100D02*
X81203800Y-107289900D01*
X77405200Y-106999000D02*
X80903300Y-106999100D01*
X78403800Y-106000100D02*
X77405200Y-106999000D01*
X78403800Y-96200000D02*
X78403800Y-106000100D01*
X78235600Y-94831600D02*
X78403800Y-96200000D01*
X78219800Y-93453100D02*
X78235600Y-94831600D01*
X78356600Y-92081400D02*
X78219800Y-93453100D01*
X78644200Y-90733200D02*
X78356600Y-92081400D01*
X79079200Y-89425000D02*
X78644200Y-90733200D01*
X79656200Y-88173100D02*
X79079200Y-89425000D01*
X80368200Y-86992600D02*
X79656200Y-88173100D01*
X81204600Y-85900300D02*
X80368200Y-86992600D01*
X82049000Y-86998900D02*
X81204600Y-85900300D01*
X82765600Y-88184300D02*
X82049000Y-86998900D01*
X83345600Y-89442300D02*
X82765600Y-88184300D01*
X83781700Y-90757000D02*
X83345600Y-89442300D01*
X84068600Y-92112200D02*
X83781700Y-90757000D01*
X84202600Y-93490900D02*
X84068600Y-92112200D01*
X84182100Y-94876000D02*
X84202600Y-93490900D01*
X84007300Y-96250300D02*
X84182100Y-94876000D01*
X83984500Y-105980100D02*
X84007300Y-96250300D01*
X85003100Y-106999000D02*
X83984500Y-105980100D01*
X81505000Y-106999100D02*
X85003100Y-106999000D01*
X81204500Y-107299900D02*
X81505000Y-106999100D01*
X81204500Y-109106800D02*
X81204500Y-107299900D01*
X96806500Y-107289900D02*
X96807300Y-109311700D01*
X96506000Y-106999200D02*
X96806500Y-107289900D01*
X93007900Y-106999000D02*
X96506000Y-106999200D01*
X94006500Y-106000100D02*
X93007900Y-106999000D01*
X94006500Y-96200000D02*
X94006500Y-106000100D01*
X93838400Y-94831600D02*
X94006500Y-96200000D01*
X93822600Y-93453100D02*
X93838400Y-94831600D01*
X93959400Y-92081400D02*
X93822600Y-93453100D01*
X94247000Y-90733200D02*
X93959400Y-92081400D01*
X94682000Y-89425000D02*
X94247000Y-90733200D01*
X95259000Y-88173100D02*
X94682000Y-89425000D01*
X95970900Y-86992600D02*
X95259000Y-88173100D01*
X96807400Y-85900300D02*
X95970900Y-86992600D01*
X97651800Y-86998900D02*
X96807400Y-85900300D01*
X98368400Y-88184300D02*
X97651800Y-86998900D01*
X98948300Y-89442300D02*
X98368400Y-88184300D01*
X99384500Y-90757000D02*
X98948300Y-89442300D01*
X99671300Y-92112200D02*
X99384500Y-90757000D01*
X99805300Y-93490900D02*
X99671300Y-92112200D01*
X99784800Y-94876000D02*
X99805300Y-93490900D01*
X99610000Y-96250300D02*
X99784800Y-94876000D01*
X99587300Y-105980100D02*
X99610000Y-96250300D01*
X100605900Y-106999000D02*
X99587300Y-105980100D01*
X97107700Y-106999200D02*
X100605900Y-106999000D01*
X96807300Y-107299900D02*
X97107700Y-106999200D01*
X96807300Y-109311700D02*
X96807300Y-107299900D01*
X112409300Y-107289900D02*
X112410100Y-109330600D01*
X112108800Y-106999200D02*
X112409300Y-107289900D01*
X108610700Y-106999000D02*
X112108800Y-106999200D01*
X109609300Y-106000100D02*
X108610700Y-106999000D01*
X109609300Y-96200000D02*
X109609300Y-106000100D01*
X109441200Y-94831600D02*
X109609300Y-96200000D01*
X109425400Y-93453100D02*
X109441200Y-94831600D01*
X109562100Y-92081400D02*
X109425400Y-93453100D01*
X109849800Y-90733200D02*
X109562100Y-92081400D01*
X110284800Y-89425000D02*
X109849800Y-90733200D01*
X110861800Y-88173100D02*
X110284800Y-89425000D01*
X111573700Y-86992600D02*
X110861800Y-88173100D01*
X112410100Y-85900300D02*
X111573700Y-86992600D01*
X113254600Y-86998900D02*
X112410100Y-85900300D01*
X113971200Y-88184300D02*
X113254600Y-86998900D01*
X114551100Y-89442300D02*
X113971200Y-88184300D01*
X114987300Y-90757000D02*
X114551100Y-89442300D01*
X115274100Y-92112200D02*
X114987300Y-90757000D01*
X115408100Y-93490900D02*
X115274100Y-92112200D01*
X115387600Y-94876000D02*
X115408100Y-93490900D01*
X115212800Y-96250300D02*
X115387600Y-94876000D01*
X115190100Y-105980100D02*
X115212800Y-96250300D01*
X116208700Y-106999000D02*
X115190100Y-105980100D01*
X112710500Y-106999200D02*
X116208700Y-106999000D01*
X112410100Y-107299900D02*
X112710500Y-106999200D01*
X112410100Y-109330600D02*
X112410100Y-107299900D01*
X128012100Y-107289900D02*
X128012900Y-109349800D01*
X127711600Y-106999200D02*
X128012100Y-107289900D01*
X124213500Y-106999000D02*
X127711600Y-106999200D01*
X125212100Y-106000100D02*
X124213500Y-106999000D01*
X125212100Y-96200000D02*
X125212100Y-106000100D01*
X125043900Y-94831600D02*
X125212100Y-96200000D01*
X125028100Y-93453100D02*
X125043900Y-94831600D01*
X125164900Y-92081400D02*
X125028100Y-93453100D01*
X125452500Y-90733200D02*
X125164900Y-92081400D01*
X125887500Y-89425000D02*
X125452500Y-90733200D01*
X126464500Y-88173100D02*
X125887500Y-89425000D01*
X127176500Y-86992600D02*
X126464500Y-88173100D01*
X128012900Y-85900300D02*
X127176500Y-86992600D01*
X128857400Y-86998900D02*
X128012900Y-85900300D01*
X129573900Y-88184300D02*
X128857400Y-86998900D01*
X130153900Y-89442300D02*
X129573900Y-88184300D01*
X130590000Y-90757000D02*
X130153900Y-89442300D01*
X130876900Y-92112200D02*
X130590000Y-90757000D01*
X131010900Y-93490900D02*
X130876900Y-92112200D01*
X130990400Y-94876000D02*
X131010900Y-93490900D01*
X130815600Y-96250300D02*
X130990400Y-94876000D01*
X130792900Y-105980100D02*
X130815600Y-96250300D01*
X131811500Y-106999000D02*
X130792900Y-105980100D01*
X128313300Y-106999200D02*
X131811500Y-106999000D01*
X128012900Y-107299900D02*
X128313300Y-106999200D01*
X128012900Y-109349800D02*
X128012900Y-107299900D01*
X140814900Y-106000100D02*
X139816300Y-106999000D01*
X140814900Y-96200000D02*
X140814900Y-106000100D01*
X140646700Y-94831600D02*
X140814900Y-96200000D01*
X140630900Y-93453100D02*
X140646700Y-94831600D01*
X140767700Y-92081400D02*
X140630900Y-93453100D01*
X141055300Y-90733200D02*
X140767700Y-92081400D01*
X141490300Y-89425000D02*
X141055300Y-90733200D01*
X142067300Y-88173100D02*
X141490300Y-89425000D01*
X142779300Y-86992600D02*
X142067300Y-88173100D01*
X143617600Y-85897500D02*
X142779300Y-86992600D01*
X143614800Y-78789500D02*
X143617600Y-85897500D01*
X143314000Y-78499000D02*
X143614800Y-78789500D01*
X139816300Y-78499000D02*
X143314000Y-78499000D01*
X140814900Y-77500100D02*
X139816300Y-78499000D01*
X140814900Y-67700000D02*
X140814900Y-77500100D01*
X140646700Y-66331600D02*
X140814900Y-67700000D01*
X140630900Y-64953100D02*
X140646700Y-66331600D01*
X140767700Y-63581400D02*
X140630900Y-64953100D01*
X141055300Y-62233100D02*
X140767700Y-63581400D01*
X141490300Y-60925000D02*
X141055300Y-62233100D01*
X142067300Y-59673000D02*
X141490300Y-60925000D01*
X142779300Y-58492600D02*
X142067300Y-59673000D01*
X143617600Y-57397500D02*
X142779300Y-58492600D01*
X143614900Y-50290000D02*
X143617600Y-57397500D01*
X143314400Y-49999200D02*
X143614900Y-50290000D01*
X128313700Y-49999000D02*
X143314400Y-49999200D01*
X128012900Y-50299900D02*
X128313700Y-49999000D01*
X128012900Y-52349800D02*
X128012900Y-50299900D01*
X128012100Y-50289900D02*
X128012900Y-52349800D01*
X127711100Y-49999000D02*
X128012100Y-50289900D01*
X112710900Y-49999000D02*
X127711100Y-49999000D01*
X112410100Y-50299900D02*
X112710900Y-49999000D01*
X112410100Y-52330600D02*
X112410100Y-50299900D01*
X112409300Y-50289900D02*
X112410100Y-52330600D01*
X112108300Y-49999000D02*
X112409300Y-50289900D01*
X97108100Y-49999000D02*
X112108300Y-49999000D01*
X96807300Y-50299900D02*
X97108100Y-49999000D01*
X96807300Y-52311700D02*
X96807300Y-50299900D01*
X96806500Y-50289900D02*
X96807300Y-52311700D01*
X96505500Y-49999000D02*
X96806500Y-50289900D01*
X81505400Y-49999000D02*
X96505500Y-49999000D01*
X81204500Y-50299900D02*
X81505400Y-49999000D01*
X81204500Y-52106800D02*
X81204500Y-50299900D01*
X81203800Y-50289900D02*
X81204500Y-52106800D01*
X80902900Y-49999000D02*
X81203800Y-50289900D01*
X65902700Y-49999000D02*
X80902900Y-49999000D01*
X65601800Y-50299900D02*
X65902700Y-49999000D01*
X65601800Y-52346800D02*
X65601800Y-50299900D01*
X65601000Y-50289900D02*
X65601800Y-52346800D01*
X65300100Y-49999000D02*
X65601000Y-50289900D01*
X50300000Y-49999000D02*
X65300100Y-49999000D01*
X49999200Y-50299400D02*
X50300000Y-49999000D01*
X49999000Y-57400200D02*
X49999200Y-50299400D01*
X50843500Y-58498900D02*
X49999000Y-57400200D01*
X51560100Y-59684300D02*
X50843500Y-58498900D01*
X52140000Y-60942300D02*
X51560100Y-59684300D01*
X52576200Y-62257000D02*
X52140000Y-60942300D01*
X52863000Y-63612200D02*
X52576200Y-62257000D01*
X52997000Y-64990900D02*
X52863000Y-63612200D01*
X52976500Y-66376000D02*
X52997000Y-64990900D01*
X52801700Y-67750300D02*
X52976500Y-66376000D01*
X52779000Y-77480100D02*
X52801700Y-67750300D01*
X53797600Y-78499000D02*
X52779000Y-77480100D01*
X50299900Y-78499000D02*
X53797600Y-78499000D01*
X49999100Y-78799500D02*
X50299900Y-78499000D01*
X49999000Y-85900100D02*
X49999100Y-78799500D01*
X50843500Y-86998900D02*
X49999000Y-85900100D01*
X51560100Y-88184300D02*
X50843500Y-86998900D01*
X52140000Y-89442300D02*
X51560100Y-88184300D01*
X52576200Y-90757000D02*
X52140000Y-89442300D01*
X52863000Y-92112200D02*
X52576200Y-90757000D01*
X52997000Y-93490900D02*
X52863000Y-92112200D01*
X52976500Y-94876000D02*
X52997000Y-93490900D01*
X52801700Y-96250300D02*
X52976500Y-94876000D01*
X52779000Y-105980100D02*
X52801700Y-96250300D01*
X53797600Y-106999000D02*
X52779000Y-105980100D01*
X50299900Y-106999000D02*
X53797600Y-106999000D01*
X49999100Y-107299500D02*
X50299900Y-106999000D01*
X49999000Y-114400000D02*
X49999100Y-107299500D01*
X50843500Y-115498900D02*
X49999000Y-114400000D01*
X51560100Y-116684300D02*
X50843500Y-115498900D01*
X52140000Y-117942300D02*
X51560100Y-116684300D01*
X52576200Y-119257100D02*
X52140000Y-117942300D01*
X52863000Y-120612200D02*
X52576200Y-119257100D01*
X52997000Y-121990900D02*
X52863000Y-120612200D01*
X52976500Y-123376000D02*
X52997000Y-121990900D01*
X52801700Y-124750300D02*
X52976500Y-123376000D01*
X52779000Y-134480100D02*
X52801700Y-124750300D01*
X53799400Y-135500800D02*
X52779000Y-134480100D01*
X61800100Y-135501000D02*
X53799400Y-135500800D01*
X62800900Y-134500500D02*
X61800100Y-135501000D01*
X62801000Y-124700000D02*
X62800900Y-134500500D01*
X62632800Y-123331600D02*
X62801000Y-124700000D01*
X62617000Y-121953100D02*
X62632800Y-123331600D01*
X62753800Y-120581400D02*
X62617000Y-121953100D01*
X63041500Y-119233200D02*
X62753800Y-120581400D01*
X63476400Y-117925000D02*
X63041500Y-119233200D01*
X64053500Y-116673100D02*
X63476400Y-117925000D01*
X64765400Y-115492600D02*
X64053500Y-116673100D01*
X65601800Y-114400300D02*
X64765400Y-115492600D01*
X66446300Y-115498900D02*
X65601800Y-114400300D01*
X67162800Y-116684300D02*
X66446300Y-115498900D01*
X67742800Y-117942300D02*
X67162800Y-116684300D01*
X68178900Y-119257100D02*
X67742800Y-117942300D01*
X68465800Y-120612200D02*
X68178900Y-119257100D01*
X68599800Y-121990900D02*
X68465800Y-120612200D01*
X68579300Y-123376000D02*
X68599800Y-121990900D01*
X68404500Y-124750300D02*
X68579300Y-123376000D01*
X68381800Y-134480100D02*
X68404500Y-124750300D01*
X69402200Y-135500800D02*
X68381800Y-134480100D01*
X77402900Y-135501000D02*
X69402200Y-135500800D01*
X78403700Y-134500500D02*
X77402900Y-135501000D01*
X78403800Y-124700000D02*
X78403700Y-134500500D01*
X78235600Y-123331600D02*
X78403800Y-124700000D01*
X78219800Y-121953100D02*
X78235600Y-123331600D01*
X78356600Y-120581400D02*
X78219800Y-121953100D01*
X78644200Y-119233200D02*
X78356600Y-120581400D01*
X79079200Y-117925000D02*
X78644200Y-119233200D01*
X79656200Y-116673100D02*
X79079200Y-117925000D01*
X80368200Y-115492600D02*
X79656200Y-116673100D01*
X81204600Y-114400300D02*
X80368200Y-115492600D01*
X82049000Y-115498900D02*
X81204600Y-114400300D01*
X82765600Y-116684300D02*
X82049000Y-115498900D01*
X83345600Y-117942300D02*
X82765600Y-116684300D01*
X83781700Y-119257100D02*
X83345600Y-117942300D01*
X84068600Y-120612200D02*
X83781700Y-119257100D01*
X84202600Y-121990900D02*
X84068600Y-120612200D01*
X84182100Y-123376000D02*
X84202600Y-121990900D01*
X84007300Y-124750300D02*
X84182100Y-123376000D01*
X83984600Y-134480500D02*
X84007300Y-124750300D01*
X85005400Y-135501000D02*
X83984600Y-134480500D01*
X93006000Y-135500900D02*
X85005400Y-135501000D01*
X94006500Y-134500100D02*
X93006000Y-135500900D01*
X94006500Y-124700000D02*
X94006500Y-134500100D01*
X93838400Y-123331600D02*
X94006500Y-124700000D01*
X93822600Y-121953100D02*
X93838400Y-123331600D01*
X93959400Y-120581400D02*
X93822600Y-121953100D01*
X94247000Y-119233200D02*
X93959400Y-120581400D01*
X94682000Y-117925000D02*
X94247000Y-119233200D01*
X95259000Y-116673100D02*
X94682000Y-117925000D01*
X95970900Y-115492600D02*
X95259000Y-116673100D01*
X96807400Y-114400300D02*
X95970900Y-115492600D01*
X97651800Y-115498900D02*
X96807400Y-114400300D01*
X98368400Y-116684300D02*
X97651800Y-115498900D01*
X98948300Y-117942300D02*
X98368400Y-116684300D01*
X99384500Y-119257100D02*
X98948300Y-117942300D01*
X99671300Y-120612200D02*
X99384500Y-119257100D01*
X99805300Y-121990900D02*
X99671300Y-120612200D01*
X99784800Y-123376000D02*
X99805300Y-121990900D01*
X99610000Y-124750300D02*
X99784800Y-123376000D01*
X99587400Y-134480500D02*
X99610000Y-124750300D01*
X100608200Y-135501000D02*
X99587400Y-134480500D01*
X108608700Y-135500900D02*
X100608200Y-135501000D01*
X109609300Y-134500100D02*
X108608700Y-135500900D01*
X109609300Y-124700000D02*
X109609300Y-134500100D01*
X109441200Y-123331600D02*
X109609300Y-124700000D01*
X109425400Y-121953100D02*
X109441200Y-123331600D01*
X109562100Y-120581400D02*
X109425400Y-121953100D01*
X109849800Y-119233200D02*
X109562100Y-120581400D01*
X110284800Y-117925000D02*
X109849800Y-119233200D01*
X110861800Y-116673100D02*
X110284800Y-117925000D01*
X111573700Y-115492600D02*
X110861800Y-116673100D01*
X112410100Y-114400300D02*
X111573700Y-115492600D01*
X113254600Y-115498900D02*
X112410100Y-114400300D01*
X113971200Y-116684300D02*
X113254600Y-115498900D01*
X114551100Y-117942300D02*
X113971200Y-116684300D01*
X114987300Y-119257100D02*
X114551100Y-117942300D01*
X115274100Y-120612200D02*
X114987300Y-119257100D01*
X115408100Y-121990900D02*
X115274100Y-120612200D01*
X115387600Y-123376000D02*
X115408100Y-121990900D01*
X115212800Y-124750300D02*
X115387600Y-123376000D01*
X115190200Y-134480500D02*
X115212800Y-124750300D01*
X116211000Y-135501000D02*
X115190200Y-134480500D01*
X124211400Y-135501000D02*
X116211000Y-135501000D01*
X125212100Y-134500100D02*
X124211400Y-135501000D01*
X125212100Y-124700000D02*
X125212100Y-134500100D01*
X125043900Y-123331600D02*
X125212100Y-124700000D01*
X125028100Y-121953100D02*
X125043900Y-123331600D01*
X125164900Y-120581400D02*
X125028100Y-121953100D01*
X125452500Y-119233200D02*
X125164900Y-120581400D01*
X125887500Y-117925000D02*
X125452500Y-119233200D01*
X126464500Y-116673100D02*
X125887500Y-117925000D01*
X127176500Y-115492600D02*
X126464500Y-116673100D01*
X128012900Y-114400300D02*
X127176500Y-115492600D01*
X128857400Y-115498900D02*
X128012900Y-114400300D01*
X129573900Y-116684300D02*
X128857400Y-115498900D01*
X130153900Y-117942300D02*
X129573900Y-116684300D01*
X130590000Y-119257100D02*
X130153900Y-117942300D01*
X130876900Y-120612200D02*
X130590000Y-119257100D01*
X131010900Y-121990900D02*
X130876900Y-120612200D01*
X130990400Y-123376000D02*
X131010900Y-121990900D01*
X130815600Y-124750300D02*
X130990400Y-123376000D01*
X130793000Y-134480500D02*
X130815600Y-124750300D01*
X131813800Y-135501000D02*
X130793000Y-134480500D01*
X139814200Y-135501000D02*
X131813800Y-135501000D01*
X140814900Y-134500100D02*
X139814200Y-135501000D01*
X140814900Y-124700000D02*
X140814900Y-134500100D01*
X140646700Y-123331600D02*
X140814900Y-124700000D01*
X140630900Y-121953100D02*
X140646700Y-123331600D01*
X140767700Y-120581400D02*
X140630900Y-121953100D01*
X141055300Y-119233200D02*
X140767700Y-120581400D01*
X141490300Y-117925000D02*
X141055300Y-119233200D01*
X142067300Y-116673100D02*
X141490300Y-117925000D01*
X142779300Y-115492600D02*
X142067300Y-116673100D01*
X143617600Y-114397400D02*
X142779300Y-115492600D01*
X143614800Y-107289500D02*
X143617600Y-114397400D01*
X143314000Y-106999000D02*
X143614800Y-107289500D01*
X139816300Y-106999000D02*
X143314000Y-106999000D01*
D11*
X138313871Y-130552407D02*
X138313871Y-129885741D01*
X138313871Y-129552407D02*
X138361490Y-129600027D01*
X138313871Y-129647646D01*
X138266251Y-129600027D01*
X138313871Y-129552407D01*
X138313871Y-129647646D01*
X137694823Y-130552407D02*
X137790061Y-130504788D01*
X137837680Y-130457169D01*
X137885299Y-130361931D01*
X137885299Y-130076217D01*
X137837680Y-129980979D01*
X137790061Y-129933360D01*
X137694823Y-129885741D01*
X137551966Y-129885741D01*
X137456728Y-129933360D01*
X137409109Y-129980979D01*
X137361490Y-130076217D01*
X137361490Y-130361931D01*
X137409109Y-130457169D01*
X137456728Y-130504788D01*
X137551966Y-130552407D01*
X137694823Y-130552407D01*
X136932918Y-130552407D02*
X136932918Y-129552407D01*
X136504347Y-130552407D02*
X136504347Y-130028598D01*
X136551966Y-129933360D01*
X136647204Y-129885741D01*
X136790061Y-129885741D01*
X136885299Y-129933360D01*
X136932918Y-129980979D01*
X136028156Y-130552407D02*
X136028156Y-129885741D01*
X136028156Y-129552407D02*
X136075775Y-129600027D01*
X136028156Y-129647646D01*
X135980537Y-129600027D01*
X136028156Y-129552407D01*
X136028156Y-129647646D01*
X135551966Y-129885741D02*
X135551966Y-130885741D01*
X135551966Y-129933360D02*
X135456728Y-129885741D01*
X135266251Y-129885741D01*
X135171013Y-129933360D01*
X135123394Y-129980979D01*
X135075775Y-130076217D01*
X135075775Y-130361931D01*
X135123394Y-130457169D01*
X135171013Y-130504788D01*
X135266251Y-130552407D01*
X135456728Y-130552407D01*
X135551966Y-130504788D01*
X134647204Y-129885741D02*
X134647204Y-130885741D01*
X134647204Y-129933360D02*
X134551966Y-129885741D01*
X134361490Y-129885741D01*
X134266251Y-129933360D01*
X134218632Y-129980979D01*
X134171013Y-130076217D01*
X134171013Y-130361931D01*
X134218632Y-130457169D01*
X134266251Y-130504788D01*
X134361490Y-130552407D01*
X134551966Y-130552407D01*
X134647204Y-130504788D01*
X133599585Y-130552407D02*
X133694823Y-130504788D01*
X133742442Y-130457169D01*
X133790061Y-130361931D01*
X133790061Y-130076217D01*
X133742442Y-129980979D01*
X133694823Y-129933360D01*
X133599585Y-129885741D01*
X133456728Y-129885741D01*
X133361490Y-129933360D01*
X133313871Y-129980979D01*
X133266251Y-130076217D01*
X133266251Y-130361931D01*
X133313871Y-130457169D01*
X133361490Y-130504788D01*
X133456728Y-130552407D01*
X133599585Y-130552407D01*
D12*
X139899585Y-129142884D02*
X139899585Y-127942884D01*
X139442442Y-127942884D01*
X139328156Y-128000027D01*
X139271013Y-128057169D01*
X139213871Y-128171455D01*
X139213871Y-128342884D01*
X139271013Y-128457169D01*
X139328156Y-128514312D01*
X139442442Y-128571455D01*
X139899585Y-128571455D01*
X138471013Y-127942884D02*
X138242442Y-127942884D01*
X138128156Y-128000027D01*
X138013871Y-128114312D01*
X137956728Y-128342884D01*
X137956728Y-128742884D01*
X138013871Y-128971455D01*
X138128156Y-129085741D01*
X138242442Y-129142884D01*
X138471013Y-129142884D01*
X138585299Y-129085741D01*
X138699585Y-128971455D01*
X138756728Y-128742884D01*
X138756728Y-128342884D01*
X138699585Y-128114312D01*
X138585299Y-128000027D01*
X138471013Y-127942884D01*
X136813871Y-128000027D02*
X136928156Y-127942884D01*
X137099585Y-127942884D01*
X137271013Y-128000027D01*
X137385299Y-128114312D01*
X137442442Y-128228598D01*
X137499585Y-128457169D01*
X137499585Y-128628598D01*
X137442442Y-128857169D01*
X137385299Y-128971455D01*
X137271013Y-129085741D01*
X137099585Y-129142884D01*
X136985299Y-129142884D01*
X136813871Y-129085741D01*
X136756728Y-129028598D01*
X136756728Y-128628598D01*
X136985299Y-128628598D01*
X136013871Y-127942884D02*
X135785299Y-127942884D01*
X135671013Y-128000027D01*
X135556728Y-128114312D01*
X135499585Y-128342884D01*
X135499585Y-128742884D01*
X135556728Y-128971455D01*
X135671013Y-129085741D01*
X135785299Y-129142884D01*
X136013871Y-129142884D01*
X136128156Y-129085741D01*
X136242442Y-128971455D01*
X136299585Y-128742884D01*
X136299585Y-128342884D01*
X136242442Y-128114312D01*
X136128156Y-128000027D01*
X136013871Y-127942884D01*
X134071013Y-129142884D02*
X134071013Y-127942884D01*
X133556728Y-129085741D02*
X133385299Y-129142884D01*
X133099585Y-129142884D01*
X132985299Y-129085741D01*
X132928156Y-129028598D01*
X132871013Y-128914312D01*
X132871013Y-128800027D01*
X132928156Y-128685741D01*
X132985299Y-128628598D01*
X133099585Y-128571455D01*
X133328156Y-128514312D01*
X133442442Y-128457169D01*
X133499585Y-128400027D01*
X133556728Y-128285741D01*
X133556728Y-128171455D01*
X133499585Y-128057169D01*
X133442442Y-128000027D01*
X133328156Y-127942884D01*
X133042442Y-127942884D01*
X132871013Y-128000027D01*
X132356728Y-129142884D02*
X132356728Y-127942884D01*
X131899585Y-127942884D01*
X131785299Y-128000027D01*
X131728156Y-128057169D01*
X131671013Y-128171455D01*
X131671013Y-128342884D01*
X131728156Y-128457169D01*
X131785299Y-128514312D01*
X131899585Y-128571455D01*
X132356728Y-128571455D01*
D13*
X139974013Y-126691884D02*
X139116871Y-126691884D01*
X138945442Y-126749027D01*
X138831156Y-126863312D01*
X138774013Y-127034741D01*
X138774013Y-127149027D01*
X138774013Y-125549027D02*
X138774013Y-126120455D01*
X139974013Y-126120455D01*
X138888299Y-124463312D02*
X138831156Y-124520455D01*
X138774013Y-124691884D01*
X138774013Y-124806169D01*
X138831156Y-124977598D01*
X138945442Y-125091884D01*
X139059728Y-125149027D01*
X139288299Y-125206169D01*
X139459728Y-125206169D01*
X139688299Y-125149027D01*
X139802585Y-125091884D01*
X139916871Y-124977598D01*
X139974013Y-124806169D01*
X139974013Y-124691884D01*
X139916871Y-124520455D01*
X139859728Y-124463312D01*
X139974013Y-123606169D02*
X139116871Y-123606169D01*
X138945442Y-123663312D01*
X138831156Y-123777598D01*
X138774013Y-123949027D01*
X138774013Y-124063312D01*
X138774013Y-122463312D02*
X138774013Y-123034741D01*
X139974013Y-123034741D01*
X138888299Y-121377598D02*
X138831156Y-121434741D01*
X138774013Y-121606169D01*
X138774013Y-121720455D01*
X138831156Y-121891884D01*
X138945442Y-122006169D01*
X139059728Y-122063312D01*
X139288299Y-122120455D01*
X139459728Y-122120455D01*
X139688299Y-122063312D01*
X139802585Y-122006169D01*
X139916871Y-121891884D01*
X139974013Y-121720455D01*
X139974013Y-121606169D01*
X139916871Y-121434741D01*
X139859728Y-121377598D01*
X139974013Y-120520455D02*
X139116871Y-120520455D01*
X138945442Y-120577598D01*
X138831156Y-120691884D01*
X138774013Y-120863312D01*
X138774013Y-120977598D01*
X138774013Y-119377598D02*
X138774013Y-119949027D01*
X139974013Y-119949027D01*
X138888299Y-118291884D02*
X138831156Y-118349027D01*
X138774013Y-118520455D01*
X138774013Y-118634741D01*
X138831156Y-118806169D01*
X138945442Y-118920455D01*
X139059728Y-118977598D01*
X139288299Y-119034741D01*
X139459728Y-119034741D01*
X139688299Y-118977598D01*
X139802585Y-118920455D01*
X139916871Y-118806169D01*
X139974013Y-118634741D01*
X139974013Y-118520455D01*
X139916871Y-118349027D01*
X139859728Y-118291884D01*
X139974013Y-117434741D02*
X139116871Y-117434741D01*
X138945442Y-117491884D01*
X138831156Y-117606169D01*
X138774013Y-117777598D01*
X138774013Y-117891884D01*
X138774013Y-116291884D02*
X138774013Y-116863312D01*
X139974013Y-116863312D01*
X138888299Y-115206169D02*
X138831156Y-115263312D01*
X138774013Y-115434741D01*
X138774013Y-115549027D01*
X138831156Y-115720455D01*
X138945442Y-115834741D01*
X139059728Y-115891884D01*
X139288299Y-115949027D01*
X139459728Y-115949027D01*
X139688299Y-115891884D01*
X139802585Y-115834741D01*
X139916871Y-115720455D01*
X139974013Y-115549027D01*
X139974013Y-115434741D01*
X139916871Y-115263312D01*
X139859728Y-115206169D01*
D11*
X122711097Y-130552407D02*
X122711097Y-129885741D01*
X122711097Y-129552407D02*
X122758716Y-129600027D01*
X122711097Y-129647646D01*
X122663477Y-129600027D01*
X122711097Y-129552407D01*
X122711097Y-129647646D01*
X122092049Y-130552407D02*
X122187287Y-130504788D01*
X122234906Y-130457169D01*
X122282525Y-130361931D01*
X122282525Y-130076217D01*
X122234906Y-129980979D01*
X122187287Y-129933360D01*
X122092049Y-129885741D01*
X121949192Y-129885741D01*
X121853954Y-129933360D01*
X121806335Y-129980979D01*
X121758716Y-130076217D01*
X121758716Y-130361931D01*
X121806335Y-130457169D01*
X121853954Y-130504788D01*
X121949192Y-130552407D01*
X122092049Y-130552407D01*
X121330144Y-130552407D02*
X121330144Y-129552407D01*
X120901573Y-130552407D02*
X120901573Y-130028598D01*
X120949192Y-129933360D01*
X121044430Y-129885741D01*
X121187287Y-129885741D01*
X121282525Y-129933360D01*
X121330144Y-129980979D01*
X120425382Y-130552407D02*
X120425382Y-129885741D01*
X120425382Y-129552407D02*
X120473001Y-129600027D01*
X120425382Y-129647646D01*
X120377763Y-129600027D01*
X120425382Y-129552407D01*
X120425382Y-129647646D01*
X119949192Y-129885741D02*
X119949192Y-130885741D01*
X119949192Y-129933360D02*
X119853954Y-129885741D01*
X119663477Y-129885741D01*
X119568239Y-129933360D01*
X119520620Y-129980979D01*
X119473001Y-130076217D01*
X119473001Y-130361931D01*
X119520620Y-130457169D01*
X119568239Y-130504788D01*
X119663477Y-130552407D01*
X119853954Y-130552407D01*
X119949192Y-130504788D01*
X119044430Y-129885741D02*
X119044430Y-130885741D01*
X119044430Y-129933360D02*
X118949192Y-129885741D01*
X118758716Y-129885741D01*
X118663477Y-129933360D01*
X118615858Y-129980979D01*
X118568239Y-130076217D01*
X118568239Y-130361931D01*
X118615858Y-130457169D01*
X118663477Y-130504788D01*
X118758716Y-130552407D01*
X118949192Y-130552407D01*
X119044430Y-130504788D01*
X117996811Y-130552407D02*
X118092049Y-130504788D01*
X118139668Y-130457169D01*
X118187287Y-130361931D01*
X118187287Y-130076217D01*
X118139668Y-129980979D01*
X118092049Y-129933360D01*
X117996811Y-129885741D01*
X117853954Y-129885741D01*
X117758716Y-129933360D01*
X117711097Y-129980979D01*
X117663477Y-130076217D01*
X117663477Y-130361931D01*
X117711097Y-130457169D01*
X117758716Y-130504788D01*
X117853954Y-130552407D01*
X117996811Y-130552407D01*
D12*
X124296811Y-129142884D02*
X124296811Y-127942884D01*
X123839668Y-127942884D01*
X123725382Y-128000027D01*
X123668239Y-128057169D01*
X123611097Y-128171455D01*
X123611097Y-128342884D01*
X123668239Y-128457169D01*
X123725382Y-128514312D01*
X123839668Y-128571455D01*
X124296811Y-128571455D01*
X122868239Y-127942884D02*
X122639668Y-127942884D01*
X122525382Y-128000027D01*
X122411097Y-128114312D01*
X122353954Y-128342884D01*
X122353954Y-128742884D01*
X122411097Y-128971455D01*
X122525382Y-129085741D01*
X122639668Y-129142884D01*
X122868239Y-129142884D01*
X122982525Y-129085741D01*
X123096811Y-128971455D01*
X123153954Y-128742884D01*
X123153954Y-128342884D01*
X123096811Y-128114312D01*
X122982525Y-128000027D01*
X122868239Y-127942884D01*
X121211097Y-128000027D02*
X121325382Y-127942884D01*
X121496811Y-127942884D01*
X121668239Y-128000027D01*
X121782525Y-128114312D01*
X121839668Y-128228598D01*
X121896811Y-128457169D01*
X121896811Y-128628598D01*
X121839668Y-128857169D01*
X121782525Y-128971455D01*
X121668239Y-129085741D01*
X121496811Y-129142884D01*
X121382525Y-129142884D01*
X121211097Y-129085741D01*
X121153954Y-129028598D01*
X121153954Y-128628598D01*
X121382525Y-128628598D01*
X120411097Y-127942884D02*
X120182525Y-127942884D01*
X120068239Y-128000027D01*
X119953954Y-128114312D01*
X119896811Y-128342884D01*
X119896811Y-128742884D01*
X119953954Y-128971455D01*
X120068239Y-129085741D01*
X120182525Y-129142884D01*
X120411097Y-129142884D01*
X120525382Y-129085741D01*
X120639668Y-128971455D01*
X120696811Y-128742884D01*
X120696811Y-128342884D01*
X120639668Y-128114312D01*
X120525382Y-128000027D01*
X120411097Y-127942884D01*
X118468239Y-129142884D02*
X118468239Y-127942884D01*
X117953954Y-129085741D02*
X117782525Y-129142884D01*
X117496811Y-129142884D01*
X117382525Y-129085741D01*
X117325382Y-129028598D01*
X117268239Y-128914312D01*
X117268239Y-128800027D01*
X117325382Y-128685741D01*
X117382525Y-128628598D01*
X117496811Y-128571455D01*
X117725382Y-128514312D01*
X117839668Y-128457169D01*
X117896811Y-128400027D01*
X117953954Y-128285741D01*
X117953954Y-128171455D01*
X117896811Y-128057169D01*
X117839668Y-128000027D01*
X117725382Y-127942884D01*
X117439668Y-127942884D01*
X117268239Y-128000027D01*
X116753954Y-129142884D02*
X116753954Y-127942884D01*
X116296811Y-127942884D01*
X116182525Y-128000027D01*
X116125382Y-128057169D01*
X116068239Y-128171455D01*
X116068239Y-128342884D01*
X116125382Y-128457169D01*
X116182525Y-128514312D01*
X116296811Y-128571455D01*
X116753954Y-128571455D01*
D13*
X124371239Y-126691884D02*
X123514097Y-126691884D01*
X123342668Y-126749027D01*
X123228382Y-126863312D01*
X123171239Y-127034741D01*
X123171239Y-127149027D01*
X123171239Y-125549027D02*
X123171239Y-126120455D01*
X124371239Y-126120455D01*
X123285525Y-124463312D02*
X123228382Y-124520455D01*
X123171239Y-124691884D01*
X123171239Y-124806169D01*
X123228382Y-124977598D01*
X123342668Y-125091884D01*
X123456954Y-125149027D01*
X123685525Y-125206169D01*
X123856954Y-125206169D01*
X124085525Y-125149027D01*
X124199811Y-125091884D01*
X124314097Y-124977598D01*
X124371239Y-124806169D01*
X124371239Y-124691884D01*
X124314097Y-124520455D01*
X124256954Y-124463312D01*
X124371239Y-123606169D02*
X123514097Y-123606169D01*
X123342668Y-123663312D01*
X123228382Y-123777598D01*
X123171239Y-123949027D01*
X123171239Y-124063312D01*
X123171239Y-122463312D02*
X123171239Y-123034741D01*
X124371239Y-123034741D01*
X123285525Y-121377598D02*
X123228382Y-121434741D01*
X123171239Y-121606169D01*
X123171239Y-121720455D01*
X123228382Y-121891884D01*
X123342668Y-122006169D01*
X123456954Y-122063312D01*
X123685525Y-122120455D01*
X123856954Y-122120455D01*
X124085525Y-122063312D01*
X124199811Y-122006169D01*
X124314097Y-121891884D01*
X124371239Y-121720455D01*
X124371239Y-121606169D01*
X124314097Y-121434741D01*
X124256954Y-121377598D01*
X124371239Y-120520455D02*
X123514097Y-120520455D01*
X123342668Y-120577598D01*
X123228382Y-120691884D01*
X123171239Y-120863312D01*
X123171239Y-120977598D01*
X123171239Y-119377598D02*
X123171239Y-119949027D01*
X124371239Y-119949027D01*
X123285525Y-118291884D02*
X123228382Y-118349027D01*
X123171239Y-118520455D01*
X123171239Y-118634741D01*
X123228382Y-118806169D01*
X123342668Y-118920455D01*
X123456954Y-118977598D01*
X123685525Y-119034741D01*
X123856954Y-119034741D01*
X124085525Y-118977598D01*
X124199811Y-118920455D01*
X124314097Y-118806169D01*
X124371239Y-118634741D01*
X124371239Y-118520455D01*
X124314097Y-118349027D01*
X124256954Y-118291884D01*
X124371239Y-117434741D02*
X123514097Y-117434741D01*
X123342668Y-117491884D01*
X123228382Y-117606169D01*
X123171239Y-117777598D01*
X123171239Y-117891884D01*
X123171239Y-116291884D02*
X123171239Y-116863312D01*
X124371239Y-116863312D01*
X123285525Y-115206169D02*
X123228382Y-115263312D01*
X123171239Y-115434741D01*
X123171239Y-115549027D01*
X123228382Y-115720455D01*
X123342668Y-115834741D01*
X123456954Y-115891884D01*
X123685525Y-115949027D01*
X123856954Y-115949027D01*
X124085525Y-115891884D01*
X124199811Y-115834741D01*
X124314097Y-115720455D01*
X124371239Y-115549027D01*
X124371239Y-115434741D01*
X124314097Y-115263312D01*
X124256954Y-115206169D01*
D11*
X107108323Y-130552407D02*
X107108323Y-129885741D01*
X107108323Y-129552407D02*
X107155942Y-129600027D01*
X107108323Y-129647646D01*
X107060703Y-129600027D01*
X107108323Y-129552407D01*
X107108323Y-129647646D01*
X106489275Y-130552407D02*
X106584513Y-130504788D01*
X106632132Y-130457169D01*
X106679751Y-130361931D01*
X106679751Y-130076217D01*
X106632132Y-129980979D01*
X106584513Y-129933360D01*
X106489275Y-129885741D01*
X106346418Y-129885741D01*
X106251180Y-129933360D01*
X106203561Y-129980979D01*
X106155942Y-130076217D01*
X106155942Y-130361931D01*
X106203561Y-130457169D01*
X106251180Y-130504788D01*
X106346418Y-130552407D01*
X106489275Y-130552407D01*
X105727370Y-130552407D02*
X105727370Y-129552407D01*
X105298799Y-130552407D02*
X105298799Y-130028598D01*
X105346418Y-129933360D01*
X105441656Y-129885741D01*
X105584513Y-129885741D01*
X105679751Y-129933360D01*
X105727370Y-129980979D01*
X104822608Y-130552407D02*
X104822608Y-129885741D01*
X104822608Y-129552407D02*
X104870227Y-129600027D01*
X104822608Y-129647646D01*
X104774989Y-129600027D01*
X104822608Y-129552407D01*
X104822608Y-129647646D01*
X104346418Y-129885741D02*
X104346418Y-130885741D01*
X104346418Y-129933360D02*
X104251180Y-129885741D01*
X104060703Y-129885741D01*
X103965465Y-129933360D01*
X103917846Y-129980979D01*
X103870227Y-130076217D01*
X103870227Y-130361931D01*
X103917846Y-130457169D01*
X103965465Y-130504788D01*
X104060703Y-130552407D01*
X104251180Y-130552407D01*
X104346418Y-130504788D01*
X103441656Y-129885741D02*
X103441656Y-130885741D01*
X103441656Y-129933360D02*
X103346418Y-129885741D01*
X103155942Y-129885741D01*
X103060703Y-129933360D01*
X103013084Y-129980979D01*
X102965465Y-130076217D01*
X102965465Y-130361931D01*
X103013084Y-130457169D01*
X103060703Y-130504788D01*
X103155942Y-130552407D01*
X103346418Y-130552407D01*
X103441656Y-130504788D01*
X102394037Y-130552407D02*
X102489275Y-130504788D01*
X102536894Y-130457169D01*
X102584513Y-130361931D01*
X102584513Y-130076217D01*
X102536894Y-129980979D01*
X102489275Y-129933360D01*
X102394037Y-129885741D01*
X102251180Y-129885741D01*
X102155942Y-129933360D01*
X102108323Y-129980979D01*
X102060703Y-130076217D01*
X102060703Y-130361931D01*
X102108323Y-130457169D01*
X102155942Y-130504788D01*
X102251180Y-130552407D01*
X102394037Y-130552407D01*
D12*
X108694037Y-129142884D02*
X108694037Y-127942884D01*
X108236894Y-127942884D01*
X108122608Y-128000027D01*
X108065465Y-128057169D01*
X108008323Y-128171455D01*
X108008323Y-128342884D01*
X108065465Y-128457169D01*
X108122608Y-128514312D01*
X108236894Y-128571455D01*
X108694037Y-128571455D01*
X107265465Y-127942884D02*
X107036894Y-127942884D01*
X106922608Y-128000027D01*
X106808323Y-128114312D01*
X106751180Y-128342884D01*
X106751180Y-128742884D01*
X106808323Y-128971455D01*
X106922608Y-129085741D01*
X107036894Y-129142884D01*
X107265465Y-129142884D01*
X107379751Y-129085741D01*
X107494037Y-128971455D01*
X107551180Y-128742884D01*
X107551180Y-128342884D01*
X107494037Y-128114312D01*
X107379751Y-128000027D01*
X107265465Y-127942884D01*
X105608323Y-128000027D02*
X105722608Y-127942884D01*
X105894037Y-127942884D01*
X106065465Y-128000027D01*
X106179751Y-128114312D01*
X106236894Y-128228598D01*
X106294037Y-128457169D01*
X106294037Y-128628598D01*
X106236894Y-128857169D01*
X106179751Y-128971455D01*
X106065465Y-129085741D01*
X105894037Y-129142884D01*
X105779751Y-129142884D01*
X105608323Y-129085741D01*
X105551180Y-129028598D01*
X105551180Y-128628598D01*
X105779751Y-128628598D01*
X104808323Y-127942884D02*
X104579751Y-127942884D01*
X104465465Y-128000027D01*
X104351180Y-128114312D01*
X104294037Y-128342884D01*
X104294037Y-128742884D01*
X104351180Y-128971455D01*
X104465465Y-129085741D01*
X104579751Y-129142884D01*
X104808323Y-129142884D01*
X104922608Y-129085741D01*
X105036894Y-128971455D01*
X105094037Y-128742884D01*
X105094037Y-128342884D01*
X105036894Y-128114312D01*
X104922608Y-128000027D01*
X104808323Y-127942884D01*
X102865465Y-129142884D02*
X102865465Y-127942884D01*
X102351180Y-129085741D02*
X102179751Y-129142884D01*
X101894037Y-129142884D01*
X101779751Y-129085741D01*
X101722608Y-129028598D01*
X101665465Y-128914312D01*
X101665465Y-128800027D01*
X101722608Y-128685741D01*
X101779751Y-128628598D01*
X101894037Y-128571455D01*
X102122608Y-128514312D01*
X102236894Y-128457169D01*
X102294037Y-128400027D01*
X102351180Y-128285741D01*
X102351180Y-128171455D01*
X102294037Y-128057169D01*
X102236894Y-128000027D01*
X102122608Y-127942884D01*
X101836894Y-127942884D01*
X101665465Y-128000027D01*
X101151180Y-129142884D02*
X101151180Y-127942884D01*
X100694037Y-127942884D01*
X100579751Y-128000027D01*
X100522608Y-128057169D01*
X100465465Y-128171455D01*
X100465465Y-128342884D01*
X100522608Y-128457169D01*
X100579751Y-128514312D01*
X100694037Y-128571455D01*
X101151180Y-128571455D01*
D13*
X108768465Y-126691884D02*
X107911323Y-126691884D01*
X107739894Y-126749027D01*
X107625608Y-126863312D01*
X107568465Y-127034741D01*
X107568465Y-127149027D01*
X107568465Y-125549027D02*
X107568465Y-126120455D01*
X108768465Y-126120455D01*
X107682751Y-124463312D02*
X107625608Y-124520455D01*
X107568465Y-124691884D01*
X107568465Y-124806169D01*
X107625608Y-124977598D01*
X107739894Y-125091884D01*
X107854180Y-125149027D01*
X108082751Y-125206169D01*
X108254180Y-125206169D01*
X108482751Y-125149027D01*
X108597037Y-125091884D01*
X108711323Y-124977598D01*
X108768465Y-124806169D01*
X108768465Y-124691884D01*
X108711323Y-124520455D01*
X108654180Y-124463312D01*
X108768465Y-123606169D02*
X107911323Y-123606169D01*
X107739894Y-123663312D01*
X107625608Y-123777598D01*
X107568465Y-123949027D01*
X107568465Y-124063312D01*
X107568465Y-122463312D02*
X107568465Y-123034741D01*
X108768465Y-123034741D01*
X107682751Y-121377598D02*
X107625608Y-121434741D01*
X107568465Y-121606169D01*
X107568465Y-121720455D01*
X107625608Y-121891884D01*
X107739894Y-122006169D01*
X107854180Y-122063312D01*
X108082751Y-122120455D01*
X108254180Y-122120455D01*
X108482751Y-122063312D01*
X108597037Y-122006169D01*
X108711323Y-121891884D01*
X108768465Y-121720455D01*
X108768465Y-121606169D01*
X108711323Y-121434741D01*
X108654180Y-121377598D01*
X108768465Y-120520455D02*
X107911323Y-120520455D01*
X107739894Y-120577598D01*
X107625608Y-120691884D01*
X107568465Y-120863312D01*
X107568465Y-120977598D01*
X107568465Y-119377598D02*
X107568465Y-119949027D01*
X108768465Y-119949027D01*
X107682751Y-118291884D02*
X107625608Y-118349027D01*
X107568465Y-118520455D01*
X107568465Y-118634741D01*
X107625608Y-118806169D01*
X107739894Y-118920455D01*
X107854180Y-118977598D01*
X108082751Y-119034741D01*
X108254180Y-119034741D01*
X108482751Y-118977598D01*
X108597037Y-118920455D01*
X108711323Y-118806169D01*
X108768465Y-118634741D01*
X108768465Y-118520455D01*
X108711323Y-118349027D01*
X108654180Y-118291884D01*
X108768465Y-117434741D02*
X107911323Y-117434741D01*
X107739894Y-117491884D01*
X107625608Y-117606169D01*
X107568465Y-117777598D01*
X107568465Y-117891884D01*
X107568465Y-116291884D02*
X107568465Y-116863312D01*
X108768465Y-116863312D01*
X107682751Y-115206169D02*
X107625608Y-115263312D01*
X107568465Y-115434741D01*
X107568465Y-115549027D01*
X107625608Y-115720455D01*
X107739894Y-115834741D01*
X107854180Y-115891884D01*
X108082751Y-115949027D01*
X108254180Y-115949027D01*
X108482751Y-115891884D01*
X108597037Y-115834741D01*
X108711323Y-115720455D01*
X108768465Y-115549027D01*
X108768465Y-115434741D01*
X108711323Y-115263312D01*
X108654180Y-115206169D01*
D11*
X91505549Y-130552407D02*
X91505549Y-129885741D01*
X91505549Y-129552407D02*
X91553168Y-129600027D01*
X91505549Y-129647646D01*
X91457929Y-129600027D01*
X91505549Y-129552407D01*
X91505549Y-129647646D01*
X90886501Y-130552407D02*
X90981739Y-130504788D01*
X91029358Y-130457169D01*
X91076977Y-130361931D01*
X91076977Y-130076217D01*
X91029358Y-129980979D01*
X90981739Y-129933360D01*
X90886501Y-129885741D01*
X90743644Y-129885741D01*
X90648406Y-129933360D01*
X90600787Y-129980979D01*
X90553168Y-130076217D01*
X90553168Y-130361931D01*
X90600787Y-130457169D01*
X90648406Y-130504788D01*
X90743644Y-130552407D01*
X90886501Y-130552407D01*
X90124596Y-130552407D02*
X90124596Y-129552407D01*
X89696025Y-130552407D02*
X89696025Y-130028598D01*
X89743644Y-129933360D01*
X89838882Y-129885741D01*
X89981739Y-129885741D01*
X90076977Y-129933360D01*
X90124596Y-129980979D01*
X89219834Y-130552407D02*
X89219834Y-129885741D01*
X89219834Y-129552407D02*
X89267453Y-129600027D01*
X89219834Y-129647646D01*
X89172215Y-129600027D01*
X89219834Y-129552407D01*
X89219834Y-129647646D01*
X88743644Y-129885741D02*
X88743644Y-130885741D01*
X88743644Y-129933360D02*
X88648406Y-129885741D01*
X88457929Y-129885741D01*
X88362691Y-129933360D01*
X88315072Y-129980979D01*
X88267453Y-130076217D01*
X88267453Y-130361931D01*
X88315072Y-130457169D01*
X88362691Y-130504788D01*
X88457929Y-130552407D01*
X88648406Y-130552407D01*
X88743644Y-130504788D01*
X87838882Y-129885741D02*
X87838882Y-130885741D01*
X87838882Y-129933360D02*
X87743644Y-129885741D01*
X87553168Y-129885741D01*
X87457929Y-129933360D01*
X87410310Y-129980979D01*
X87362691Y-130076217D01*
X87362691Y-130361931D01*
X87410310Y-130457169D01*
X87457929Y-130504788D01*
X87553168Y-130552407D01*
X87743644Y-130552407D01*
X87838882Y-130504788D01*
X86791263Y-130552407D02*
X86886501Y-130504788D01*
X86934120Y-130457169D01*
X86981739Y-130361931D01*
X86981739Y-130076217D01*
X86934120Y-129980979D01*
X86886501Y-129933360D01*
X86791263Y-129885741D01*
X86648406Y-129885741D01*
X86553168Y-129933360D01*
X86505549Y-129980979D01*
X86457929Y-130076217D01*
X86457929Y-130361931D01*
X86505549Y-130457169D01*
X86553168Y-130504788D01*
X86648406Y-130552407D01*
X86791263Y-130552407D01*
D12*
X93091263Y-129142884D02*
X93091263Y-127942884D01*
X92634120Y-127942884D01*
X92519834Y-128000027D01*
X92462691Y-128057169D01*
X92405549Y-128171455D01*
X92405549Y-128342884D01*
X92462691Y-128457169D01*
X92519834Y-128514312D01*
X92634120Y-128571455D01*
X93091263Y-128571455D01*
X91662691Y-127942884D02*
X91434120Y-127942884D01*
X91319834Y-128000027D01*
X91205549Y-128114312D01*
X91148406Y-128342884D01*
X91148406Y-128742884D01*
X91205549Y-128971455D01*
X91319834Y-129085741D01*
X91434120Y-129142884D01*
X91662691Y-129142884D01*
X91776977Y-129085741D01*
X91891263Y-128971455D01*
X91948406Y-128742884D01*
X91948406Y-128342884D01*
X91891263Y-128114312D01*
X91776977Y-128000027D01*
X91662691Y-127942884D01*
X90005549Y-128000027D02*
X90119834Y-127942884D01*
X90291263Y-127942884D01*
X90462691Y-128000027D01*
X90576977Y-128114312D01*
X90634120Y-128228598D01*
X90691263Y-128457169D01*
X90691263Y-128628598D01*
X90634120Y-128857169D01*
X90576977Y-128971455D01*
X90462691Y-129085741D01*
X90291263Y-129142884D01*
X90176977Y-129142884D01*
X90005549Y-129085741D01*
X89948406Y-129028598D01*
X89948406Y-128628598D01*
X90176977Y-128628598D01*
X89205549Y-127942884D02*
X88976977Y-127942884D01*
X88862691Y-128000027D01*
X88748406Y-128114312D01*
X88691263Y-128342884D01*
X88691263Y-128742884D01*
X88748406Y-128971455D01*
X88862691Y-129085741D01*
X88976977Y-129142884D01*
X89205549Y-129142884D01*
X89319834Y-129085741D01*
X89434120Y-128971455D01*
X89491263Y-128742884D01*
X89491263Y-128342884D01*
X89434120Y-128114312D01*
X89319834Y-128000027D01*
X89205549Y-127942884D01*
X87262691Y-129142884D02*
X87262691Y-127942884D01*
X86748406Y-129085741D02*
X86576977Y-129142884D01*
X86291263Y-129142884D01*
X86176977Y-129085741D01*
X86119834Y-129028598D01*
X86062691Y-128914312D01*
X86062691Y-128800027D01*
X86119834Y-128685741D01*
X86176977Y-128628598D01*
X86291263Y-128571455D01*
X86519834Y-128514312D01*
X86634120Y-128457169D01*
X86691263Y-128400027D01*
X86748406Y-128285741D01*
X86748406Y-128171455D01*
X86691263Y-128057169D01*
X86634120Y-128000027D01*
X86519834Y-127942884D01*
X86234120Y-127942884D01*
X86062691Y-128000027D01*
X85548406Y-129142884D02*
X85548406Y-127942884D01*
X85091263Y-127942884D01*
X84976977Y-128000027D01*
X84919834Y-128057169D01*
X84862691Y-128171455D01*
X84862691Y-128342884D01*
X84919834Y-128457169D01*
X84976977Y-128514312D01*
X85091263Y-128571455D01*
X85548406Y-128571455D01*
D13*
X93165691Y-126691884D02*
X92308549Y-126691884D01*
X92137120Y-126749027D01*
X92022834Y-126863312D01*
X91965691Y-127034741D01*
X91965691Y-127149027D01*
X91965691Y-125549027D02*
X91965691Y-126120455D01*
X93165691Y-126120455D01*
X92079977Y-124463312D02*
X92022834Y-124520455D01*
X91965691Y-124691884D01*
X91965691Y-124806169D01*
X92022834Y-124977598D01*
X92137120Y-125091884D01*
X92251406Y-125149027D01*
X92479977Y-125206169D01*
X92651406Y-125206169D01*
X92879977Y-125149027D01*
X92994263Y-125091884D01*
X93108549Y-124977598D01*
X93165691Y-124806169D01*
X93165691Y-124691884D01*
X93108549Y-124520455D01*
X93051406Y-124463312D01*
X93165691Y-123606169D02*
X92308549Y-123606169D01*
X92137120Y-123663312D01*
X92022834Y-123777598D01*
X91965691Y-123949027D01*
X91965691Y-124063312D01*
X91965691Y-122463312D02*
X91965691Y-123034741D01*
X93165691Y-123034741D01*
X92079977Y-121377598D02*
X92022834Y-121434741D01*
X91965691Y-121606169D01*
X91965691Y-121720455D01*
X92022834Y-121891884D01*
X92137120Y-122006169D01*
X92251406Y-122063312D01*
X92479977Y-122120455D01*
X92651406Y-122120455D01*
X92879977Y-122063312D01*
X92994263Y-122006169D01*
X93108549Y-121891884D01*
X93165691Y-121720455D01*
X93165691Y-121606169D01*
X93108549Y-121434741D01*
X93051406Y-121377598D01*
X93165691Y-120520455D02*
X92308549Y-120520455D01*
X92137120Y-120577598D01*
X92022834Y-120691884D01*
X91965691Y-120863312D01*
X91965691Y-120977598D01*
X91965691Y-119377598D02*
X91965691Y-119949027D01*
X93165691Y-119949027D01*
X92079977Y-118291884D02*
X92022834Y-118349027D01*
X91965691Y-118520455D01*
X91965691Y-118634741D01*
X92022834Y-118806169D01*
X92137120Y-118920455D01*
X92251406Y-118977598D01*
X92479977Y-119034741D01*
X92651406Y-119034741D01*
X92879977Y-118977598D01*
X92994263Y-118920455D01*
X93108549Y-118806169D01*
X93165691Y-118634741D01*
X93165691Y-118520455D01*
X93108549Y-118349027D01*
X93051406Y-118291884D01*
X93165691Y-117434741D02*
X92308549Y-117434741D01*
X92137120Y-117491884D01*
X92022834Y-117606169D01*
X91965691Y-117777598D01*
X91965691Y-117891884D01*
X91965691Y-116291884D02*
X91965691Y-116863312D01*
X93165691Y-116863312D01*
X92079977Y-115206169D02*
X92022834Y-115263312D01*
X91965691Y-115434741D01*
X91965691Y-115549027D01*
X92022834Y-115720455D01*
X92137120Y-115834741D01*
X92251406Y-115891884D01*
X92479977Y-115949027D01*
X92651406Y-115949027D01*
X92879977Y-115891884D01*
X92994263Y-115834741D01*
X93108549Y-115720455D01*
X93165691Y-115549027D01*
X93165691Y-115434741D01*
X93108549Y-115263312D01*
X93051406Y-115206169D01*
D11*
X75902775Y-130552407D02*
X75902775Y-129885741D01*
X75902775Y-129552407D02*
X75950394Y-129600027D01*
X75902775Y-129647646D01*
X75855155Y-129600027D01*
X75902775Y-129552407D01*
X75902775Y-129647646D01*
X75283727Y-130552407D02*
X75378965Y-130504788D01*
X75426584Y-130457169D01*
X75474203Y-130361931D01*
X75474203Y-130076217D01*
X75426584Y-129980979D01*
X75378965Y-129933360D01*
X75283727Y-129885741D01*
X75140870Y-129885741D01*
X75045632Y-129933360D01*
X74998013Y-129980979D01*
X74950394Y-130076217D01*
X74950394Y-130361931D01*
X74998013Y-130457169D01*
X75045632Y-130504788D01*
X75140870Y-130552407D01*
X75283727Y-130552407D01*
X74521822Y-130552407D02*
X74521822Y-129552407D01*
X74093251Y-130552407D02*
X74093251Y-130028598D01*
X74140870Y-129933360D01*
X74236108Y-129885741D01*
X74378965Y-129885741D01*
X74474203Y-129933360D01*
X74521822Y-129980979D01*
X73617060Y-130552407D02*
X73617060Y-129885741D01*
X73617060Y-129552407D02*
X73664679Y-129600027D01*
X73617060Y-129647646D01*
X73569441Y-129600027D01*
X73617060Y-129552407D01*
X73617060Y-129647646D01*
X73140870Y-129885741D02*
X73140870Y-130885741D01*
X73140870Y-129933360D02*
X73045632Y-129885741D01*
X72855155Y-129885741D01*
X72759917Y-129933360D01*
X72712298Y-129980979D01*
X72664679Y-130076217D01*
X72664679Y-130361931D01*
X72712298Y-130457169D01*
X72759917Y-130504788D01*
X72855155Y-130552407D01*
X73045632Y-130552407D01*
X73140870Y-130504788D01*
X72236108Y-129885741D02*
X72236108Y-130885741D01*
X72236108Y-129933360D02*
X72140870Y-129885741D01*
X71950394Y-129885741D01*
X71855155Y-129933360D01*
X71807536Y-129980979D01*
X71759917Y-130076217D01*
X71759917Y-130361931D01*
X71807536Y-130457169D01*
X71855155Y-130504788D01*
X71950394Y-130552407D01*
X72140870Y-130552407D01*
X72236108Y-130504788D01*
X71188489Y-130552407D02*
X71283727Y-130504788D01*
X71331346Y-130457169D01*
X71378965Y-130361931D01*
X71378965Y-130076217D01*
X71331346Y-129980979D01*
X71283727Y-129933360D01*
X71188489Y-129885741D01*
X71045632Y-129885741D01*
X70950394Y-129933360D01*
X70902775Y-129980979D01*
X70855155Y-130076217D01*
X70855155Y-130361931D01*
X70902775Y-130457169D01*
X70950394Y-130504788D01*
X71045632Y-130552407D01*
X71188489Y-130552407D01*
D12*
X77488489Y-129142884D02*
X77488489Y-127942884D01*
X77031346Y-127942884D01*
X76917060Y-128000027D01*
X76859917Y-128057169D01*
X76802775Y-128171455D01*
X76802775Y-128342884D01*
X76859917Y-128457169D01*
X76917060Y-128514312D01*
X77031346Y-128571455D01*
X77488489Y-128571455D01*
X76059917Y-127942884D02*
X75831346Y-127942884D01*
X75717060Y-128000027D01*
X75602775Y-128114312D01*
X75545632Y-128342884D01*
X75545632Y-128742884D01*
X75602775Y-128971455D01*
X75717060Y-129085741D01*
X75831346Y-129142884D01*
X76059917Y-129142884D01*
X76174203Y-129085741D01*
X76288489Y-128971455D01*
X76345632Y-128742884D01*
X76345632Y-128342884D01*
X76288489Y-128114312D01*
X76174203Y-128000027D01*
X76059917Y-127942884D01*
X74402775Y-128000027D02*
X74517060Y-127942884D01*
X74688489Y-127942884D01*
X74859917Y-128000027D01*
X74974203Y-128114312D01*
X75031346Y-128228598D01*
X75088489Y-128457169D01*
X75088489Y-128628598D01*
X75031346Y-128857169D01*
X74974203Y-128971455D01*
X74859917Y-129085741D01*
X74688489Y-129142884D01*
X74574203Y-129142884D01*
X74402775Y-129085741D01*
X74345632Y-129028598D01*
X74345632Y-128628598D01*
X74574203Y-128628598D01*
X73602775Y-127942884D02*
X73374203Y-127942884D01*
X73259917Y-128000027D01*
X73145632Y-128114312D01*
X73088489Y-128342884D01*
X73088489Y-128742884D01*
X73145632Y-128971455D01*
X73259917Y-129085741D01*
X73374203Y-129142884D01*
X73602775Y-129142884D01*
X73717060Y-129085741D01*
X73831346Y-128971455D01*
X73888489Y-128742884D01*
X73888489Y-128342884D01*
X73831346Y-128114312D01*
X73717060Y-128000027D01*
X73602775Y-127942884D01*
X71659917Y-129142884D02*
X71659917Y-127942884D01*
X71145632Y-129085741D02*
X70974203Y-129142884D01*
X70688489Y-129142884D01*
X70574203Y-129085741D01*
X70517060Y-129028598D01*
X70459917Y-128914312D01*
X70459917Y-128800027D01*
X70517060Y-128685741D01*
X70574203Y-128628598D01*
X70688489Y-128571455D01*
X70917060Y-128514312D01*
X71031346Y-128457169D01*
X71088489Y-128400027D01*
X71145632Y-128285741D01*
X71145632Y-128171455D01*
X71088489Y-128057169D01*
X71031346Y-128000027D01*
X70917060Y-127942884D01*
X70631346Y-127942884D01*
X70459917Y-128000027D01*
X69945632Y-129142884D02*
X69945632Y-127942884D01*
X69488489Y-127942884D01*
X69374203Y-128000027D01*
X69317060Y-128057169D01*
X69259917Y-128171455D01*
X69259917Y-128342884D01*
X69317060Y-128457169D01*
X69374203Y-128514312D01*
X69488489Y-128571455D01*
X69945632Y-128571455D01*
D13*
X77562917Y-126691884D02*
X76705775Y-126691884D01*
X76534346Y-126749027D01*
X76420060Y-126863312D01*
X76362917Y-127034741D01*
X76362917Y-127149027D01*
X76362917Y-125549027D02*
X76362917Y-126120455D01*
X77562917Y-126120455D01*
X76477203Y-124463312D02*
X76420060Y-124520455D01*
X76362917Y-124691884D01*
X76362917Y-124806169D01*
X76420060Y-124977598D01*
X76534346Y-125091884D01*
X76648632Y-125149027D01*
X76877203Y-125206169D01*
X77048632Y-125206169D01*
X77277203Y-125149027D01*
X77391489Y-125091884D01*
X77505775Y-124977598D01*
X77562917Y-124806169D01*
X77562917Y-124691884D01*
X77505775Y-124520455D01*
X77448632Y-124463312D01*
X77562917Y-123606169D02*
X76705775Y-123606169D01*
X76534346Y-123663312D01*
X76420060Y-123777598D01*
X76362917Y-123949027D01*
X76362917Y-124063312D01*
X76362917Y-122463312D02*
X76362917Y-123034741D01*
X77562917Y-123034741D01*
X76477203Y-121377598D02*
X76420060Y-121434741D01*
X76362917Y-121606169D01*
X76362917Y-121720455D01*
X76420060Y-121891884D01*
X76534346Y-122006169D01*
X76648632Y-122063312D01*
X76877203Y-122120455D01*
X77048632Y-122120455D01*
X77277203Y-122063312D01*
X77391489Y-122006169D01*
X77505775Y-121891884D01*
X77562917Y-121720455D01*
X77562917Y-121606169D01*
X77505775Y-121434741D01*
X77448632Y-121377598D01*
X77562917Y-120520455D02*
X76705775Y-120520455D01*
X76534346Y-120577598D01*
X76420060Y-120691884D01*
X76362917Y-120863312D01*
X76362917Y-120977598D01*
X76362917Y-119377598D02*
X76362917Y-119949027D01*
X77562917Y-119949027D01*
X76477203Y-118291884D02*
X76420060Y-118349027D01*
X76362917Y-118520455D01*
X76362917Y-118634741D01*
X76420060Y-118806169D01*
X76534346Y-118920455D01*
X76648632Y-118977598D01*
X76877203Y-119034741D01*
X77048632Y-119034741D01*
X77277203Y-118977598D01*
X77391489Y-118920455D01*
X77505775Y-118806169D01*
X77562917Y-118634741D01*
X77562917Y-118520455D01*
X77505775Y-118349027D01*
X77448632Y-118291884D01*
X77562917Y-117434741D02*
X76705775Y-117434741D01*
X76534346Y-117491884D01*
X76420060Y-117606169D01*
X76362917Y-117777598D01*
X76362917Y-117891884D01*
X76362917Y-116291884D02*
X76362917Y-116863312D01*
X77562917Y-116863312D01*
X76477203Y-115206169D02*
X76420060Y-115263312D01*
X76362917Y-115434741D01*
X76362917Y-115549027D01*
X76420060Y-115720455D01*
X76534346Y-115834741D01*
X76648632Y-115891884D01*
X76877203Y-115949027D01*
X77048632Y-115949027D01*
X77277203Y-115891884D01*
X77391489Y-115834741D01*
X77505775Y-115720455D01*
X77562917Y-115549027D01*
X77562917Y-115434741D01*
X77505775Y-115263312D01*
X77448632Y-115206169D01*
D11*
X60300001Y-130552407D02*
X60300001Y-129885741D01*
X60300001Y-129552407D02*
X60347620Y-129600027D01*
X60300001Y-129647646D01*
X60252381Y-129600027D01*
X60300001Y-129552407D01*
X60300001Y-129647646D01*
X59680953Y-130552407D02*
X59776191Y-130504788D01*
X59823810Y-130457169D01*
X59871429Y-130361931D01*
X59871429Y-130076217D01*
X59823810Y-129980979D01*
X59776191Y-129933360D01*
X59680953Y-129885741D01*
X59538096Y-129885741D01*
X59442858Y-129933360D01*
X59395239Y-129980979D01*
X59347620Y-130076217D01*
X59347620Y-130361931D01*
X59395239Y-130457169D01*
X59442858Y-130504788D01*
X59538096Y-130552407D01*
X59680953Y-130552407D01*
X58919048Y-130552407D02*
X58919048Y-129552407D01*
X58490477Y-130552407D02*
X58490477Y-130028598D01*
X58538096Y-129933360D01*
X58633334Y-129885741D01*
X58776191Y-129885741D01*
X58871429Y-129933360D01*
X58919048Y-129980979D01*
X58014286Y-130552407D02*
X58014286Y-129885741D01*
X58014286Y-129552407D02*
X58061905Y-129600027D01*
X58014286Y-129647646D01*
X57966667Y-129600027D01*
X58014286Y-129552407D01*
X58014286Y-129647646D01*
X57538096Y-129885741D02*
X57538096Y-130885741D01*
X57538096Y-129933360D02*
X57442858Y-129885741D01*
X57252381Y-129885741D01*
X57157143Y-129933360D01*
X57109524Y-129980979D01*
X57061905Y-130076217D01*
X57061905Y-130361931D01*
X57109524Y-130457169D01*
X57157143Y-130504788D01*
X57252381Y-130552407D01*
X57442858Y-130552407D01*
X57538096Y-130504788D01*
X56633334Y-129885741D02*
X56633334Y-130885741D01*
X56633334Y-129933360D02*
X56538096Y-129885741D01*
X56347620Y-129885741D01*
X56252381Y-129933360D01*
X56204762Y-129980979D01*
X56157143Y-130076217D01*
X56157143Y-130361931D01*
X56204762Y-130457169D01*
X56252381Y-130504788D01*
X56347620Y-130552407D01*
X56538096Y-130552407D01*
X56633334Y-130504788D01*
X55585715Y-130552407D02*
X55680953Y-130504788D01*
X55728572Y-130457169D01*
X55776191Y-130361931D01*
X55776191Y-130076217D01*
X55728572Y-129980979D01*
X55680953Y-129933360D01*
X55585715Y-129885741D01*
X55442858Y-129885741D01*
X55347620Y-129933360D01*
X55300001Y-129980979D01*
X55252381Y-130076217D01*
X55252381Y-130361931D01*
X55300001Y-130457169D01*
X55347620Y-130504788D01*
X55442858Y-130552407D01*
X55585715Y-130552407D01*
D12*
X61885715Y-129142884D02*
X61885715Y-127942884D01*
X61428572Y-127942884D01*
X61314286Y-128000027D01*
X61257143Y-128057169D01*
X61200001Y-128171455D01*
X61200001Y-128342884D01*
X61257143Y-128457169D01*
X61314286Y-128514312D01*
X61428572Y-128571455D01*
X61885715Y-128571455D01*
X60457143Y-127942884D02*
X60228572Y-127942884D01*
X60114286Y-128000027D01*
X60000001Y-128114312D01*
X59942858Y-128342884D01*
X59942858Y-128742884D01*
X60000001Y-128971455D01*
X60114286Y-129085741D01*
X60228572Y-129142884D01*
X60457143Y-129142884D01*
X60571429Y-129085741D01*
X60685715Y-128971455D01*
X60742858Y-128742884D01*
X60742858Y-128342884D01*
X60685715Y-128114312D01*
X60571429Y-128000027D01*
X60457143Y-127942884D01*
X58800001Y-128000027D02*
X58914286Y-127942884D01*
X59085715Y-127942884D01*
X59257143Y-128000027D01*
X59371429Y-128114312D01*
X59428572Y-128228598D01*
X59485715Y-128457169D01*
X59485715Y-128628598D01*
X59428572Y-128857169D01*
X59371429Y-128971455D01*
X59257143Y-129085741D01*
X59085715Y-129142884D01*
X58971429Y-129142884D01*
X58800001Y-129085741D01*
X58742858Y-129028598D01*
X58742858Y-128628598D01*
X58971429Y-128628598D01*
X58000001Y-127942884D02*
X57771429Y-127942884D01*
X57657143Y-128000027D01*
X57542858Y-128114312D01*
X57485715Y-128342884D01*
X57485715Y-128742884D01*
X57542858Y-128971455D01*
X57657143Y-129085741D01*
X57771429Y-129142884D01*
X58000001Y-129142884D01*
X58114286Y-129085741D01*
X58228572Y-128971455D01*
X58285715Y-128742884D01*
X58285715Y-128342884D01*
X58228572Y-128114312D01*
X58114286Y-128000027D01*
X58000001Y-127942884D01*
X56057143Y-129142884D02*
X56057143Y-127942884D01*
X55542858Y-129085741D02*
X55371429Y-129142884D01*
X55085715Y-129142884D01*
X54971429Y-129085741D01*
X54914286Y-129028598D01*
X54857143Y-128914312D01*
X54857143Y-128800027D01*
X54914286Y-128685741D01*
X54971429Y-128628598D01*
X55085715Y-128571455D01*
X55314286Y-128514312D01*
X55428572Y-128457169D01*
X55485715Y-128400027D01*
X55542858Y-128285741D01*
X55542858Y-128171455D01*
X55485715Y-128057169D01*
X55428572Y-128000027D01*
X55314286Y-127942884D01*
X55028572Y-127942884D01*
X54857143Y-128000027D01*
X54342858Y-129142884D02*
X54342858Y-127942884D01*
X53885715Y-127942884D01*
X53771429Y-128000027D01*
X53714286Y-128057169D01*
X53657143Y-128171455D01*
X53657143Y-128342884D01*
X53714286Y-128457169D01*
X53771429Y-128514312D01*
X53885715Y-128571455D01*
X54342858Y-128571455D01*
D13*
X61960143Y-126691884D02*
X61103001Y-126691884D01*
X60931572Y-126749027D01*
X60817286Y-126863312D01*
X60760143Y-127034741D01*
X60760143Y-127149027D01*
X60760143Y-125549027D02*
X60760143Y-126120455D01*
X61960143Y-126120455D01*
X60874429Y-124463312D02*
X60817286Y-124520455D01*
X60760143Y-124691884D01*
X60760143Y-124806169D01*
X60817286Y-124977598D01*
X60931572Y-125091884D01*
X61045858Y-125149027D01*
X61274429Y-125206169D01*
X61445858Y-125206169D01*
X61674429Y-125149027D01*
X61788715Y-125091884D01*
X61903001Y-124977598D01*
X61960143Y-124806169D01*
X61960143Y-124691884D01*
X61903001Y-124520455D01*
X61845858Y-124463312D01*
X61960143Y-123606169D02*
X61103001Y-123606169D01*
X60931572Y-123663312D01*
X60817286Y-123777598D01*
X60760143Y-123949027D01*
X60760143Y-124063312D01*
X60760143Y-122463312D02*
X60760143Y-123034741D01*
X61960143Y-123034741D01*
X60874429Y-121377598D02*
X60817286Y-121434741D01*
X60760143Y-121606169D01*
X60760143Y-121720455D01*
X60817286Y-121891884D01*
X60931572Y-122006169D01*
X61045858Y-122063312D01*
X61274429Y-122120455D01*
X61445858Y-122120455D01*
X61674429Y-122063312D01*
X61788715Y-122006169D01*
X61903001Y-121891884D01*
X61960143Y-121720455D01*
X61960143Y-121606169D01*
X61903001Y-121434741D01*
X61845858Y-121377598D01*
X61960143Y-120520455D02*
X61103001Y-120520455D01*
X60931572Y-120577598D01*
X60817286Y-120691884D01*
X60760143Y-120863312D01*
X60760143Y-120977598D01*
X60760143Y-119377598D02*
X60760143Y-119949027D01*
X61960143Y-119949027D01*
X60874429Y-118291884D02*
X60817286Y-118349027D01*
X60760143Y-118520455D01*
X60760143Y-118634741D01*
X60817286Y-118806169D01*
X60931572Y-118920455D01*
X61045858Y-118977598D01*
X61274429Y-119034741D01*
X61445858Y-119034741D01*
X61674429Y-118977598D01*
X61788715Y-118920455D01*
X61903001Y-118806169D01*
X61960143Y-118634741D01*
X61960143Y-118520455D01*
X61903001Y-118349027D01*
X61845858Y-118291884D01*
X61960143Y-117434741D02*
X61103001Y-117434741D01*
X60931572Y-117491884D01*
X60817286Y-117606169D01*
X60760143Y-117777598D01*
X60760143Y-117891884D01*
X60760143Y-116291884D02*
X60760143Y-116863312D01*
X61960143Y-116863312D01*
X60874429Y-115206169D02*
X60817286Y-115263312D01*
X60760143Y-115434741D01*
X60760143Y-115549027D01*
X60817286Y-115720455D01*
X60931572Y-115834741D01*
X61045858Y-115891884D01*
X61274429Y-115949027D01*
X61445858Y-115949027D01*
X61674429Y-115891884D01*
X61788715Y-115834741D01*
X61903001Y-115720455D01*
X61960143Y-115549027D01*
X61960143Y-115434741D01*
X61903001Y-115263312D01*
X61845858Y-115206169D01*
D11*
X138313871Y-102052394D02*
X138313871Y-101385728D01*
X138313871Y-101052394D02*
X138361490Y-101100014D01*
X138313871Y-101147633D01*
X138266251Y-101100014D01*
X138313871Y-101052394D01*
X138313871Y-101147633D01*
X137694823Y-102052394D02*
X137790061Y-102004775D01*
X137837680Y-101957156D01*
X137885299Y-101861918D01*
X137885299Y-101576204D01*
X137837680Y-101480966D01*
X137790061Y-101433347D01*
X137694823Y-101385728D01*
X137551966Y-101385728D01*
X137456728Y-101433347D01*
X137409109Y-101480966D01*
X137361490Y-101576204D01*
X137361490Y-101861918D01*
X137409109Y-101957156D01*
X137456728Y-102004775D01*
X137551966Y-102052394D01*
X137694823Y-102052394D01*
X136932918Y-102052394D02*
X136932918Y-101052394D01*
X136504347Y-102052394D02*
X136504347Y-101528585D01*
X136551966Y-101433347D01*
X136647204Y-101385728D01*
X136790061Y-101385728D01*
X136885299Y-101433347D01*
X136932918Y-101480966D01*
X136028156Y-102052394D02*
X136028156Y-101385728D01*
X136028156Y-101052394D02*
X136075775Y-101100014D01*
X136028156Y-101147633D01*
X135980537Y-101100014D01*
X136028156Y-101052394D01*
X136028156Y-101147633D01*
X135551966Y-101385728D02*
X135551966Y-102385728D01*
X135551966Y-101433347D02*
X135456728Y-101385728D01*
X135266251Y-101385728D01*
X135171013Y-101433347D01*
X135123394Y-101480966D01*
X135075775Y-101576204D01*
X135075775Y-101861918D01*
X135123394Y-101957156D01*
X135171013Y-102004775D01*
X135266251Y-102052394D01*
X135456728Y-102052394D01*
X135551966Y-102004775D01*
X134647204Y-101385728D02*
X134647204Y-102385728D01*
X134647204Y-101433347D02*
X134551966Y-101385728D01*
X134361490Y-101385728D01*
X134266251Y-101433347D01*
X134218632Y-101480966D01*
X134171013Y-101576204D01*
X134171013Y-101861918D01*
X134218632Y-101957156D01*
X134266251Y-102004775D01*
X134361490Y-102052394D01*
X134551966Y-102052394D01*
X134647204Y-102004775D01*
X133599585Y-102052394D02*
X133694823Y-102004775D01*
X133742442Y-101957156D01*
X133790061Y-101861918D01*
X133790061Y-101576204D01*
X133742442Y-101480966D01*
X133694823Y-101433347D01*
X133599585Y-101385728D01*
X133456728Y-101385728D01*
X133361490Y-101433347D01*
X133313871Y-101480966D01*
X133266251Y-101576204D01*
X133266251Y-101861918D01*
X133313871Y-101957156D01*
X133361490Y-102004775D01*
X133456728Y-102052394D01*
X133599585Y-102052394D01*
D12*
X139899585Y-100642871D02*
X139899585Y-99442871D01*
X139442442Y-99442871D01*
X139328156Y-99500014D01*
X139271013Y-99557156D01*
X139213871Y-99671442D01*
X139213871Y-99842871D01*
X139271013Y-99957156D01*
X139328156Y-100014299D01*
X139442442Y-100071442D01*
X139899585Y-100071442D01*
X138471013Y-99442871D02*
X138242442Y-99442871D01*
X138128156Y-99500014D01*
X138013871Y-99614299D01*
X137956728Y-99842871D01*
X137956728Y-100242871D01*
X138013871Y-100471442D01*
X138128156Y-100585728D01*
X138242442Y-100642871D01*
X138471013Y-100642871D01*
X138585299Y-100585728D01*
X138699585Y-100471442D01*
X138756728Y-100242871D01*
X138756728Y-99842871D01*
X138699585Y-99614299D01*
X138585299Y-99500014D01*
X138471013Y-99442871D01*
X136813871Y-99500014D02*
X136928156Y-99442871D01*
X137099585Y-99442871D01*
X137271013Y-99500014D01*
X137385299Y-99614299D01*
X137442442Y-99728585D01*
X137499585Y-99957156D01*
X137499585Y-100128585D01*
X137442442Y-100357156D01*
X137385299Y-100471442D01*
X137271013Y-100585728D01*
X137099585Y-100642871D01*
X136985299Y-100642871D01*
X136813871Y-100585728D01*
X136756728Y-100528585D01*
X136756728Y-100128585D01*
X136985299Y-100128585D01*
X136013871Y-99442871D02*
X135785299Y-99442871D01*
X135671013Y-99500014D01*
X135556728Y-99614299D01*
X135499585Y-99842871D01*
X135499585Y-100242871D01*
X135556728Y-100471442D01*
X135671013Y-100585728D01*
X135785299Y-100642871D01*
X136013871Y-100642871D01*
X136128156Y-100585728D01*
X136242442Y-100471442D01*
X136299585Y-100242871D01*
X136299585Y-99842871D01*
X136242442Y-99614299D01*
X136128156Y-99500014D01*
X136013871Y-99442871D01*
X134071013Y-100642871D02*
X134071013Y-99442871D01*
X133556728Y-100585728D02*
X133385299Y-100642871D01*
X133099585Y-100642871D01*
X132985299Y-100585728D01*
X132928156Y-100528585D01*
X132871013Y-100414299D01*
X132871013Y-100300014D01*
X132928156Y-100185728D01*
X132985299Y-100128585D01*
X133099585Y-100071442D01*
X133328156Y-100014299D01*
X133442442Y-99957156D01*
X133499585Y-99900014D01*
X133556728Y-99785728D01*
X133556728Y-99671442D01*
X133499585Y-99557156D01*
X133442442Y-99500014D01*
X133328156Y-99442871D01*
X133042442Y-99442871D01*
X132871013Y-99500014D01*
X132356728Y-100642871D02*
X132356728Y-99442871D01*
X131899585Y-99442871D01*
X131785299Y-99500014D01*
X131728156Y-99557156D01*
X131671013Y-99671442D01*
X131671013Y-99842871D01*
X131728156Y-99957156D01*
X131785299Y-100014299D01*
X131899585Y-100071442D01*
X132356728Y-100071442D01*
D13*
X139974013Y-98191871D02*
X139116871Y-98191871D01*
X138945442Y-98249014D01*
X138831156Y-98363299D01*
X138774013Y-98534728D01*
X138774013Y-98649014D01*
X138774013Y-97049014D02*
X138774013Y-97620442D01*
X139974013Y-97620442D01*
X138888299Y-95963299D02*
X138831156Y-96020442D01*
X138774013Y-96191871D01*
X138774013Y-96306156D01*
X138831156Y-96477585D01*
X138945442Y-96591871D01*
X139059728Y-96649014D01*
X139288299Y-96706156D01*
X139459728Y-96706156D01*
X139688299Y-96649014D01*
X139802585Y-96591871D01*
X139916871Y-96477585D01*
X139974013Y-96306156D01*
X139974013Y-96191871D01*
X139916871Y-96020442D01*
X139859728Y-95963299D01*
X139974013Y-95106156D02*
X139116871Y-95106156D01*
X138945442Y-95163299D01*
X138831156Y-95277585D01*
X138774013Y-95449014D01*
X138774013Y-95563299D01*
X138774013Y-93963299D02*
X138774013Y-94534728D01*
X139974013Y-94534728D01*
X138888299Y-92877585D02*
X138831156Y-92934728D01*
X138774013Y-93106156D01*
X138774013Y-93220442D01*
X138831156Y-93391871D01*
X138945442Y-93506156D01*
X139059728Y-93563299D01*
X139288299Y-93620442D01*
X139459728Y-93620442D01*
X139688299Y-93563299D01*
X139802585Y-93506156D01*
X139916871Y-93391871D01*
X139974013Y-93220442D01*
X139974013Y-93106156D01*
X139916871Y-92934728D01*
X139859728Y-92877585D01*
X139974013Y-92020442D02*
X139116871Y-92020442D01*
X138945442Y-92077585D01*
X138831156Y-92191871D01*
X138774013Y-92363299D01*
X138774013Y-92477585D01*
X138774013Y-90877585D02*
X138774013Y-91449014D01*
X139974013Y-91449014D01*
X138888299Y-89791871D02*
X138831156Y-89849014D01*
X138774013Y-90020442D01*
X138774013Y-90134728D01*
X138831156Y-90306156D01*
X138945442Y-90420442D01*
X139059728Y-90477585D01*
X139288299Y-90534728D01*
X139459728Y-90534728D01*
X139688299Y-90477585D01*
X139802585Y-90420442D01*
X139916871Y-90306156D01*
X139974013Y-90134728D01*
X139974013Y-90020442D01*
X139916871Y-89849014D01*
X139859728Y-89791871D01*
X139974013Y-88934728D02*
X139116871Y-88934728D01*
X138945442Y-88991871D01*
X138831156Y-89106156D01*
X138774013Y-89277585D01*
X138774013Y-89391871D01*
X138774013Y-87791871D02*
X138774013Y-88363299D01*
X139974013Y-88363299D01*
X138888299Y-86706156D02*
X138831156Y-86763299D01*
X138774013Y-86934728D01*
X138774013Y-87049014D01*
X138831156Y-87220442D01*
X138945442Y-87334728D01*
X139059728Y-87391871D01*
X139288299Y-87449014D01*
X139459728Y-87449014D01*
X139688299Y-87391871D01*
X139802585Y-87334728D01*
X139916871Y-87220442D01*
X139974013Y-87049014D01*
X139974013Y-86934728D01*
X139916871Y-86763299D01*
X139859728Y-86706156D01*
D11*
X122711097Y-102052394D02*
X122711097Y-101385728D01*
X122711097Y-101052394D02*
X122758716Y-101100014D01*
X122711097Y-101147633D01*
X122663477Y-101100014D01*
X122711097Y-101052394D01*
X122711097Y-101147633D01*
X122092049Y-102052394D02*
X122187287Y-102004775D01*
X122234906Y-101957156D01*
X122282525Y-101861918D01*
X122282525Y-101576204D01*
X122234906Y-101480966D01*
X122187287Y-101433347D01*
X122092049Y-101385728D01*
X121949192Y-101385728D01*
X121853954Y-101433347D01*
X121806335Y-101480966D01*
X121758716Y-101576204D01*
X121758716Y-101861918D01*
X121806335Y-101957156D01*
X121853954Y-102004775D01*
X121949192Y-102052394D01*
X122092049Y-102052394D01*
X121330144Y-102052394D02*
X121330144Y-101052394D01*
X120901573Y-102052394D02*
X120901573Y-101528585D01*
X120949192Y-101433347D01*
X121044430Y-101385728D01*
X121187287Y-101385728D01*
X121282525Y-101433347D01*
X121330144Y-101480966D01*
X120425382Y-102052394D02*
X120425382Y-101385728D01*
X120425382Y-101052394D02*
X120473001Y-101100014D01*
X120425382Y-101147633D01*
X120377763Y-101100014D01*
X120425382Y-101052394D01*
X120425382Y-101147633D01*
X119949192Y-101385728D02*
X119949192Y-102385728D01*
X119949192Y-101433347D02*
X119853954Y-101385728D01*
X119663477Y-101385728D01*
X119568239Y-101433347D01*
X119520620Y-101480966D01*
X119473001Y-101576204D01*
X119473001Y-101861918D01*
X119520620Y-101957156D01*
X119568239Y-102004775D01*
X119663477Y-102052394D01*
X119853954Y-102052394D01*
X119949192Y-102004775D01*
X119044430Y-101385728D02*
X119044430Y-102385728D01*
X119044430Y-101433347D02*
X118949192Y-101385728D01*
X118758716Y-101385728D01*
X118663477Y-101433347D01*
X118615858Y-101480966D01*
X118568239Y-101576204D01*
X118568239Y-101861918D01*
X118615858Y-101957156D01*
X118663477Y-102004775D01*
X118758716Y-102052394D01*
X118949192Y-102052394D01*
X119044430Y-102004775D01*
X117996811Y-102052394D02*
X118092049Y-102004775D01*
X118139668Y-101957156D01*
X118187287Y-101861918D01*
X118187287Y-101576204D01*
X118139668Y-101480966D01*
X118092049Y-101433347D01*
X117996811Y-101385728D01*
X117853954Y-101385728D01*
X117758716Y-101433347D01*
X117711097Y-101480966D01*
X117663477Y-101576204D01*
X117663477Y-101861918D01*
X117711097Y-101957156D01*
X117758716Y-102004775D01*
X117853954Y-102052394D01*
X117996811Y-102052394D01*
D12*
X124296811Y-100642871D02*
X124296811Y-99442871D01*
X123839668Y-99442871D01*
X123725382Y-99500014D01*
X123668239Y-99557156D01*
X123611097Y-99671442D01*
X123611097Y-99842871D01*
X123668239Y-99957156D01*
X123725382Y-100014299D01*
X123839668Y-100071442D01*
X124296811Y-100071442D01*
X122868239Y-99442871D02*
X122639668Y-99442871D01*
X122525382Y-99500014D01*
X122411097Y-99614299D01*
X122353954Y-99842871D01*
X122353954Y-100242871D01*
X122411097Y-100471442D01*
X122525382Y-100585728D01*
X122639668Y-100642871D01*
X122868239Y-100642871D01*
X122982525Y-100585728D01*
X123096811Y-100471442D01*
X123153954Y-100242871D01*
X123153954Y-99842871D01*
X123096811Y-99614299D01*
X122982525Y-99500014D01*
X122868239Y-99442871D01*
X121211097Y-99500014D02*
X121325382Y-99442871D01*
X121496811Y-99442871D01*
X121668239Y-99500014D01*
X121782525Y-99614299D01*
X121839668Y-99728585D01*
X121896811Y-99957156D01*
X121896811Y-100128585D01*
X121839668Y-100357156D01*
X121782525Y-100471442D01*
X121668239Y-100585728D01*
X121496811Y-100642871D01*
X121382525Y-100642871D01*
X121211097Y-100585728D01*
X121153954Y-100528585D01*
X121153954Y-100128585D01*
X121382525Y-100128585D01*
X120411097Y-99442871D02*
X120182525Y-99442871D01*
X120068239Y-99500014D01*
X119953954Y-99614299D01*
X119896811Y-99842871D01*
X119896811Y-100242871D01*
X119953954Y-100471442D01*
X120068239Y-100585728D01*
X120182525Y-100642871D01*
X120411097Y-100642871D01*
X120525382Y-100585728D01*
X120639668Y-100471442D01*
X120696811Y-100242871D01*
X120696811Y-99842871D01*
X120639668Y-99614299D01*
X120525382Y-99500014D01*
X120411097Y-99442871D01*
X118468239Y-100642871D02*
X118468239Y-99442871D01*
X117953954Y-100585728D02*
X117782525Y-100642871D01*
X117496811Y-100642871D01*
X117382525Y-100585728D01*
X117325382Y-100528585D01*
X117268239Y-100414299D01*
X117268239Y-100300014D01*
X117325382Y-100185728D01*
X117382525Y-100128585D01*
X117496811Y-100071442D01*
X117725382Y-100014299D01*
X117839668Y-99957156D01*
X117896811Y-99900014D01*
X117953954Y-99785728D01*
X117953954Y-99671442D01*
X117896811Y-99557156D01*
X117839668Y-99500014D01*
X117725382Y-99442871D01*
X117439668Y-99442871D01*
X117268239Y-99500014D01*
X116753954Y-100642871D02*
X116753954Y-99442871D01*
X116296811Y-99442871D01*
X116182525Y-99500014D01*
X116125382Y-99557156D01*
X116068239Y-99671442D01*
X116068239Y-99842871D01*
X116125382Y-99957156D01*
X116182525Y-100014299D01*
X116296811Y-100071442D01*
X116753954Y-100071442D01*
D13*
X124371239Y-98191871D02*
X123514097Y-98191871D01*
X123342668Y-98249014D01*
X123228382Y-98363299D01*
X123171239Y-98534728D01*
X123171239Y-98649014D01*
X123171239Y-97049014D02*
X123171239Y-97620442D01*
X124371239Y-97620442D01*
X123285525Y-95963299D02*
X123228382Y-96020442D01*
X123171239Y-96191871D01*
X123171239Y-96306156D01*
X123228382Y-96477585D01*
X123342668Y-96591871D01*
X123456954Y-96649014D01*
X123685525Y-96706156D01*
X123856954Y-96706156D01*
X124085525Y-96649014D01*
X124199811Y-96591871D01*
X124314097Y-96477585D01*
X124371239Y-96306156D01*
X124371239Y-96191871D01*
X124314097Y-96020442D01*
X124256954Y-95963299D01*
X124371239Y-95106156D02*
X123514097Y-95106156D01*
X123342668Y-95163299D01*
X123228382Y-95277585D01*
X123171239Y-95449014D01*
X123171239Y-95563299D01*
X123171239Y-93963299D02*
X123171239Y-94534728D01*
X124371239Y-94534728D01*
X123285525Y-92877585D02*
X123228382Y-92934728D01*
X123171239Y-93106156D01*
X123171239Y-93220442D01*
X123228382Y-93391871D01*
X123342668Y-93506156D01*
X123456954Y-93563299D01*
X123685525Y-93620442D01*
X123856954Y-93620442D01*
X124085525Y-93563299D01*
X124199811Y-93506156D01*
X124314097Y-93391871D01*
X124371239Y-93220442D01*
X124371239Y-93106156D01*
X124314097Y-92934728D01*
X124256954Y-92877585D01*
X124371239Y-92020442D02*
X123514097Y-92020442D01*
X123342668Y-92077585D01*
X123228382Y-92191871D01*
X123171239Y-92363299D01*
X123171239Y-92477585D01*
X123171239Y-90877585D02*
X123171239Y-91449014D01*
X124371239Y-91449014D01*
X123285525Y-89791871D02*
X123228382Y-89849014D01*
X123171239Y-90020442D01*
X123171239Y-90134728D01*
X123228382Y-90306156D01*
X123342668Y-90420442D01*
X123456954Y-90477585D01*
X123685525Y-90534728D01*
X123856954Y-90534728D01*
X124085525Y-90477585D01*
X124199811Y-90420442D01*
X124314097Y-90306156D01*
X124371239Y-90134728D01*
X124371239Y-90020442D01*
X124314097Y-89849014D01*
X124256954Y-89791871D01*
X124371239Y-88934728D02*
X123514097Y-88934728D01*
X123342668Y-88991871D01*
X123228382Y-89106156D01*
X123171239Y-89277585D01*
X123171239Y-89391871D01*
X123171239Y-87791871D02*
X123171239Y-88363299D01*
X124371239Y-88363299D01*
X123285525Y-86706156D02*
X123228382Y-86763299D01*
X123171239Y-86934728D01*
X123171239Y-87049014D01*
X123228382Y-87220442D01*
X123342668Y-87334728D01*
X123456954Y-87391871D01*
X123685525Y-87449014D01*
X123856954Y-87449014D01*
X124085525Y-87391871D01*
X124199811Y-87334728D01*
X124314097Y-87220442D01*
X124371239Y-87049014D01*
X124371239Y-86934728D01*
X124314097Y-86763299D01*
X124256954Y-86706156D01*
D11*
X107108323Y-102052394D02*
X107108323Y-101385728D01*
X107108323Y-101052394D02*
X107155942Y-101100014D01*
X107108323Y-101147633D01*
X107060703Y-101100014D01*
X107108323Y-101052394D01*
X107108323Y-101147633D01*
X106489275Y-102052394D02*
X106584513Y-102004775D01*
X106632132Y-101957156D01*
X106679751Y-101861918D01*
X106679751Y-101576204D01*
X106632132Y-101480966D01*
X106584513Y-101433347D01*
X106489275Y-101385728D01*
X106346418Y-101385728D01*
X106251180Y-101433347D01*
X106203561Y-101480966D01*
X106155942Y-101576204D01*
X106155942Y-101861918D01*
X106203561Y-101957156D01*
X106251180Y-102004775D01*
X106346418Y-102052394D01*
X106489275Y-102052394D01*
X105727370Y-102052394D02*
X105727370Y-101052394D01*
X105298799Y-102052394D02*
X105298799Y-101528585D01*
X105346418Y-101433347D01*
X105441656Y-101385728D01*
X105584513Y-101385728D01*
X105679751Y-101433347D01*
X105727370Y-101480966D01*
X104822608Y-102052394D02*
X104822608Y-101385728D01*
X104822608Y-101052394D02*
X104870227Y-101100014D01*
X104822608Y-101147633D01*
X104774989Y-101100014D01*
X104822608Y-101052394D01*
X104822608Y-101147633D01*
X104346418Y-101385728D02*
X104346418Y-102385728D01*
X104346418Y-101433347D02*
X104251180Y-101385728D01*
X104060703Y-101385728D01*
X103965465Y-101433347D01*
X103917846Y-101480966D01*
X103870227Y-101576204D01*
X103870227Y-101861918D01*
X103917846Y-101957156D01*
X103965465Y-102004775D01*
X104060703Y-102052394D01*
X104251180Y-102052394D01*
X104346418Y-102004775D01*
X103441656Y-101385728D02*
X103441656Y-102385728D01*
X103441656Y-101433347D02*
X103346418Y-101385728D01*
X103155942Y-101385728D01*
X103060703Y-101433347D01*
X103013084Y-101480966D01*
X102965465Y-101576204D01*
X102965465Y-101861918D01*
X103013084Y-101957156D01*
X103060703Y-102004775D01*
X103155942Y-102052394D01*
X103346418Y-102052394D01*
X103441656Y-102004775D01*
X102394037Y-102052394D02*
X102489275Y-102004775D01*
X102536894Y-101957156D01*
X102584513Y-101861918D01*
X102584513Y-101576204D01*
X102536894Y-101480966D01*
X102489275Y-101433347D01*
X102394037Y-101385728D01*
X102251180Y-101385728D01*
X102155942Y-101433347D01*
X102108323Y-101480966D01*
X102060703Y-101576204D01*
X102060703Y-101861918D01*
X102108323Y-101957156D01*
X102155942Y-102004775D01*
X102251180Y-102052394D01*
X102394037Y-102052394D01*
D12*
X108694037Y-100642871D02*
X108694037Y-99442871D01*
X108236894Y-99442871D01*
X108122608Y-99500014D01*
X108065465Y-99557156D01*
X108008323Y-99671442D01*
X108008323Y-99842871D01*
X108065465Y-99957156D01*
X108122608Y-100014299D01*
X108236894Y-100071442D01*
X108694037Y-100071442D01*
X107265465Y-99442871D02*
X107036894Y-99442871D01*
X106922608Y-99500014D01*
X106808323Y-99614299D01*
X106751180Y-99842871D01*
X106751180Y-100242871D01*
X106808323Y-100471442D01*
X106922608Y-100585728D01*
X107036894Y-100642871D01*
X107265465Y-100642871D01*
X107379751Y-100585728D01*
X107494037Y-100471442D01*
X107551180Y-100242871D01*
X107551180Y-99842871D01*
X107494037Y-99614299D01*
X107379751Y-99500014D01*
X107265465Y-99442871D01*
X105608323Y-99500014D02*
X105722608Y-99442871D01*
X105894037Y-99442871D01*
X106065465Y-99500014D01*
X106179751Y-99614299D01*
X106236894Y-99728585D01*
X106294037Y-99957156D01*
X106294037Y-100128585D01*
X106236894Y-100357156D01*
X106179751Y-100471442D01*
X106065465Y-100585728D01*
X105894037Y-100642871D01*
X105779751Y-100642871D01*
X105608323Y-100585728D01*
X105551180Y-100528585D01*
X105551180Y-100128585D01*
X105779751Y-100128585D01*
X104808323Y-99442871D02*
X104579751Y-99442871D01*
X104465465Y-99500014D01*
X104351180Y-99614299D01*
X104294037Y-99842871D01*
X104294037Y-100242871D01*
X104351180Y-100471442D01*
X104465465Y-100585728D01*
X104579751Y-100642871D01*
X104808323Y-100642871D01*
X104922608Y-100585728D01*
X105036894Y-100471442D01*
X105094037Y-100242871D01*
X105094037Y-99842871D01*
X105036894Y-99614299D01*
X104922608Y-99500014D01*
X104808323Y-99442871D01*
X102865465Y-100642871D02*
X102865465Y-99442871D01*
X102351180Y-100585728D02*
X102179751Y-100642871D01*
X101894037Y-100642871D01*
X101779751Y-100585728D01*
X101722608Y-100528585D01*
X101665465Y-100414299D01*
X101665465Y-100300014D01*
X101722608Y-100185728D01*
X101779751Y-100128585D01*
X101894037Y-100071442D01*
X102122608Y-100014299D01*
X102236894Y-99957156D01*
X102294037Y-99900014D01*
X102351180Y-99785728D01*
X102351180Y-99671442D01*
X102294037Y-99557156D01*
X102236894Y-99500014D01*
X102122608Y-99442871D01*
X101836894Y-99442871D01*
X101665465Y-99500014D01*
X101151180Y-100642871D02*
X101151180Y-99442871D01*
X100694037Y-99442871D01*
X100579751Y-99500014D01*
X100522608Y-99557156D01*
X100465465Y-99671442D01*
X100465465Y-99842871D01*
X100522608Y-99957156D01*
X100579751Y-100014299D01*
X100694037Y-100071442D01*
X101151180Y-100071442D01*
D13*
X108768465Y-98191871D02*
X107911323Y-98191871D01*
X107739894Y-98249014D01*
X107625608Y-98363299D01*
X107568465Y-98534728D01*
X107568465Y-98649014D01*
X107568465Y-97049014D02*
X107568465Y-97620442D01*
X108768465Y-97620442D01*
X107682751Y-95963299D02*
X107625608Y-96020442D01*
X107568465Y-96191871D01*
X107568465Y-96306156D01*
X107625608Y-96477585D01*
X107739894Y-96591871D01*
X107854180Y-96649014D01*
X108082751Y-96706156D01*
X108254180Y-96706156D01*
X108482751Y-96649014D01*
X108597037Y-96591871D01*
X108711323Y-96477585D01*
X108768465Y-96306156D01*
X108768465Y-96191871D01*
X108711323Y-96020442D01*
X108654180Y-95963299D01*
X108768465Y-95106156D02*
X107911323Y-95106156D01*
X107739894Y-95163299D01*
X107625608Y-95277585D01*
X107568465Y-95449014D01*
X107568465Y-95563299D01*
X107568465Y-93963299D02*
X107568465Y-94534728D01*
X108768465Y-94534728D01*
X107682751Y-92877585D02*
X107625608Y-92934728D01*
X107568465Y-93106156D01*
X107568465Y-93220442D01*
X107625608Y-93391871D01*
X107739894Y-93506156D01*
X107854180Y-93563299D01*
X108082751Y-93620442D01*
X108254180Y-93620442D01*
X108482751Y-93563299D01*
X108597037Y-93506156D01*
X108711323Y-93391871D01*
X108768465Y-93220442D01*
X108768465Y-93106156D01*
X108711323Y-92934728D01*
X108654180Y-92877585D01*
X108768465Y-92020442D02*
X107911323Y-92020442D01*
X107739894Y-92077585D01*
X107625608Y-92191871D01*
X107568465Y-92363299D01*
X107568465Y-92477585D01*
X107568465Y-90877585D02*
X107568465Y-91449014D01*
X108768465Y-91449014D01*
X107682751Y-89791871D02*
X107625608Y-89849014D01*
X107568465Y-90020442D01*
X107568465Y-90134728D01*
X107625608Y-90306156D01*
X107739894Y-90420442D01*
X107854180Y-90477585D01*
X108082751Y-90534728D01*
X108254180Y-90534728D01*
X108482751Y-90477585D01*
X108597037Y-90420442D01*
X108711323Y-90306156D01*
X108768465Y-90134728D01*
X108768465Y-90020442D01*
X108711323Y-89849014D01*
X108654180Y-89791871D01*
X108768465Y-88934728D02*
X107911323Y-88934728D01*
X107739894Y-88991871D01*
X107625608Y-89106156D01*
X107568465Y-89277585D01*
X107568465Y-89391871D01*
X107568465Y-87791871D02*
X107568465Y-88363299D01*
X108768465Y-88363299D01*
X107682751Y-86706156D02*
X107625608Y-86763299D01*
X107568465Y-86934728D01*
X107568465Y-87049014D01*
X107625608Y-87220442D01*
X107739894Y-87334728D01*
X107854180Y-87391871D01*
X108082751Y-87449014D01*
X108254180Y-87449014D01*
X108482751Y-87391871D01*
X108597037Y-87334728D01*
X108711323Y-87220442D01*
X108768465Y-87049014D01*
X108768465Y-86934728D01*
X108711323Y-86763299D01*
X108654180Y-86706156D01*
D11*
X91505549Y-102052394D02*
X91505549Y-101385728D01*
X91505549Y-101052394D02*
X91553168Y-101100014D01*
X91505549Y-101147633D01*
X91457929Y-101100014D01*
X91505549Y-101052394D01*
X91505549Y-101147633D01*
X90886501Y-102052394D02*
X90981739Y-102004775D01*
X91029358Y-101957156D01*
X91076977Y-101861918D01*
X91076977Y-101576204D01*
X91029358Y-101480966D01*
X90981739Y-101433347D01*
X90886501Y-101385728D01*
X90743644Y-101385728D01*
X90648406Y-101433347D01*
X90600787Y-101480966D01*
X90553168Y-101576204D01*
X90553168Y-101861918D01*
X90600787Y-101957156D01*
X90648406Y-102004775D01*
X90743644Y-102052394D01*
X90886501Y-102052394D01*
X90124596Y-102052394D02*
X90124596Y-101052394D01*
X89696025Y-102052394D02*
X89696025Y-101528585D01*
X89743644Y-101433347D01*
X89838882Y-101385728D01*
X89981739Y-101385728D01*
X90076977Y-101433347D01*
X90124596Y-101480966D01*
X89219834Y-102052394D02*
X89219834Y-101385728D01*
X89219834Y-101052394D02*
X89267453Y-101100014D01*
X89219834Y-101147633D01*
X89172215Y-101100014D01*
X89219834Y-101052394D01*
X89219834Y-101147633D01*
X88743644Y-101385728D02*
X88743644Y-102385728D01*
X88743644Y-101433347D02*
X88648406Y-101385728D01*
X88457929Y-101385728D01*
X88362691Y-101433347D01*
X88315072Y-101480966D01*
X88267453Y-101576204D01*
X88267453Y-101861918D01*
X88315072Y-101957156D01*
X88362691Y-102004775D01*
X88457929Y-102052394D01*
X88648406Y-102052394D01*
X88743644Y-102004775D01*
X87838882Y-101385728D02*
X87838882Y-102385728D01*
X87838882Y-101433347D02*
X87743644Y-101385728D01*
X87553168Y-101385728D01*
X87457929Y-101433347D01*
X87410310Y-101480966D01*
X87362691Y-101576204D01*
X87362691Y-101861918D01*
X87410310Y-101957156D01*
X87457929Y-102004775D01*
X87553168Y-102052394D01*
X87743644Y-102052394D01*
X87838882Y-102004775D01*
X86791263Y-102052394D02*
X86886501Y-102004775D01*
X86934120Y-101957156D01*
X86981739Y-101861918D01*
X86981739Y-101576204D01*
X86934120Y-101480966D01*
X86886501Y-101433347D01*
X86791263Y-101385728D01*
X86648406Y-101385728D01*
X86553168Y-101433347D01*
X86505549Y-101480966D01*
X86457929Y-101576204D01*
X86457929Y-101861918D01*
X86505549Y-101957156D01*
X86553168Y-102004775D01*
X86648406Y-102052394D01*
X86791263Y-102052394D01*
D12*
X93091263Y-100642871D02*
X93091263Y-99442871D01*
X92634120Y-99442871D01*
X92519834Y-99500014D01*
X92462691Y-99557156D01*
X92405549Y-99671442D01*
X92405549Y-99842871D01*
X92462691Y-99957156D01*
X92519834Y-100014299D01*
X92634120Y-100071442D01*
X93091263Y-100071442D01*
X91662691Y-99442871D02*
X91434120Y-99442871D01*
X91319834Y-99500014D01*
X91205549Y-99614299D01*
X91148406Y-99842871D01*
X91148406Y-100242871D01*
X91205549Y-100471442D01*
X91319834Y-100585728D01*
X91434120Y-100642871D01*
X91662691Y-100642871D01*
X91776977Y-100585728D01*
X91891263Y-100471442D01*
X91948406Y-100242871D01*
X91948406Y-99842871D01*
X91891263Y-99614299D01*
X91776977Y-99500014D01*
X91662691Y-99442871D01*
X90005549Y-99500014D02*
X90119834Y-99442871D01*
X90291263Y-99442871D01*
X90462691Y-99500014D01*
X90576977Y-99614299D01*
X90634120Y-99728585D01*
X90691263Y-99957156D01*
X90691263Y-100128585D01*
X90634120Y-100357156D01*
X90576977Y-100471442D01*
X90462691Y-100585728D01*
X90291263Y-100642871D01*
X90176977Y-100642871D01*
X90005549Y-100585728D01*
X89948406Y-100528585D01*
X89948406Y-100128585D01*
X90176977Y-100128585D01*
X89205549Y-99442871D02*
X88976977Y-99442871D01*
X88862691Y-99500014D01*
X88748406Y-99614299D01*
X88691263Y-99842871D01*
X88691263Y-100242871D01*
X88748406Y-100471442D01*
X88862691Y-100585728D01*
X88976977Y-100642871D01*
X89205549Y-100642871D01*
X89319834Y-100585728D01*
X89434120Y-100471442D01*
X89491263Y-100242871D01*
X89491263Y-99842871D01*
X89434120Y-99614299D01*
X89319834Y-99500014D01*
X89205549Y-99442871D01*
X87262691Y-100642871D02*
X87262691Y-99442871D01*
X86748406Y-100585728D02*
X86576977Y-100642871D01*
X86291263Y-100642871D01*
X86176977Y-100585728D01*
X86119834Y-100528585D01*
X86062691Y-100414299D01*
X86062691Y-100300014D01*
X86119834Y-100185728D01*
X86176977Y-100128585D01*
X86291263Y-100071442D01*
X86519834Y-100014299D01*
X86634120Y-99957156D01*
X86691263Y-99900014D01*
X86748406Y-99785728D01*
X86748406Y-99671442D01*
X86691263Y-99557156D01*
X86634120Y-99500014D01*
X86519834Y-99442871D01*
X86234120Y-99442871D01*
X86062691Y-99500014D01*
X85548406Y-100642871D02*
X85548406Y-99442871D01*
X85091263Y-99442871D01*
X84976977Y-99500014D01*
X84919834Y-99557156D01*
X84862691Y-99671442D01*
X84862691Y-99842871D01*
X84919834Y-99957156D01*
X84976977Y-100014299D01*
X85091263Y-100071442D01*
X85548406Y-100071442D01*
D13*
X93165691Y-98191871D02*
X92308549Y-98191871D01*
X92137120Y-98249014D01*
X92022834Y-98363299D01*
X91965691Y-98534728D01*
X91965691Y-98649014D01*
X91965691Y-97049014D02*
X91965691Y-97620442D01*
X93165691Y-97620442D01*
X92079977Y-95963299D02*
X92022834Y-96020442D01*
X91965691Y-96191871D01*
X91965691Y-96306156D01*
X92022834Y-96477585D01*
X92137120Y-96591871D01*
X92251406Y-96649014D01*
X92479977Y-96706156D01*
X92651406Y-96706156D01*
X92879977Y-96649014D01*
X92994263Y-96591871D01*
X93108549Y-96477585D01*
X93165691Y-96306156D01*
X93165691Y-96191871D01*
X93108549Y-96020442D01*
X93051406Y-95963299D01*
X93165691Y-95106156D02*
X92308549Y-95106156D01*
X92137120Y-95163299D01*
X92022834Y-95277585D01*
X91965691Y-95449014D01*
X91965691Y-95563299D01*
X91965691Y-93963299D02*
X91965691Y-94534728D01*
X93165691Y-94534728D01*
X92079977Y-92877585D02*
X92022834Y-92934728D01*
X91965691Y-93106156D01*
X91965691Y-93220442D01*
X92022834Y-93391871D01*
X92137120Y-93506156D01*
X92251406Y-93563299D01*
X92479977Y-93620442D01*
X92651406Y-93620442D01*
X92879977Y-93563299D01*
X92994263Y-93506156D01*
X93108549Y-93391871D01*
X93165691Y-93220442D01*
X93165691Y-93106156D01*
X93108549Y-92934728D01*
X93051406Y-92877585D01*
X93165691Y-92020442D02*
X92308549Y-92020442D01*
X92137120Y-92077585D01*
X92022834Y-92191871D01*
X91965691Y-92363299D01*
X91965691Y-92477585D01*
X91965691Y-90877585D02*
X91965691Y-91449014D01*
X93165691Y-91449014D01*
X92079977Y-89791871D02*
X92022834Y-89849014D01*
X91965691Y-90020442D01*
X91965691Y-90134728D01*
X92022834Y-90306156D01*
X92137120Y-90420442D01*
X92251406Y-90477585D01*
X92479977Y-90534728D01*
X92651406Y-90534728D01*
X92879977Y-90477585D01*
X92994263Y-90420442D01*
X93108549Y-90306156D01*
X93165691Y-90134728D01*
X93165691Y-90020442D01*
X93108549Y-89849014D01*
X93051406Y-89791871D01*
X93165691Y-88934728D02*
X92308549Y-88934728D01*
X92137120Y-88991871D01*
X92022834Y-89106156D01*
X91965691Y-89277585D01*
X91965691Y-89391871D01*
X91965691Y-87791871D02*
X91965691Y-88363299D01*
X93165691Y-88363299D01*
X92079977Y-86706156D02*
X92022834Y-86763299D01*
X91965691Y-86934728D01*
X91965691Y-87049014D01*
X92022834Y-87220442D01*
X92137120Y-87334728D01*
X92251406Y-87391871D01*
X92479977Y-87449014D01*
X92651406Y-87449014D01*
X92879977Y-87391871D01*
X92994263Y-87334728D01*
X93108549Y-87220442D01*
X93165691Y-87049014D01*
X93165691Y-86934728D01*
X93108549Y-86763299D01*
X93051406Y-86706156D01*
D11*
X75902775Y-102052394D02*
X75902775Y-101385728D01*
X75902775Y-101052394D02*
X75950394Y-101100014D01*
X75902775Y-101147633D01*
X75855155Y-101100014D01*
X75902775Y-101052394D01*
X75902775Y-101147633D01*
X75283727Y-102052394D02*
X75378965Y-102004775D01*
X75426584Y-101957156D01*
X75474203Y-101861918D01*
X75474203Y-101576204D01*
X75426584Y-101480966D01*
X75378965Y-101433347D01*
X75283727Y-101385728D01*
X75140870Y-101385728D01*
X75045632Y-101433347D01*
X74998013Y-101480966D01*
X74950394Y-101576204D01*
X74950394Y-101861918D01*
X74998013Y-101957156D01*
X75045632Y-102004775D01*
X75140870Y-102052394D01*
X75283727Y-102052394D01*
X74521822Y-102052394D02*
X74521822Y-101052394D01*
X74093251Y-102052394D02*
X74093251Y-101528585D01*
X74140870Y-101433347D01*
X74236108Y-101385728D01*
X74378965Y-101385728D01*
X74474203Y-101433347D01*
X74521822Y-101480966D01*
X73617060Y-102052394D02*
X73617060Y-101385728D01*
X73617060Y-101052394D02*
X73664679Y-101100014D01*
X73617060Y-101147633D01*
X73569441Y-101100014D01*
X73617060Y-101052394D01*
X73617060Y-101147633D01*
X73140870Y-101385728D02*
X73140870Y-102385728D01*
X73140870Y-101433347D02*
X73045632Y-101385728D01*
X72855155Y-101385728D01*
X72759917Y-101433347D01*
X72712298Y-101480966D01*
X72664679Y-101576204D01*
X72664679Y-101861918D01*
X72712298Y-101957156D01*
X72759917Y-102004775D01*
X72855155Y-102052394D01*
X73045632Y-102052394D01*
X73140870Y-102004775D01*
X72236108Y-101385728D02*
X72236108Y-102385728D01*
X72236108Y-101433347D02*
X72140870Y-101385728D01*
X71950394Y-101385728D01*
X71855155Y-101433347D01*
X71807536Y-101480966D01*
X71759917Y-101576204D01*
X71759917Y-101861918D01*
X71807536Y-101957156D01*
X71855155Y-102004775D01*
X71950394Y-102052394D01*
X72140870Y-102052394D01*
X72236108Y-102004775D01*
X71188489Y-102052394D02*
X71283727Y-102004775D01*
X71331346Y-101957156D01*
X71378965Y-101861918D01*
X71378965Y-101576204D01*
X71331346Y-101480966D01*
X71283727Y-101433347D01*
X71188489Y-101385728D01*
X71045632Y-101385728D01*
X70950394Y-101433347D01*
X70902775Y-101480966D01*
X70855155Y-101576204D01*
X70855155Y-101861918D01*
X70902775Y-101957156D01*
X70950394Y-102004775D01*
X71045632Y-102052394D01*
X71188489Y-102052394D01*
D12*
X77488489Y-100642871D02*
X77488489Y-99442871D01*
X77031346Y-99442871D01*
X76917060Y-99500014D01*
X76859917Y-99557156D01*
X76802775Y-99671442D01*
X76802775Y-99842871D01*
X76859917Y-99957156D01*
X76917060Y-100014299D01*
X77031346Y-100071442D01*
X77488489Y-100071442D01*
X76059917Y-99442871D02*
X75831346Y-99442871D01*
X75717060Y-99500014D01*
X75602775Y-99614299D01*
X75545632Y-99842871D01*
X75545632Y-100242871D01*
X75602775Y-100471442D01*
X75717060Y-100585728D01*
X75831346Y-100642871D01*
X76059917Y-100642871D01*
X76174203Y-100585728D01*
X76288489Y-100471442D01*
X76345632Y-100242871D01*
X76345632Y-99842871D01*
X76288489Y-99614299D01*
X76174203Y-99500014D01*
X76059917Y-99442871D01*
X74402775Y-99500014D02*
X74517060Y-99442871D01*
X74688489Y-99442871D01*
X74859917Y-99500014D01*
X74974203Y-99614299D01*
X75031346Y-99728585D01*
X75088489Y-99957156D01*
X75088489Y-100128585D01*
X75031346Y-100357156D01*
X74974203Y-100471442D01*
X74859917Y-100585728D01*
X74688489Y-100642871D01*
X74574203Y-100642871D01*
X74402775Y-100585728D01*
X74345632Y-100528585D01*
X74345632Y-100128585D01*
X74574203Y-100128585D01*
X73602775Y-99442871D02*
X73374203Y-99442871D01*
X73259917Y-99500014D01*
X73145632Y-99614299D01*
X73088489Y-99842871D01*
X73088489Y-100242871D01*
X73145632Y-100471442D01*
X73259917Y-100585728D01*
X73374203Y-100642871D01*
X73602775Y-100642871D01*
X73717060Y-100585728D01*
X73831346Y-100471442D01*
X73888489Y-100242871D01*
X73888489Y-99842871D01*
X73831346Y-99614299D01*
X73717060Y-99500014D01*
X73602775Y-99442871D01*
X71659917Y-100642871D02*
X71659917Y-99442871D01*
X71145632Y-100585728D02*
X70974203Y-100642871D01*
X70688489Y-100642871D01*
X70574203Y-100585728D01*
X70517060Y-100528585D01*
X70459917Y-100414299D01*
X70459917Y-100300014D01*
X70517060Y-100185728D01*
X70574203Y-100128585D01*
X70688489Y-100071442D01*
X70917060Y-100014299D01*
X71031346Y-99957156D01*
X71088489Y-99900014D01*
X71145632Y-99785728D01*
X71145632Y-99671442D01*
X71088489Y-99557156D01*
X71031346Y-99500014D01*
X70917060Y-99442871D01*
X70631346Y-99442871D01*
X70459917Y-99500014D01*
X69945632Y-100642871D02*
X69945632Y-99442871D01*
X69488489Y-99442871D01*
X69374203Y-99500014D01*
X69317060Y-99557156D01*
X69259917Y-99671442D01*
X69259917Y-99842871D01*
X69317060Y-99957156D01*
X69374203Y-100014299D01*
X69488489Y-100071442D01*
X69945632Y-100071442D01*
D13*
X77562917Y-98191871D02*
X76705775Y-98191871D01*
X76534346Y-98249014D01*
X76420060Y-98363299D01*
X76362917Y-98534728D01*
X76362917Y-98649014D01*
X76362917Y-97049014D02*
X76362917Y-97620442D01*
X77562917Y-97620442D01*
X76477203Y-95963299D02*
X76420060Y-96020442D01*
X76362917Y-96191871D01*
X76362917Y-96306156D01*
X76420060Y-96477585D01*
X76534346Y-96591871D01*
X76648632Y-96649014D01*
X76877203Y-96706156D01*
X77048632Y-96706156D01*
X77277203Y-96649014D01*
X77391489Y-96591871D01*
X77505775Y-96477585D01*
X77562917Y-96306156D01*
X77562917Y-96191871D01*
X77505775Y-96020442D01*
X77448632Y-95963299D01*
X77562917Y-95106156D02*
X76705775Y-95106156D01*
X76534346Y-95163299D01*
X76420060Y-95277585D01*
X76362917Y-95449014D01*
X76362917Y-95563299D01*
X76362917Y-93963299D02*
X76362917Y-94534728D01*
X77562917Y-94534728D01*
X76477203Y-92877585D02*
X76420060Y-92934728D01*
X76362917Y-93106156D01*
X76362917Y-93220442D01*
X76420060Y-93391871D01*
X76534346Y-93506156D01*
X76648632Y-93563299D01*
X76877203Y-93620442D01*
X77048632Y-93620442D01*
X77277203Y-93563299D01*
X77391489Y-93506156D01*
X77505775Y-93391871D01*
X77562917Y-93220442D01*
X77562917Y-93106156D01*
X77505775Y-92934728D01*
X77448632Y-92877585D01*
X77562917Y-92020442D02*
X76705775Y-92020442D01*
X76534346Y-92077585D01*
X76420060Y-92191871D01*
X76362917Y-92363299D01*
X76362917Y-92477585D01*
X76362917Y-90877585D02*
X76362917Y-91449014D01*
X77562917Y-91449014D01*
X76477203Y-89791871D02*
X76420060Y-89849014D01*
X76362917Y-90020442D01*
X76362917Y-90134728D01*
X76420060Y-90306156D01*
X76534346Y-90420442D01*
X76648632Y-90477585D01*
X76877203Y-90534728D01*
X77048632Y-90534728D01*
X77277203Y-90477585D01*
X77391489Y-90420442D01*
X77505775Y-90306156D01*
X77562917Y-90134728D01*
X77562917Y-90020442D01*
X77505775Y-89849014D01*
X77448632Y-89791871D01*
X77562917Y-88934728D02*
X76705775Y-88934728D01*
X76534346Y-88991871D01*
X76420060Y-89106156D01*
X76362917Y-89277585D01*
X76362917Y-89391871D01*
X76362917Y-87791871D02*
X76362917Y-88363299D01*
X77562917Y-88363299D01*
X76477203Y-86706156D02*
X76420060Y-86763299D01*
X76362917Y-86934728D01*
X76362917Y-87049014D01*
X76420060Y-87220442D01*
X76534346Y-87334728D01*
X76648632Y-87391871D01*
X76877203Y-87449014D01*
X77048632Y-87449014D01*
X77277203Y-87391871D01*
X77391489Y-87334728D01*
X77505775Y-87220442D01*
X77562917Y-87049014D01*
X77562917Y-86934728D01*
X77505775Y-86763299D01*
X77448632Y-86706156D01*
D11*
X60300001Y-102052394D02*
X60300001Y-101385728D01*
X60300001Y-101052394D02*
X60347620Y-101100014D01*
X60300001Y-101147633D01*
X60252381Y-101100014D01*
X60300001Y-101052394D01*
X60300001Y-101147633D01*
X59680953Y-102052394D02*
X59776191Y-102004775D01*
X59823810Y-101957156D01*
X59871429Y-101861918D01*
X59871429Y-101576204D01*
X59823810Y-101480966D01*
X59776191Y-101433347D01*
X59680953Y-101385728D01*
X59538096Y-101385728D01*
X59442858Y-101433347D01*
X59395239Y-101480966D01*
X59347620Y-101576204D01*
X59347620Y-101861918D01*
X59395239Y-101957156D01*
X59442858Y-102004775D01*
X59538096Y-102052394D01*
X59680953Y-102052394D01*
X58919048Y-102052394D02*
X58919048Y-101052394D01*
X58490477Y-102052394D02*
X58490477Y-101528585D01*
X58538096Y-101433347D01*
X58633334Y-101385728D01*
X58776191Y-101385728D01*
X58871429Y-101433347D01*
X58919048Y-101480966D01*
X58014286Y-102052394D02*
X58014286Y-101385728D01*
X58014286Y-101052394D02*
X58061905Y-101100014D01*
X58014286Y-101147633D01*
X57966667Y-101100014D01*
X58014286Y-101052394D01*
X58014286Y-101147633D01*
X57538096Y-101385728D02*
X57538096Y-102385728D01*
X57538096Y-101433347D02*
X57442858Y-101385728D01*
X57252381Y-101385728D01*
X57157143Y-101433347D01*
X57109524Y-101480966D01*
X57061905Y-101576204D01*
X57061905Y-101861918D01*
X57109524Y-101957156D01*
X57157143Y-102004775D01*
X57252381Y-102052394D01*
X57442858Y-102052394D01*
X57538096Y-102004775D01*
X56633334Y-101385728D02*
X56633334Y-102385728D01*
X56633334Y-101433347D02*
X56538096Y-101385728D01*
X56347620Y-101385728D01*
X56252381Y-101433347D01*
X56204762Y-101480966D01*
X56157143Y-101576204D01*
X56157143Y-101861918D01*
X56204762Y-101957156D01*
X56252381Y-102004775D01*
X56347620Y-102052394D01*
X56538096Y-102052394D01*
X56633334Y-102004775D01*
X55585715Y-102052394D02*
X55680953Y-102004775D01*
X55728572Y-101957156D01*
X55776191Y-101861918D01*
X55776191Y-101576204D01*
X55728572Y-101480966D01*
X55680953Y-101433347D01*
X55585715Y-101385728D01*
X55442858Y-101385728D01*
X55347620Y-101433347D01*
X55300001Y-101480966D01*
X55252381Y-101576204D01*
X55252381Y-101861918D01*
X55300001Y-101957156D01*
X55347620Y-102004775D01*
X55442858Y-102052394D01*
X55585715Y-102052394D01*
D12*
X61885715Y-100642871D02*
X61885715Y-99442871D01*
X61428572Y-99442871D01*
X61314286Y-99500014D01*
X61257143Y-99557156D01*
X61200001Y-99671442D01*
X61200001Y-99842871D01*
X61257143Y-99957156D01*
X61314286Y-100014299D01*
X61428572Y-100071442D01*
X61885715Y-100071442D01*
X60457143Y-99442871D02*
X60228572Y-99442871D01*
X60114286Y-99500014D01*
X60000001Y-99614299D01*
X59942858Y-99842871D01*
X59942858Y-100242871D01*
X60000001Y-100471442D01*
X60114286Y-100585728D01*
X60228572Y-100642871D01*
X60457143Y-100642871D01*
X60571429Y-100585728D01*
X60685715Y-100471442D01*
X60742858Y-100242871D01*
X60742858Y-99842871D01*
X60685715Y-99614299D01*
X60571429Y-99500014D01*
X60457143Y-99442871D01*
X58800001Y-99500014D02*
X58914286Y-99442871D01*
X59085715Y-99442871D01*
X59257143Y-99500014D01*
X59371429Y-99614299D01*
X59428572Y-99728585D01*
X59485715Y-99957156D01*
X59485715Y-100128585D01*
X59428572Y-100357156D01*
X59371429Y-100471442D01*
X59257143Y-100585728D01*
X59085715Y-100642871D01*
X58971429Y-100642871D01*
X58800001Y-100585728D01*
X58742858Y-100528585D01*
X58742858Y-100128585D01*
X58971429Y-100128585D01*
X58000001Y-99442871D02*
X57771429Y-99442871D01*
X57657143Y-99500014D01*
X57542858Y-99614299D01*
X57485715Y-99842871D01*
X57485715Y-100242871D01*
X57542858Y-100471442D01*
X57657143Y-100585728D01*
X57771429Y-100642871D01*
X58000001Y-100642871D01*
X58114286Y-100585728D01*
X58228572Y-100471442D01*
X58285715Y-100242871D01*
X58285715Y-99842871D01*
X58228572Y-99614299D01*
X58114286Y-99500014D01*
X58000001Y-99442871D01*
X56057143Y-100642871D02*
X56057143Y-99442871D01*
X55542858Y-100585728D02*
X55371429Y-100642871D01*
X55085715Y-100642871D01*
X54971429Y-100585728D01*
X54914286Y-100528585D01*
X54857143Y-100414299D01*
X54857143Y-100300014D01*
X54914286Y-100185728D01*
X54971429Y-100128585D01*
X55085715Y-100071442D01*
X55314286Y-100014299D01*
X55428572Y-99957156D01*
X55485715Y-99900014D01*
X55542858Y-99785728D01*
X55542858Y-99671442D01*
X55485715Y-99557156D01*
X55428572Y-99500014D01*
X55314286Y-99442871D01*
X55028572Y-99442871D01*
X54857143Y-99500014D01*
X54342858Y-100642871D02*
X54342858Y-99442871D01*
X53885715Y-99442871D01*
X53771429Y-99500014D01*
X53714286Y-99557156D01*
X53657143Y-99671442D01*
X53657143Y-99842871D01*
X53714286Y-99957156D01*
X53771429Y-100014299D01*
X53885715Y-100071442D01*
X54342858Y-100071442D01*
D13*
X61960143Y-98191871D02*
X61103001Y-98191871D01*
X60931572Y-98249014D01*
X60817286Y-98363299D01*
X60760143Y-98534728D01*
X60760143Y-98649014D01*
X60760143Y-97049014D02*
X60760143Y-97620442D01*
X61960143Y-97620442D01*
X60874429Y-95963299D02*
X60817286Y-96020442D01*
X60760143Y-96191871D01*
X60760143Y-96306156D01*
X60817286Y-96477585D01*
X60931572Y-96591871D01*
X61045858Y-96649014D01*
X61274429Y-96706156D01*
X61445858Y-96706156D01*
X61674429Y-96649014D01*
X61788715Y-96591871D01*
X61903001Y-96477585D01*
X61960143Y-96306156D01*
X61960143Y-96191871D01*
X61903001Y-96020442D01*
X61845858Y-95963299D01*
X61960143Y-95106156D02*
X61103001Y-95106156D01*
X60931572Y-95163299D01*
X60817286Y-95277585D01*
X60760143Y-95449014D01*
X60760143Y-95563299D01*
X60760143Y-93963299D02*
X60760143Y-94534728D01*
X61960143Y-94534728D01*
X60874429Y-92877585D02*
X60817286Y-92934728D01*
X60760143Y-93106156D01*
X60760143Y-93220442D01*
X60817286Y-93391871D01*
X60931572Y-93506156D01*
X61045858Y-93563299D01*
X61274429Y-93620442D01*
X61445858Y-93620442D01*
X61674429Y-93563299D01*
X61788715Y-93506156D01*
X61903001Y-93391871D01*
X61960143Y-93220442D01*
X61960143Y-93106156D01*
X61903001Y-92934728D01*
X61845858Y-92877585D01*
X61960143Y-92020442D02*
X61103001Y-92020442D01*
X60931572Y-92077585D01*
X60817286Y-92191871D01*
X60760143Y-92363299D01*
X60760143Y-92477585D01*
X60760143Y-90877585D02*
X60760143Y-91449014D01*
X61960143Y-91449014D01*
X60874429Y-89791871D02*
X60817286Y-89849014D01*
X60760143Y-90020442D01*
X60760143Y-90134728D01*
X60817286Y-90306156D01*
X60931572Y-90420442D01*
X61045858Y-90477585D01*
X61274429Y-90534728D01*
X61445858Y-90534728D01*
X61674429Y-90477585D01*
X61788715Y-90420442D01*
X61903001Y-90306156D01*
X61960143Y-90134728D01*
X61960143Y-90020442D01*
X61903001Y-89849014D01*
X61845858Y-89791871D01*
X61960143Y-88934728D02*
X61103001Y-88934728D01*
X60931572Y-88991871D01*
X60817286Y-89106156D01*
X60760143Y-89277585D01*
X60760143Y-89391871D01*
X60760143Y-87791871D02*
X60760143Y-88363299D01*
X61960143Y-88363299D01*
X60874429Y-86706156D02*
X60817286Y-86763299D01*
X60760143Y-86934728D01*
X60760143Y-87049014D01*
X60817286Y-87220442D01*
X60931572Y-87334728D01*
X61045858Y-87391871D01*
X61274429Y-87449014D01*
X61445858Y-87449014D01*
X61674429Y-87391871D01*
X61788715Y-87334728D01*
X61903001Y-87220442D01*
X61960143Y-87049014D01*
X61960143Y-86934728D01*
X61903001Y-86763299D01*
X61845858Y-86706156D01*
D11*
X138313871Y-73552381D02*
X138313871Y-72885715D01*
X138313871Y-72552381D02*
X138361490Y-72600001D01*
X138313871Y-72647620D01*
X138266251Y-72600001D01*
X138313871Y-72552381D01*
X138313871Y-72647620D01*
X137694823Y-73552381D02*
X137790061Y-73504762D01*
X137837680Y-73457143D01*
X137885299Y-73361905D01*
X137885299Y-73076191D01*
X137837680Y-72980953D01*
X137790061Y-72933334D01*
X137694823Y-72885715D01*
X137551966Y-72885715D01*
X137456728Y-72933334D01*
X137409109Y-72980953D01*
X137361490Y-73076191D01*
X137361490Y-73361905D01*
X137409109Y-73457143D01*
X137456728Y-73504762D01*
X137551966Y-73552381D01*
X137694823Y-73552381D01*
X136932918Y-73552381D02*
X136932918Y-72552381D01*
X136504347Y-73552381D02*
X136504347Y-73028572D01*
X136551966Y-72933334D01*
X136647204Y-72885715D01*
X136790061Y-72885715D01*
X136885299Y-72933334D01*
X136932918Y-72980953D01*
X136028156Y-73552381D02*
X136028156Y-72885715D01*
X136028156Y-72552381D02*
X136075775Y-72600001D01*
X136028156Y-72647620D01*
X135980537Y-72600001D01*
X136028156Y-72552381D01*
X136028156Y-72647620D01*
X135551966Y-72885715D02*
X135551966Y-73885715D01*
X135551966Y-72933334D02*
X135456728Y-72885715D01*
X135266251Y-72885715D01*
X135171013Y-72933334D01*
X135123394Y-72980953D01*
X135075775Y-73076191D01*
X135075775Y-73361905D01*
X135123394Y-73457143D01*
X135171013Y-73504762D01*
X135266251Y-73552381D01*
X135456728Y-73552381D01*
X135551966Y-73504762D01*
X134647204Y-72885715D02*
X134647204Y-73885715D01*
X134647204Y-72933334D02*
X134551966Y-72885715D01*
X134361490Y-72885715D01*
X134266251Y-72933334D01*
X134218632Y-72980953D01*
X134171013Y-73076191D01*
X134171013Y-73361905D01*
X134218632Y-73457143D01*
X134266251Y-73504762D01*
X134361490Y-73552381D01*
X134551966Y-73552381D01*
X134647204Y-73504762D01*
X133599585Y-73552381D02*
X133694823Y-73504762D01*
X133742442Y-73457143D01*
X133790061Y-73361905D01*
X133790061Y-73076191D01*
X133742442Y-72980953D01*
X133694823Y-72933334D01*
X133599585Y-72885715D01*
X133456728Y-72885715D01*
X133361490Y-72933334D01*
X133313871Y-72980953D01*
X133266251Y-73076191D01*
X133266251Y-73361905D01*
X133313871Y-73457143D01*
X133361490Y-73504762D01*
X133456728Y-73552381D01*
X133599585Y-73552381D01*
D12*
X139899585Y-72142858D02*
X139899585Y-70942858D01*
X139442442Y-70942858D01*
X139328156Y-71000001D01*
X139271013Y-71057143D01*
X139213871Y-71171429D01*
X139213871Y-71342858D01*
X139271013Y-71457143D01*
X139328156Y-71514286D01*
X139442442Y-71571429D01*
X139899585Y-71571429D01*
X138471013Y-70942858D02*
X138242442Y-70942858D01*
X138128156Y-71000001D01*
X138013871Y-71114286D01*
X137956728Y-71342858D01*
X137956728Y-71742858D01*
X138013871Y-71971429D01*
X138128156Y-72085715D01*
X138242442Y-72142858D01*
X138471013Y-72142858D01*
X138585299Y-72085715D01*
X138699585Y-71971429D01*
X138756728Y-71742858D01*
X138756728Y-71342858D01*
X138699585Y-71114286D01*
X138585299Y-71000001D01*
X138471013Y-70942858D01*
X136813871Y-71000001D02*
X136928156Y-70942858D01*
X137099585Y-70942858D01*
X137271013Y-71000001D01*
X137385299Y-71114286D01*
X137442442Y-71228572D01*
X137499585Y-71457143D01*
X137499585Y-71628572D01*
X137442442Y-71857143D01*
X137385299Y-71971429D01*
X137271013Y-72085715D01*
X137099585Y-72142858D01*
X136985299Y-72142858D01*
X136813871Y-72085715D01*
X136756728Y-72028572D01*
X136756728Y-71628572D01*
X136985299Y-71628572D01*
X136013871Y-70942858D02*
X135785299Y-70942858D01*
X135671013Y-71000001D01*
X135556728Y-71114286D01*
X135499585Y-71342858D01*
X135499585Y-71742858D01*
X135556728Y-71971429D01*
X135671013Y-72085715D01*
X135785299Y-72142858D01*
X136013871Y-72142858D01*
X136128156Y-72085715D01*
X136242442Y-71971429D01*
X136299585Y-71742858D01*
X136299585Y-71342858D01*
X136242442Y-71114286D01*
X136128156Y-71000001D01*
X136013871Y-70942858D01*
X134071013Y-72142858D02*
X134071013Y-70942858D01*
X133556728Y-72085715D02*
X133385299Y-72142858D01*
X133099585Y-72142858D01*
X132985299Y-72085715D01*
X132928156Y-72028572D01*
X132871013Y-71914286D01*
X132871013Y-71800001D01*
X132928156Y-71685715D01*
X132985299Y-71628572D01*
X133099585Y-71571429D01*
X133328156Y-71514286D01*
X133442442Y-71457143D01*
X133499585Y-71400001D01*
X133556728Y-71285715D01*
X133556728Y-71171429D01*
X133499585Y-71057143D01*
X133442442Y-71000001D01*
X133328156Y-70942858D01*
X133042442Y-70942858D01*
X132871013Y-71000001D01*
X132356728Y-72142858D02*
X132356728Y-70942858D01*
X131899585Y-70942858D01*
X131785299Y-71000001D01*
X131728156Y-71057143D01*
X131671013Y-71171429D01*
X131671013Y-71342858D01*
X131728156Y-71457143D01*
X131785299Y-71514286D01*
X131899585Y-71571429D01*
X132356728Y-71571429D01*
D13*
X139974013Y-69691858D02*
X139116871Y-69691858D01*
X138945442Y-69749001D01*
X138831156Y-69863286D01*
X138774013Y-70034715D01*
X138774013Y-70149001D01*
X138774013Y-68549001D02*
X138774013Y-69120429D01*
X139974013Y-69120429D01*
X138888299Y-67463286D02*
X138831156Y-67520429D01*
X138774013Y-67691858D01*
X138774013Y-67806143D01*
X138831156Y-67977572D01*
X138945442Y-68091858D01*
X139059728Y-68149001D01*
X139288299Y-68206143D01*
X139459728Y-68206143D01*
X139688299Y-68149001D01*
X139802585Y-68091858D01*
X139916871Y-67977572D01*
X139974013Y-67806143D01*
X139974013Y-67691858D01*
X139916871Y-67520429D01*
X139859728Y-67463286D01*
X139974013Y-66606143D02*
X139116871Y-66606143D01*
X138945442Y-66663286D01*
X138831156Y-66777572D01*
X138774013Y-66949001D01*
X138774013Y-67063286D01*
X138774013Y-65463286D02*
X138774013Y-66034715D01*
X139974013Y-66034715D01*
X138888299Y-64377572D02*
X138831156Y-64434715D01*
X138774013Y-64606143D01*
X138774013Y-64720429D01*
X138831156Y-64891858D01*
X138945442Y-65006143D01*
X139059728Y-65063286D01*
X139288299Y-65120429D01*
X139459728Y-65120429D01*
X139688299Y-65063286D01*
X139802585Y-65006143D01*
X139916871Y-64891858D01*
X139974013Y-64720429D01*
X139974013Y-64606143D01*
X139916871Y-64434715D01*
X139859728Y-64377572D01*
X139974013Y-63520429D02*
X139116871Y-63520429D01*
X138945442Y-63577572D01*
X138831156Y-63691858D01*
X138774013Y-63863286D01*
X138774013Y-63977572D01*
X138774013Y-62377572D02*
X138774013Y-62949001D01*
X139974013Y-62949001D01*
X138888299Y-61291858D02*
X138831156Y-61349001D01*
X138774013Y-61520429D01*
X138774013Y-61634715D01*
X138831156Y-61806143D01*
X138945442Y-61920429D01*
X139059728Y-61977572D01*
X139288299Y-62034715D01*
X139459728Y-62034715D01*
X139688299Y-61977572D01*
X139802585Y-61920429D01*
X139916871Y-61806143D01*
X139974013Y-61634715D01*
X139974013Y-61520429D01*
X139916871Y-61349001D01*
X139859728Y-61291858D01*
X139974013Y-60434715D02*
X139116871Y-60434715D01*
X138945442Y-60491858D01*
X138831156Y-60606143D01*
X138774013Y-60777572D01*
X138774013Y-60891858D01*
X138774013Y-59291858D02*
X138774013Y-59863286D01*
X139974013Y-59863286D01*
X138888299Y-58206143D02*
X138831156Y-58263286D01*
X138774013Y-58434715D01*
X138774013Y-58549001D01*
X138831156Y-58720429D01*
X138945442Y-58834715D01*
X139059728Y-58891858D01*
X139288299Y-58949001D01*
X139459728Y-58949001D01*
X139688299Y-58891858D01*
X139802585Y-58834715D01*
X139916871Y-58720429D01*
X139974013Y-58549001D01*
X139974013Y-58434715D01*
X139916871Y-58263286D01*
X139859728Y-58206143D01*
D11*
X122711097Y-73552381D02*
X122711097Y-72885715D01*
X122711097Y-72552381D02*
X122758716Y-72600001D01*
X122711097Y-72647620D01*
X122663477Y-72600001D01*
X122711097Y-72552381D01*
X122711097Y-72647620D01*
X122092049Y-73552381D02*
X122187287Y-73504762D01*
X122234906Y-73457143D01*
X122282525Y-73361905D01*
X122282525Y-73076191D01*
X122234906Y-72980953D01*
X122187287Y-72933334D01*
X122092049Y-72885715D01*
X121949192Y-72885715D01*
X121853954Y-72933334D01*
X121806335Y-72980953D01*
X121758716Y-73076191D01*
X121758716Y-73361905D01*
X121806335Y-73457143D01*
X121853954Y-73504762D01*
X121949192Y-73552381D01*
X122092049Y-73552381D01*
X121330144Y-73552381D02*
X121330144Y-72552381D01*
X120901573Y-73552381D02*
X120901573Y-73028572D01*
X120949192Y-72933334D01*
X121044430Y-72885715D01*
X121187287Y-72885715D01*
X121282525Y-72933334D01*
X121330144Y-72980953D01*
X120425382Y-73552381D02*
X120425382Y-72885715D01*
X120425382Y-72552381D02*
X120473001Y-72600001D01*
X120425382Y-72647620D01*
X120377763Y-72600001D01*
X120425382Y-72552381D01*
X120425382Y-72647620D01*
X119949192Y-72885715D02*
X119949192Y-73885715D01*
X119949192Y-72933334D02*
X119853954Y-72885715D01*
X119663477Y-72885715D01*
X119568239Y-72933334D01*
X119520620Y-72980953D01*
X119473001Y-73076191D01*
X119473001Y-73361905D01*
X119520620Y-73457143D01*
X119568239Y-73504762D01*
X119663477Y-73552381D01*
X119853954Y-73552381D01*
X119949192Y-73504762D01*
X119044430Y-72885715D02*
X119044430Y-73885715D01*
X119044430Y-72933334D02*
X118949192Y-72885715D01*
X118758716Y-72885715D01*
X118663477Y-72933334D01*
X118615858Y-72980953D01*
X118568239Y-73076191D01*
X118568239Y-73361905D01*
X118615858Y-73457143D01*
X118663477Y-73504762D01*
X118758716Y-73552381D01*
X118949192Y-73552381D01*
X119044430Y-73504762D01*
X117996811Y-73552381D02*
X118092049Y-73504762D01*
X118139668Y-73457143D01*
X118187287Y-73361905D01*
X118187287Y-73076191D01*
X118139668Y-72980953D01*
X118092049Y-72933334D01*
X117996811Y-72885715D01*
X117853954Y-72885715D01*
X117758716Y-72933334D01*
X117711097Y-72980953D01*
X117663477Y-73076191D01*
X117663477Y-73361905D01*
X117711097Y-73457143D01*
X117758716Y-73504762D01*
X117853954Y-73552381D01*
X117996811Y-73552381D01*
D12*
X124296811Y-72142858D02*
X124296811Y-70942858D01*
X123839668Y-70942858D01*
X123725382Y-71000001D01*
X123668239Y-71057143D01*
X123611097Y-71171429D01*
X123611097Y-71342858D01*
X123668239Y-71457143D01*
X123725382Y-71514286D01*
X123839668Y-71571429D01*
X124296811Y-71571429D01*
X122868239Y-70942858D02*
X122639668Y-70942858D01*
X122525382Y-71000001D01*
X122411097Y-71114286D01*
X122353954Y-71342858D01*
X122353954Y-71742858D01*
X122411097Y-71971429D01*
X122525382Y-72085715D01*
X122639668Y-72142858D01*
X122868239Y-72142858D01*
X122982525Y-72085715D01*
X123096811Y-71971429D01*
X123153954Y-71742858D01*
X123153954Y-71342858D01*
X123096811Y-71114286D01*
X122982525Y-71000001D01*
X122868239Y-70942858D01*
X121211097Y-71000001D02*
X121325382Y-70942858D01*
X121496811Y-70942858D01*
X121668239Y-71000001D01*
X121782525Y-71114286D01*
X121839668Y-71228572D01*
X121896811Y-71457143D01*
X121896811Y-71628572D01*
X121839668Y-71857143D01*
X121782525Y-71971429D01*
X121668239Y-72085715D01*
X121496811Y-72142858D01*
X121382525Y-72142858D01*
X121211097Y-72085715D01*
X121153954Y-72028572D01*
X121153954Y-71628572D01*
X121382525Y-71628572D01*
X120411097Y-70942858D02*
X120182525Y-70942858D01*
X120068239Y-71000001D01*
X119953954Y-71114286D01*
X119896811Y-71342858D01*
X119896811Y-71742858D01*
X119953954Y-71971429D01*
X120068239Y-72085715D01*
X120182525Y-72142858D01*
X120411097Y-72142858D01*
X120525382Y-72085715D01*
X120639668Y-71971429D01*
X120696811Y-71742858D01*
X120696811Y-71342858D01*
X120639668Y-71114286D01*
X120525382Y-71000001D01*
X120411097Y-70942858D01*
X118468239Y-72142858D02*
X118468239Y-70942858D01*
X117953954Y-72085715D02*
X117782525Y-72142858D01*
X117496811Y-72142858D01*
X117382525Y-72085715D01*
X117325382Y-72028572D01*
X117268239Y-71914286D01*
X117268239Y-71800001D01*
X117325382Y-71685715D01*
X117382525Y-71628572D01*
X117496811Y-71571429D01*
X117725382Y-71514286D01*
X117839668Y-71457143D01*
X117896811Y-71400001D01*
X117953954Y-71285715D01*
X117953954Y-71171429D01*
X117896811Y-71057143D01*
X117839668Y-71000001D01*
X117725382Y-70942858D01*
X117439668Y-70942858D01*
X117268239Y-71000001D01*
X116753954Y-72142858D02*
X116753954Y-70942858D01*
X116296811Y-70942858D01*
X116182525Y-71000001D01*
X116125382Y-71057143D01*
X116068239Y-71171429D01*
X116068239Y-71342858D01*
X116125382Y-71457143D01*
X116182525Y-71514286D01*
X116296811Y-71571429D01*
X116753954Y-71571429D01*
D13*
X124371239Y-69691858D02*
X123514097Y-69691858D01*
X123342668Y-69749001D01*
X123228382Y-69863286D01*
X123171239Y-70034715D01*
X123171239Y-70149001D01*
X123171239Y-68549001D02*
X123171239Y-69120429D01*
X124371239Y-69120429D01*
X123285525Y-67463286D02*
X123228382Y-67520429D01*
X123171239Y-67691858D01*
X123171239Y-67806143D01*
X123228382Y-67977572D01*
X123342668Y-68091858D01*
X123456954Y-68149001D01*
X123685525Y-68206143D01*
X123856954Y-68206143D01*
X124085525Y-68149001D01*
X124199811Y-68091858D01*
X124314097Y-67977572D01*
X124371239Y-67806143D01*
X124371239Y-67691858D01*
X124314097Y-67520429D01*
X124256954Y-67463286D01*
X124371239Y-66606143D02*
X123514097Y-66606143D01*
X123342668Y-66663286D01*
X123228382Y-66777572D01*
X123171239Y-66949001D01*
X123171239Y-67063286D01*
X123171239Y-65463286D02*
X123171239Y-66034715D01*
X124371239Y-66034715D01*
X123285525Y-64377572D02*
X123228382Y-64434715D01*
X123171239Y-64606143D01*
X123171239Y-64720429D01*
X123228382Y-64891858D01*
X123342668Y-65006143D01*
X123456954Y-65063286D01*
X123685525Y-65120429D01*
X123856954Y-65120429D01*
X124085525Y-65063286D01*
X124199811Y-65006143D01*
X124314097Y-64891858D01*
X124371239Y-64720429D01*
X124371239Y-64606143D01*
X124314097Y-64434715D01*
X124256954Y-64377572D01*
X124371239Y-63520429D02*
X123514097Y-63520429D01*
X123342668Y-63577572D01*
X123228382Y-63691858D01*
X123171239Y-63863286D01*
X123171239Y-63977572D01*
X123171239Y-62377572D02*
X123171239Y-62949001D01*
X124371239Y-62949001D01*
X123285525Y-61291858D02*
X123228382Y-61349001D01*
X123171239Y-61520429D01*
X123171239Y-61634715D01*
X123228382Y-61806143D01*
X123342668Y-61920429D01*
X123456954Y-61977572D01*
X123685525Y-62034715D01*
X123856954Y-62034715D01*
X124085525Y-61977572D01*
X124199811Y-61920429D01*
X124314097Y-61806143D01*
X124371239Y-61634715D01*
X124371239Y-61520429D01*
X124314097Y-61349001D01*
X124256954Y-61291858D01*
X124371239Y-60434715D02*
X123514097Y-60434715D01*
X123342668Y-60491858D01*
X123228382Y-60606143D01*
X123171239Y-60777572D01*
X123171239Y-60891858D01*
X123171239Y-59291858D02*
X123171239Y-59863286D01*
X124371239Y-59863286D01*
X123285525Y-58206143D02*
X123228382Y-58263286D01*
X123171239Y-58434715D01*
X123171239Y-58549001D01*
X123228382Y-58720429D01*
X123342668Y-58834715D01*
X123456954Y-58891858D01*
X123685525Y-58949001D01*
X123856954Y-58949001D01*
X124085525Y-58891858D01*
X124199811Y-58834715D01*
X124314097Y-58720429D01*
X124371239Y-58549001D01*
X124371239Y-58434715D01*
X124314097Y-58263286D01*
X124256954Y-58206143D01*
D11*
X107108323Y-73552381D02*
X107108323Y-72885715D01*
X107108323Y-72552381D02*
X107155942Y-72600001D01*
X107108323Y-72647620D01*
X107060703Y-72600001D01*
X107108323Y-72552381D01*
X107108323Y-72647620D01*
X106489275Y-73552381D02*
X106584513Y-73504762D01*
X106632132Y-73457143D01*
X106679751Y-73361905D01*
X106679751Y-73076191D01*
X106632132Y-72980953D01*
X106584513Y-72933334D01*
X106489275Y-72885715D01*
X106346418Y-72885715D01*
X106251180Y-72933334D01*
X106203561Y-72980953D01*
X106155942Y-73076191D01*
X106155942Y-73361905D01*
X106203561Y-73457143D01*
X106251180Y-73504762D01*
X106346418Y-73552381D01*
X106489275Y-73552381D01*
X105727370Y-73552381D02*
X105727370Y-72552381D01*
X105298799Y-73552381D02*
X105298799Y-73028572D01*
X105346418Y-72933334D01*
X105441656Y-72885715D01*
X105584513Y-72885715D01*
X105679751Y-72933334D01*
X105727370Y-72980953D01*
X104822608Y-73552381D02*
X104822608Y-72885715D01*
X104822608Y-72552381D02*
X104870227Y-72600001D01*
X104822608Y-72647620D01*
X104774989Y-72600001D01*
X104822608Y-72552381D01*
X104822608Y-72647620D01*
X104346418Y-72885715D02*
X104346418Y-73885715D01*
X104346418Y-72933334D02*
X104251180Y-72885715D01*
X104060703Y-72885715D01*
X103965465Y-72933334D01*
X103917846Y-72980953D01*
X103870227Y-73076191D01*
X103870227Y-73361905D01*
X103917846Y-73457143D01*
X103965465Y-73504762D01*
X104060703Y-73552381D01*
X104251180Y-73552381D01*
X104346418Y-73504762D01*
X103441656Y-72885715D02*
X103441656Y-73885715D01*
X103441656Y-72933334D02*
X103346418Y-72885715D01*
X103155942Y-72885715D01*
X103060703Y-72933334D01*
X103013084Y-72980953D01*
X102965465Y-73076191D01*
X102965465Y-73361905D01*
X103013084Y-73457143D01*
X103060703Y-73504762D01*
X103155942Y-73552381D01*
X103346418Y-73552381D01*
X103441656Y-73504762D01*
X102394037Y-73552381D02*
X102489275Y-73504762D01*
X102536894Y-73457143D01*
X102584513Y-73361905D01*
X102584513Y-73076191D01*
X102536894Y-72980953D01*
X102489275Y-72933334D01*
X102394037Y-72885715D01*
X102251180Y-72885715D01*
X102155942Y-72933334D01*
X102108323Y-72980953D01*
X102060703Y-73076191D01*
X102060703Y-73361905D01*
X102108323Y-73457143D01*
X102155942Y-73504762D01*
X102251180Y-73552381D01*
X102394037Y-73552381D01*
D12*
X108694037Y-72142858D02*
X108694037Y-70942858D01*
X108236894Y-70942858D01*
X108122608Y-71000001D01*
X108065465Y-71057143D01*
X108008323Y-71171429D01*
X108008323Y-71342858D01*
X108065465Y-71457143D01*
X108122608Y-71514286D01*
X108236894Y-71571429D01*
X108694037Y-71571429D01*
X107265465Y-70942858D02*
X107036894Y-70942858D01*
X106922608Y-71000001D01*
X106808323Y-71114286D01*
X106751180Y-71342858D01*
X106751180Y-71742858D01*
X106808323Y-71971429D01*
X106922608Y-72085715D01*
X107036894Y-72142858D01*
X107265465Y-72142858D01*
X107379751Y-72085715D01*
X107494037Y-71971429D01*
X107551180Y-71742858D01*
X107551180Y-71342858D01*
X107494037Y-71114286D01*
X107379751Y-71000001D01*
X107265465Y-70942858D01*
X105608323Y-71000001D02*
X105722608Y-70942858D01*
X105894037Y-70942858D01*
X106065465Y-71000001D01*
X106179751Y-71114286D01*
X106236894Y-71228572D01*
X106294037Y-71457143D01*
X106294037Y-71628572D01*
X106236894Y-71857143D01*
X106179751Y-71971429D01*
X106065465Y-72085715D01*
X105894037Y-72142858D01*
X105779751Y-72142858D01*
X105608323Y-72085715D01*
X105551180Y-72028572D01*
X105551180Y-71628572D01*
X105779751Y-71628572D01*
X104808323Y-70942858D02*
X104579751Y-70942858D01*
X104465465Y-71000001D01*
X104351180Y-71114286D01*
X104294037Y-71342858D01*
X104294037Y-71742858D01*
X104351180Y-71971429D01*
X104465465Y-72085715D01*
X104579751Y-72142858D01*
X104808323Y-72142858D01*
X104922608Y-72085715D01*
X105036894Y-71971429D01*
X105094037Y-71742858D01*
X105094037Y-71342858D01*
X105036894Y-71114286D01*
X104922608Y-71000001D01*
X104808323Y-70942858D01*
X102865465Y-72142858D02*
X102865465Y-70942858D01*
X102351180Y-72085715D02*
X102179751Y-72142858D01*
X101894037Y-72142858D01*
X101779751Y-72085715D01*
X101722608Y-72028572D01*
X101665465Y-71914286D01*
X101665465Y-71800001D01*
X101722608Y-71685715D01*
X101779751Y-71628572D01*
X101894037Y-71571429D01*
X102122608Y-71514286D01*
X102236894Y-71457143D01*
X102294037Y-71400001D01*
X102351180Y-71285715D01*
X102351180Y-71171429D01*
X102294037Y-71057143D01*
X102236894Y-71000001D01*
X102122608Y-70942858D01*
X101836894Y-70942858D01*
X101665465Y-71000001D01*
X101151180Y-72142858D02*
X101151180Y-70942858D01*
X100694037Y-70942858D01*
X100579751Y-71000001D01*
X100522608Y-71057143D01*
X100465465Y-71171429D01*
X100465465Y-71342858D01*
X100522608Y-71457143D01*
X100579751Y-71514286D01*
X100694037Y-71571429D01*
X101151180Y-71571429D01*
D13*
X108768465Y-69691858D02*
X107911323Y-69691858D01*
X107739894Y-69749001D01*
X107625608Y-69863286D01*
X107568465Y-70034715D01*
X107568465Y-70149001D01*
X107568465Y-68549001D02*
X107568465Y-69120429D01*
X108768465Y-69120429D01*
X107682751Y-67463286D02*
X107625608Y-67520429D01*
X107568465Y-67691858D01*
X107568465Y-67806143D01*
X107625608Y-67977572D01*
X107739894Y-68091858D01*
X107854180Y-68149001D01*
X108082751Y-68206143D01*
X108254180Y-68206143D01*
X108482751Y-68149001D01*
X108597037Y-68091858D01*
X108711323Y-67977572D01*
X108768465Y-67806143D01*
X108768465Y-67691858D01*
X108711323Y-67520429D01*
X108654180Y-67463286D01*
X108768465Y-66606143D02*
X107911323Y-66606143D01*
X107739894Y-66663286D01*
X107625608Y-66777572D01*
X107568465Y-66949001D01*
X107568465Y-67063286D01*
X107568465Y-65463286D02*
X107568465Y-66034715D01*
X108768465Y-66034715D01*
X107682751Y-64377572D02*
X107625608Y-64434715D01*
X107568465Y-64606143D01*
X107568465Y-64720429D01*
X107625608Y-64891858D01*
X107739894Y-65006143D01*
X107854180Y-65063286D01*
X108082751Y-65120429D01*
X108254180Y-65120429D01*
X108482751Y-65063286D01*
X108597037Y-65006143D01*
X108711323Y-64891858D01*
X108768465Y-64720429D01*
X108768465Y-64606143D01*
X108711323Y-64434715D01*
X108654180Y-64377572D01*
X108768465Y-63520429D02*
X107911323Y-63520429D01*
X107739894Y-63577572D01*
X107625608Y-63691858D01*
X107568465Y-63863286D01*
X107568465Y-63977572D01*
X107568465Y-62377572D02*
X107568465Y-62949001D01*
X108768465Y-62949001D01*
X107682751Y-61291858D02*
X107625608Y-61349001D01*
X107568465Y-61520429D01*
X107568465Y-61634715D01*
X107625608Y-61806143D01*
X107739894Y-61920429D01*
X107854180Y-61977572D01*
X108082751Y-62034715D01*
X108254180Y-62034715D01*
X108482751Y-61977572D01*
X108597037Y-61920429D01*
X108711323Y-61806143D01*
X108768465Y-61634715D01*
X108768465Y-61520429D01*
X108711323Y-61349001D01*
X108654180Y-61291858D01*
X108768465Y-60434715D02*
X107911323Y-60434715D01*
X107739894Y-60491858D01*
X107625608Y-60606143D01*
X107568465Y-60777572D01*
X107568465Y-60891858D01*
X107568465Y-59291858D02*
X107568465Y-59863286D01*
X108768465Y-59863286D01*
X107682751Y-58206143D02*
X107625608Y-58263286D01*
X107568465Y-58434715D01*
X107568465Y-58549001D01*
X107625608Y-58720429D01*
X107739894Y-58834715D01*
X107854180Y-58891858D01*
X108082751Y-58949001D01*
X108254180Y-58949001D01*
X108482751Y-58891858D01*
X108597037Y-58834715D01*
X108711323Y-58720429D01*
X108768465Y-58549001D01*
X108768465Y-58434715D01*
X108711323Y-58263286D01*
X108654180Y-58206143D01*
D11*
X91505549Y-73552381D02*
X91505549Y-72885715D01*
X91505549Y-72552381D02*
X91553168Y-72600001D01*
X91505549Y-72647620D01*
X91457929Y-72600001D01*
X91505549Y-72552381D01*
X91505549Y-72647620D01*
X90886501Y-73552381D02*
X90981739Y-73504762D01*
X91029358Y-73457143D01*
X91076977Y-73361905D01*
X91076977Y-73076191D01*
X91029358Y-72980953D01*
X90981739Y-72933334D01*
X90886501Y-72885715D01*
X90743644Y-72885715D01*
X90648406Y-72933334D01*
X90600787Y-72980953D01*
X90553168Y-73076191D01*
X90553168Y-73361905D01*
X90600787Y-73457143D01*
X90648406Y-73504762D01*
X90743644Y-73552381D01*
X90886501Y-73552381D01*
X90124596Y-73552381D02*
X90124596Y-72552381D01*
X89696025Y-73552381D02*
X89696025Y-73028572D01*
X89743644Y-72933334D01*
X89838882Y-72885715D01*
X89981739Y-72885715D01*
X90076977Y-72933334D01*
X90124596Y-72980953D01*
X89219834Y-73552381D02*
X89219834Y-72885715D01*
X89219834Y-72552381D02*
X89267453Y-72600001D01*
X89219834Y-72647620D01*
X89172215Y-72600001D01*
X89219834Y-72552381D01*
X89219834Y-72647620D01*
X88743644Y-72885715D02*
X88743644Y-73885715D01*
X88743644Y-72933334D02*
X88648406Y-72885715D01*
X88457929Y-72885715D01*
X88362691Y-72933334D01*
X88315072Y-72980953D01*
X88267453Y-73076191D01*
X88267453Y-73361905D01*
X88315072Y-73457143D01*
X88362691Y-73504762D01*
X88457929Y-73552381D01*
X88648406Y-73552381D01*
X88743644Y-73504762D01*
X87838882Y-72885715D02*
X87838882Y-73885715D01*
X87838882Y-72933334D02*
X87743644Y-72885715D01*
X87553168Y-72885715D01*
X87457929Y-72933334D01*
X87410310Y-72980953D01*
X87362691Y-73076191D01*
X87362691Y-73361905D01*
X87410310Y-73457143D01*
X87457929Y-73504762D01*
X87553168Y-73552381D01*
X87743644Y-73552381D01*
X87838882Y-73504762D01*
X86791263Y-73552381D02*
X86886501Y-73504762D01*
X86934120Y-73457143D01*
X86981739Y-73361905D01*
X86981739Y-73076191D01*
X86934120Y-72980953D01*
X86886501Y-72933334D01*
X86791263Y-72885715D01*
X86648406Y-72885715D01*
X86553168Y-72933334D01*
X86505549Y-72980953D01*
X86457929Y-73076191D01*
X86457929Y-73361905D01*
X86505549Y-73457143D01*
X86553168Y-73504762D01*
X86648406Y-73552381D01*
X86791263Y-73552381D01*
D12*
X93091263Y-72142858D02*
X93091263Y-70942858D01*
X92634120Y-70942858D01*
X92519834Y-71000001D01*
X92462691Y-71057143D01*
X92405549Y-71171429D01*
X92405549Y-71342858D01*
X92462691Y-71457143D01*
X92519834Y-71514286D01*
X92634120Y-71571429D01*
X93091263Y-71571429D01*
X91662691Y-70942858D02*
X91434120Y-70942858D01*
X91319834Y-71000001D01*
X91205549Y-71114286D01*
X91148406Y-71342858D01*
X91148406Y-71742858D01*
X91205549Y-71971429D01*
X91319834Y-72085715D01*
X91434120Y-72142858D01*
X91662691Y-72142858D01*
X91776977Y-72085715D01*
X91891263Y-71971429D01*
X91948406Y-71742858D01*
X91948406Y-71342858D01*
X91891263Y-71114286D01*
X91776977Y-71000001D01*
X91662691Y-70942858D01*
X90005549Y-71000001D02*
X90119834Y-70942858D01*
X90291263Y-70942858D01*
X90462691Y-71000001D01*
X90576977Y-71114286D01*
X90634120Y-71228572D01*
X90691263Y-71457143D01*
X90691263Y-71628572D01*
X90634120Y-71857143D01*
X90576977Y-71971429D01*
X90462691Y-72085715D01*
X90291263Y-72142858D01*
X90176977Y-72142858D01*
X90005549Y-72085715D01*
X89948406Y-72028572D01*
X89948406Y-71628572D01*
X90176977Y-71628572D01*
X89205549Y-70942858D02*
X88976977Y-70942858D01*
X88862691Y-71000001D01*
X88748406Y-71114286D01*
X88691263Y-71342858D01*
X88691263Y-71742858D01*
X88748406Y-71971429D01*
X88862691Y-72085715D01*
X88976977Y-72142858D01*
X89205549Y-72142858D01*
X89319834Y-72085715D01*
X89434120Y-71971429D01*
X89491263Y-71742858D01*
X89491263Y-71342858D01*
X89434120Y-71114286D01*
X89319834Y-71000001D01*
X89205549Y-70942858D01*
X87262691Y-72142858D02*
X87262691Y-70942858D01*
X86748406Y-72085715D02*
X86576977Y-72142858D01*
X86291263Y-72142858D01*
X86176977Y-72085715D01*
X86119834Y-72028572D01*
X86062691Y-71914286D01*
X86062691Y-71800001D01*
X86119834Y-71685715D01*
X86176977Y-71628572D01*
X86291263Y-71571429D01*
X86519834Y-71514286D01*
X86634120Y-71457143D01*
X86691263Y-71400001D01*
X86748406Y-71285715D01*
X86748406Y-71171429D01*
X86691263Y-71057143D01*
X86634120Y-71000001D01*
X86519834Y-70942858D01*
X86234120Y-70942858D01*
X86062691Y-71000001D01*
X85548406Y-72142858D02*
X85548406Y-70942858D01*
X85091263Y-70942858D01*
X84976977Y-71000001D01*
X84919834Y-71057143D01*
X84862691Y-71171429D01*
X84862691Y-71342858D01*
X84919834Y-71457143D01*
X84976977Y-71514286D01*
X85091263Y-71571429D01*
X85548406Y-71571429D01*
D13*
X93165691Y-69691858D02*
X92308549Y-69691858D01*
X92137120Y-69749001D01*
X92022834Y-69863286D01*
X91965691Y-70034715D01*
X91965691Y-70149001D01*
X91965691Y-68549001D02*
X91965691Y-69120429D01*
X93165691Y-69120429D01*
X92079977Y-67463286D02*
X92022834Y-67520429D01*
X91965691Y-67691858D01*
X91965691Y-67806143D01*
X92022834Y-67977572D01*
X92137120Y-68091858D01*
X92251406Y-68149001D01*
X92479977Y-68206143D01*
X92651406Y-68206143D01*
X92879977Y-68149001D01*
X92994263Y-68091858D01*
X93108549Y-67977572D01*
X93165691Y-67806143D01*
X93165691Y-67691858D01*
X93108549Y-67520429D01*
X93051406Y-67463286D01*
X93165691Y-66606143D02*
X92308549Y-66606143D01*
X92137120Y-66663286D01*
X92022834Y-66777572D01*
X91965691Y-66949001D01*
X91965691Y-67063286D01*
X91965691Y-65463286D02*
X91965691Y-66034715D01*
X93165691Y-66034715D01*
X92079977Y-64377572D02*
X92022834Y-64434715D01*
X91965691Y-64606143D01*
X91965691Y-64720429D01*
X92022834Y-64891858D01*
X92137120Y-65006143D01*
X92251406Y-65063286D01*
X92479977Y-65120429D01*
X92651406Y-65120429D01*
X92879977Y-65063286D01*
X92994263Y-65006143D01*
X93108549Y-64891858D01*
X93165691Y-64720429D01*
X93165691Y-64606143D01*
X93108549Y-64434715D01*
X93051406Y-64377572D01*
X93165691Y-63520429D02*
X92308549Y-63520429D01*
X92137120Y-63577572D01*
X92022834Y-63691858D01*
X91965691Y-63863286D01*
X91965691Y-63977572D01*
X91965691Y-62377572D02*
X91965691Y-62949001D01*
X93165691Y-62949001D01*
X92079977Y-61291858D02*
X92022834Y-61349001D01*
X91965691Y-61520429D01*
X91965691Y-61634715D01*
X92022834Y-61806143D01*
X92137120Y-61920429D01*
X92251406Y-61977572D01*
X92479977Y-62034715D01*
X92651406Y-62034715D01*
X92879977Y-61977572D01*
X92994263Y-61920429D01*
X93108549Y-61806143D01*
X93165691Y-61634715D01*
X93165691Y-61520429D01*
X93108549Y-61349001D01*
X93051406Y-61291858D01*
X93165691Y-60434715D02*
X92308549Y-60434715D01*
X92137120Y-60491858D01*
X92022834Y-60606143D01*
X91965691Y-60777572D01*
X91965691Y-60891858D01*
X91965691Y-59291858D02*
X91965691Y-59863286D01*
X93165691Y-59863286D01*
X92079977Y-58206143D02*
X92022834Y-58263286D01*
X91965691Y-58434715D01*
X91965691Y-58549001D01*
X92022834Y-58720429D01*
X92137120Y-58834715D01*
X92251406Y-58891858D01*
X92479977Y-58949001D01*
X92651406Y-58949001D01*
X92879977Y-58891858D01*
X92994263Y-58834715D01*
X93108549Y-58720429D01*
X93165691Y-58549001D01*
X93165691Y-58434715D01*
X93108549Y-58263286D01*
X93051406Y-58206143D01*
D11*
X75902775Y-73552381D02*
X75902775Y-72885715D01*
X75902775Y-72552381D02*
X75950394Y-72600001D01*
X75902775Y-72647620D01*
X75855155Y-72600001D01*
X75902775Y-72552381D01*
X75902775Y-72647620D01*
X75283727Y-73552381D02*
X75378965Y-73504762D01*
X75426584Y-73457143D01*
X75474203Y-73361905D01*
X75474203Y-73076191D01*
X75426584Y-72980953D01*
X75378965Y-72933334D01*
X75283727Y-72885715D01*
X75140870Y-72885715D01*
X75045632Y-72933334D01*
X74998013Y-72980953D01*
X74950394Y-73076191D01*
X74950394Y-73361905D01*
X74998013Y-73457143D01*
X75045632Y-73504762D01*
X75140870Y-73552381D01*
X75283727Y-73552381D01*
X74521822Y-73552381D02*
X74521822Y-72552381D01*
X74093251Y-73552381D02*
X74093251Y-73028572D01*
X74140870Y-72933334D01*
X74236108Y-72885715D01*
X74378965Y-72885715D01*
X74474203Y-72933334D01*
X74521822Y-72980953D01*
X73617060Y-73552381D02*
X73617060Y-72885715D01*
X73617060Y-72552381D02*
X73664679Y-72600001D01*
X73617060Y-72647620D01*
X73569441Y-72600001D01*
X73617060Y-72552381D01*
X73617060Y-72647620D01*
X73140870Y-72885715D02*
X73140870Y-73885715D01*
X73140870Y-72933334D02*
X73045632Y-72885715D01*
X72855155Y-72885715D01*
X72759917Y-72933334D01*
X72712298Y-72980953D01*
X72664679Y-73076191D01*
X72664679Y-73361905D01*
X72712298Y-73457143D01*
X72759917Y-73504762D01*
X72855155Y-73552381D01*
X73045632Y-73552381D01*
X73140870Y-73504762D01*
X72236108Y-72885715D02*
X72236108Y-73885715D01*
X72236108Y-72933334D02*
X72140870Y-72885715D01*
X71950394Y-72885715D01*
X71855155Y-72933334D01*
X71807536Y-72980953D01*
X71759917Y-73076191D01*
X71759917Y-73361905D01*
X71807536Y-73457143D01*
X71855155Y-73504762D01*
X71950394Y-73552381D01*
X72140870Y-73552381D01*
X72236108Y-73504762D01*
X71188489Y-73552381D02*
X71283727Y-73504762D01*
X71331346Y-73457143D01*
X71378965Y-73361905D01*
X71378965Y-73076191D01*
X71331346Y-72980953D01*
X71283727Y-72933334D01*
X71188489Y-72885715D01*
X71045632Y-72885715D01*
X70950394Y-72933334D01*
X70902775Y-72980953D01*
X70855155Y-73076191D01*
X70855155Y-73361905D01*
X70902775Y-73457143D01*
X70950394Y-73504762D01*
X71045632Y-73552381D01*
X71188489Y-73552381D01*
D12*
X77488489Y-72142858D02*
X77488489Y-70942858D01*
X77031346Y-70942858D01*
X76917060Y-71000001D01*
X76859917Y-71057143D01*
X76802775Y-71171429D01*
X76802775Y-71342858D01*
X76859917Y-71457143D01*
X76917060Y-71514286D01*
X77031346Y-71571429D01*
X77488489Y-71571429D01*
X76059917Y-70942858D02*
X75831346Y-70942858D01*
X75717060Y-71000001D01*
X75602775Y-71114286D01*
X75545632Y-71342858D01*
X75545632Y-71742858D01*
X75602775Y-71971429D01*
X75717060Y-72085715D01*
X75831346Y-72142858D01*
X76059917Y-72142858D01*
X76174203Y-72085715D01*
X76288489Y-71971429D01*
X76345632Y-71742858D01*
X76345632Y-71342858D01*
X76288489Y-71114286D01*
X76174203Y-71000001D01*
X76059917Y-70942858D01*
X74402775Y-71000001D02*
X74517060Y-70942858D01*
X74688489Y-70942858D01*
X74859917Y-71000001D01*
X74974203Y-71114286D01*
X75031346Y-71228572D01*
X75088489Y-71457143D01*
X75088489Y-71628572D01*
X75031346Y-71857143D01*
X74974203Y-71971429D01*
X74859917Y-72085715D01*
X74688489Y-72142858D01*
X74574203Y-72142858D01*
X74402775Y-72085715D01*
X74345632Y-72028572D01*
X74345632Y-71628572D01*
X74574203Y-71628572D01*
X73602775Y-70942858D02*
X73374203Y-70942858D01*
X73259917Y-71000001D01*
X73145632Y-71114286D01*
X73088489Y-71342858D01*
X73088489Y-71742858D01*
X73145632Y-71971429D01*
X73259917Y-72085715D01*
X73374203Y-72142858D01*
X73602775Y-72142858D01*
X73717060Y-72085715D01*
X73831346Y-71971429D01*
X73888489Y-71742858D01*
X73888489Y-71342858D01*
X73831346Y-71114286D01*
X73717060Y-71000001D01*
X73602775Y-70942858D01*
X71659917Y-72142858D02*
X71659917Y-70942858D01*
X71145632Y-72085715D02*
X70974203Y-72142858D01*
X70688489Y-72142858D01*
X70574203Y-72085715D01*
X70517060Y-72028572D01*
X70459917Y-71914286D01*
X70459917Y-71800001D01*
X70517060Y-71685715D01*
X70574203Y-71628572D01*
X70688489Y-71571429D01*
X70917060Y-71514286D01*
X71031346Y-71457143D01*
X71088489Y-71400001D01*
X71145632Y-71285715D01*
X71145632Y-71171429D01*
X71088489Y-71057143D01*
X71031346Y-71000001D01*
X70917060Y-70942858D01*
X70631346Y-70942858D01*
X70459917Y-71000001D01*
X69945632Y-72142858D02*
X69945632Y-70942858D01*
X69488489Y-70942858D01*
X69374203Y-71000001D01*
X69317060Y-71057143D01*
X69259917Y-71171429D01*
X69259917Y-71342858D01*
X69317060Y-71457143D01*
X69374203Y-71514286D01*
X69488489Y-71571429D01*
X69945632Y-71571429D01*
D13*
X77562917Y-69691858D02*
X76705775Y-69691858D01*
X76534346Y-69749001D01*
X76420060Y-69863286D01*
X76362917Y-70034715D01*
X76362917Y-70149001D01*
X76362917Y-68549001D02*
X76362917Y-69120429D01*
X77562917Y-69120429D01*
X76477203Y-67463286D02*
X76420060Y-67520429D01*
X76362917Y-67691858D01*
X76362917Y-67806143D01*
X76420060Y-67977572D01*
X76534346Y-68091858D01*
X76648632Y-68149001D01*
X76877203Y-68206143D01*
X77048632Y-68206143D01*
X77277203Y-68149001D01*
X77391489Y-68091858D01*
X77505775Y-67977572D01*
X77562917Y-67806143D01*
X77562917Y-67691858D01*
X77505775Y-67520429D01*
X77448632Y-67463286D01*
X77562917Y-66606143D02*
X76705775Y-66606143D01*
X76534346Y-66663286D01*
X76420060Y-66777572D01*
X76362917Y-66949001D01*
X76362917Y-67063286D01*
X76362917Y-65463286D02*
X76362917Y-66034715D01*
X77562917Y-66034715D01*
X76477203Y-64377572D02*
X76420060Y-64434715D01*
X76362917Y-64606143D01*
X76362917Y-64720429D01*
X76420060Y-64891858D01*
X76534346Y-65006143D01*
X76648632Y-65063286D01*
X76877203Y-65120429D01*
X77048632Y-65120429D01*
X77277203Y-65063286D01*
X77391489Y-65006143D01*
X77505775Y-64891858D01*
X77562917Y-64720429D01*
X77562917Y-64606143D01*
X77505775Y-64434715D01*
X77448632Y-64377572D01*
X77562917Y-63520429D02*
X76705775Y-63520429D01*
X76534346Y-63577572D01*
X76420060Y-63691858D01*
X76362917Y-63863286D01*
X76362917Y-63977572D01*
X76362917Y-62377572D02*
X76362917Y-62949001D01*
X77562917Y-62949001D01*
X76477203Y-61291858D02*
X76420060Y-61349001D01*
X76362917Y-61520429D01*
X76362917Y-61634715D01*
X76420060Y-61806143D01*
X76534346Y-61920429D01*
X76648632Y-61977572D01*
X76877203Y-62034715D01*
X77048632Y-62034715D01*
X77277203Y-61977572D01*
X77391489Y-61920429D01*
X77505775Y-61806143D01*
X77562917Y-61634715D01*
X77562917Y-61520429D01*
X77505775Y-61349001D01*
X77448632Y-61291858D01*
X77562917Y-60434715D02*
X76705775Y-60434715D01*
X76534346Y-60491858D01*
X76420060Y-60606143D01*
X76362917Y-60777572D01*
X76362917Y-60891858D01*
X76362917Y-59291858D02*
X76362917Y-59863286D01*
X77562917Y-59863286D01*
X76477203Y-58206143D02*
X76420060Y-58263286D01*
X76362917Y-58434715D01*
X76362917Y-58549001D01*
X76420060Y-58720429D01*
X76534346Y-58834715D01*
X76648632Y-58891858D01*
X76877203Y-58949001D01*
X77048632Y-58949001D01*
X77277203Y-58891858D01*
X77391489Y-58834715D01*
X77505775Y-58720429D01*
X77562917Y-58549001D01*
X77562917Y-58434715D01*
X77505775Y-58263286D01*
X77448632Y-58206143D01*
D11*
X60300001Y-73552381D02*
X60300001Y-72885715D01*
X60300001Y-72552381D02*
X60347620Y-72600001D01*
X60300001Y-72647620D01*
X60252381Y-72600001D01*
X60300001Y-72552381D01*
X60300001Y-72647620D01*
X59680953Y-73552381D02*
X59776191Y-73504762D01*
X59823810Y-73457143D01*
X59871429Y-73361905D01*
X59871429Y-73076191D01*
X59823810Y-72980953D01*
X59776191Y-72933334D01*
X59680953Y-72885715D01*
X59538096Y-72885715D01*
X59442858Y-72933334D01*
X59395239Y-72980953D01*
X59347620Y-73076191D01*
X59347620Y-73361905D01*
X59395239Y-73457143D01*
X59442858Y-73504762D01*
X59538096Y-73552381D01*
X59680953Y-73552381D01*
X58919048Y-73552381D02*
X58919048Y-72552381D01*
X58490477Y-73552381D02*
X58490477Y-73028572D01*
X58538096Y-72933334D01*
X58633334Y-72885715D01*
X58776191Y-72885715D01*
X58871429Y-72933334D01*
X58919048Y-72980953D01*
X58014286Y-73552381D02*
X58014286Y-72885715D01*
X58014286Y-72552381D02*
X58061905Y-72600001D01*
X58014286Y-72647620D01*
X57966667Y-72600001D01*
X58014286Y-72552381D01*
X58014286Y-72647620D01*
X57538096Y-72885715D02*
X57538096Y-73885715D01*
X57538096Y-72933334D02*
X57442858Y-72885715D01*
X57252381Y-72885715D01*
X57157143Y-72933334D01*
X57109524Y-72980953D01*
X57061905Y-73076191D01*
X57061905Y-73361905D01*
X57109524Y-73457143D01*
X57157143Y-73504762D01*
X57252381Y-73552381D01*
X57442858Y-73552381D01*
X57538096Y-73504762D01*
X56633334Y-72885715D02*
X56633334Y-73885715D01*
X56633334Y-72933334D02*
X56538096Y-72885715D01*
X56347620Y-72885715D01*
X56252381Y-72933334D01*
X56204762Y-72980953D01*
X56157143Y-73076191D01*
X56157143Y-73361905D01*
X56204762Y-73457143D01*
X56252381Y-73504762D01*
X56347620Y-73552381D01*
X56538096Y-73552381D01*
X56633334Y-73504762D01*
X55585715Y-73552381D02*
X55680953Y-73504762D01*
X55728572Y-73457143D01*
X55776191Y-73361905D01*
X55776191Y-73076191D01*
X55728572Y-72980953D01*
X55680953Y-72933334D01*
X55585715Y-72885715D01*
X55442858Y-72885715D01*
X55347620Y-72933334D01*
X55300001Y-72980953D01*
X55252381Y-73076191D01*
X55252381Y-73361905D01*
X55300001Y-73457143D01*
X55347620Y-73504762D01*
X55442858Y-73552381D01*
X55585715Y-73552381D01*
D12*
X61885715Y-72142858D02*
X61885715Y-70942858D01*
X61428572Y-70942858D01*
X61314286Y-71000001D01*
X61257143Y-71057143D01*
X61200001Y-71171429D01*
X61200001Y-71342858D01*
X61257143Y-71457143D01*
X61314286Y-71514286D01*
X61428572Y-71571429D01*
X61885715Y-71571429D01*
X60457143Y-70942858D02*
X60228572Y-70942858D01*
X60114286Y-71000001D01*
X60000001Y-71114286D01*
X59942858Y-71342858D01*
X59942858Y-71742858D01*
X60000001Y-71971429D01*
X60114286Y-72085715D01*
X60228572Y-72142858D01*
X60457143Y-72142858D01*
X60571429Y-72085715D01*
X60685715Y-71971429D01*
X60742858Y-71742858D01*
X60742858Y-71342858D01*
X60685715Y-71114286D01*
X60571429Y-71000001D01*
X60457143Y-70942858D01*
X58800001Y-71000001D02*
X58914286Y-70942858D01*
X59085715Y-70942858D01*
X59257143Y-71000001D01*
X59371429Y-71114286D01*
X59428572Y-71228572D01*
X59485715Y-71457143D01*
X59485715Y-71628572D01*
X59428572Y-71857143D01*
X59371429Y-71971429D01*
X59257143Y-72085715D01*
X59085715Y-72142858D01*
X58971429Y-72142858D01*
X58800001Y-72085715D01*
X58742858Y-72028572D01*
X58742858Y-71628572D01*
X58971429Y-71628572D01*
X58000001Y-70942858D02*
X57771429Y-70942858D01*
X57657143Y-71000001D01*
X57542858Y-71114286D01*
X57485715Y-71342858D01*
X57485715Y-71742858D01*
X57542858Y-71971429D01*
X57657143Y-72085715D01*
X57771429Y-72142858D01*
X58000001Y-72142858D01*
X58114286Y-72085715D01*
X58228572Y-71971429D01*
X58285715Y-71742858D01*
X58285715Y-71342858D01*
X58228572Y-71114286D01*
X58114286Y-71000001D01*
X58000001Y-70942858D01*
X56057143Y-72142858D02*
X56057143Y-70942858D01*
X55542858Y-72085715D02*
X55371429Y-72142858D01*
X55085715Y-72142858D01*
X54971429Y-72085715D01*
X54914286Y-72028572D01*
X54857143Y-71914286D01*
X54857143Y-71800001D01*
X54914286Y-71685715D01*
X54971429Y-71628572D01*
X55085715Y-71571429D01*
X55314286Y-71514286D01*
X55428572Y-71457143D01*
X55485715Y-71400001D01*
X55542858Y-71285715D01*
X55542858Y-71171429D01*
X55485715Y-71057143D01*
X55428572Y-71000001D01*
X55314286Y-70942858D01*
X55028572Y-70942858D01*
X54857143Y-71000001D01*
X54342858Y-72142858D02*
X54342858Y-70942858D01*
X53885715Y-70942858D01*
X53771429Y-71000001D01*
X53714286Y-71057143D01*
X53657143Y-71171429D01*
X53657143Y-71342858D01*
X53714286Y-71457143D01*
X53771429Y-71514286D01*
X53885715Y-71571429D01*
X54342858Y-71571429D01*
D13*
X61960143Y-69691858D02*
X61103001Y-69691858D01*
X60931572Y-69749001D01*
X60817286Y-69863286D01*
X60760143Y-70034715D01*
X60760143Y-70149001D01*
X60760143Y-68549001D02*
X60760143Y-69120429D01*
X61960143Y-69120429D01*
X60874429Y-67463286D02*
X60817286Y-67520429D01*
X60760143Y-67691858D01*
X60760143Y-67806143D01*
X60817286Y-67977572D01*
X60931572Y-68091858D01*
X61045858Y-68149001D01*
X61274429Y-68206143D01*
X61445858Y-68206143D01*
X61674429Y-68149001D01*
X61788715Y-68091858D01*
X61903001Y-67977572D01*
X61960143Y-67806143D01*
X61960143Y-67691858D01*
X61903001Y-67520429D01*
X61845858Y-67463286D01*
X61960143Y-66606143D02*
X61103001Y-66606143D01*
X60931572Y-66663286D01*
X60817286Y-66777572D01*
X60760143Y-66949001D01*
X60760143Y-67063286D01*
X60760143Y-65463286D02*
X60760143Y-66034715D01*
X61960143Y-66034715D01*
X60874429Y-64377572D02*
X60817286Y-64434715D01*
X60760143Y-64606143D01*
X60760143Y-64720429D01*
X60817286Y-64891858D01*
X60931572Y-65006143D01*
X61045858Y-65063286D01*
X61274429Y-65120429D01*
X61445858Y-65120429D01*
X61674429Y-65063286D01*
X61788715Y-65006143D01*
X61903001Y-64891858D01*
X61960143Y-64720429D01*
X61960143Y-64606143D01*
X61903001Y-64434715D01*
X61845858Y-64377572D01*
X61960143Y-63520429D02*
X61103001Y-63520429D01*
X60931572Y-63577572D01*
X60817286Y-63691858D01*
X60760143Y-63863286D01*
X60760143Y-63977572D01*
X60760143Y-62377572D02*
X60760143Y-62949001D01*
X61960143Y-62949001D01*
X60874429Y-61291858D02*
X60817286Y-61349001D01*
X60760143Y-61520429D01*
X60760143Y-61634715D01*
X60817286Y-61806143D01*
X60931572Y-61920429D01*
X61045858Y-61977572D01*
X61274429Y-62034715D01*
X61445858Y-62034715D01*
X61674429Y-61977572D01*
X61788715Y-61920429D01*
X61903001Y-61806143D01*
X61960143Y-61634715D01*
X61960143Y-61520429D01*
X61903001Y-61349001D01*
X61845858Y-61291858D01*
X61960143Y-60434715D02*
X61103001Y-60434715D01*
X60931572Y-60491858D01*
X60817286Y-60606143D01*
X60760143Y-60777572D01*
X60760143Y-60891858D01*
X60760143Y-59291858D02*
X60760143Y-59863286D01*
X61960143Y-59863286D01*
X60874429Y-58206143D02*
X60817286Y-58263286D01*
X60760143Y-58434715D01*
X60760143Y-58549001D01*
X60817286Y-58720429D01*
X60931572Y-58834715D01*
X61045858Y-58891858D01*
X61274429Y-58949001D01*
X61445858Y-58949001D01*
X61674429Y-58891858D01*
X61788715Y-58834715D01*
X61903001Y-58720429D01*
X61960143Y-58549001D01*
X61960143Y-58434715D01*
X61903001Y-58263286D01*
X61845858Y-58206143D01*
D14*
%TO.C,REF\u002A\u002A*%
X128013870Y-50000000D03*
%TD*%
%TO.C,REF\u002A\u002A*%
X128013870Y-50750000D03*
%TD*%
%TO.C,REF\u002A\u002A*%
X128013870Y-51500000D03*
%TD*%
%TO.C,REF\u002A\u002A*%
X128013870Y-52250001D03*
%TD*%
%TO.C,REF\u002A\u002A*%
X128013870Y-53000001D03*
%TD*%
%TO.C,REF\u002A\u002A*%
X128013870Y-53750001D03*
%TD*%
%TO.C,REF\u002A\u002A*%
X128013870Y-54500002D03*
%TD*%
%TO.C,REF\u002A\u002A*%
X128013870Y-55250002D03*
%TD*%
%TO.C,REF\u002A\u002A*%
X128013870Y-56000002D03*
%TD*%
%TO.C,REF\u002A\u002A*%
X128013870Y-56750003D03*
%TD*%
%TO.C,REF\u002A\u002A*%
X128013870Y-57500003D03*
%TD*%
%TO.C,REF\u002A\u002A*%
X128013870Y-79250013D03*
%TD*%
%TO.C,REF\u002A\u002A*%
X128013870Y-80000013D03*
%TD*%
%TO.C,REF\u002A\u002A*%
X128013870Y-80750014D03*
%TD*%
%TO.C,REF\u002A\u002A*%
X128013870Y-81500014D03*
%TD*%
%TO.C,REF\u002A\u002A*%
X128013870Y-82250014D03*
%TD*%
%TO.C,REF\u002A\u002A*%
X128013870Y-83000015D03*
%TD*%
%TO.C,REF\u002A\u002A*%
X128013870Y-83750015D03*
%TD*%
%TO.C,REF\u002A\u002A*%
X128013870Y-84500015D03*
%TD*%
%TO.C,REF\u002A\u002A*%
X128013870Y-85250016D03*
%TD*%
%TO.C,REF\u002A\u002A*%
X128013870Y-86000016D03*
%TD*%
%TO.C,REF\u002A\u002A*%
X128013870Y-107750026D03*
%TD*%
%TO.C,REF\u002A\u002A*%
X128013870Y-108500026D03*
%TD*%
%TO.C,REF\u002A\u002A*%
X128013870Y-109250027D03*
%TD*%
%TO.C,REF\u002A\u002A*%
X128013870Y-110000027D03*
%TD*%
%TO.C,REF\u002A\u002A*%
X128013870Y-110750027D03*
%TD*%
%TO.C,REF\u002A\u002A*%
X128013870Y-111500028D03*
%TD*%
%TO.C,REF\u002A\u002A*%
X128013870Y-112250028D03*
%TD*%
%TO.C,REF\u002A\u002A*%
X128013870Y-113000028D03*
%TD*%
%TO.C,REF\u002A\u002A*%
X128013870Y-113750029D03*
%TD*%
%TO.C,REF\u002A\u002A*%
X128013870Y-114500029D03*
%TD*%
%TO.C,REF\u002A\u002A*%
X112411096Y-50000000D03*
%TD*%
%TO.C,REF\u002A\u002A*%
X112411096Y-50750000D03*
%TD*%
%TO.C,REF\u002A\u002A*%
X112411096Y-51500000D03*
%TD*%
%TO.C,REF\u002A\u002A*%
X112411096Y-52250001D03*
%TD*%
%TO.C,REF\u002A\u002A*%
X112411096Y-53000001D03*
%TD*%
%TO.C,REF\u002A\u002A*%
X112411096Y-53750001D03*
%TD*%
%TO.C,REF\u002A\u002A*%
X112411096Y-54500002D03*
%TD*%
%TO.C,REF\u002A\u002A*%
X112411096Y-55250002D03*
%TD*%
%TO.C,REF\u002A\u002A*%
X112411096Y-56000002D03*
%TD*%
%TO.C,REF\u002A\u002A*%
X112411096Y-56750003D03*
%TD*%
%TO.C,REF\u002A\u002A*%
X112411096Y-57500003D03*
%TD*%
%TO.C,REF\u002A\u002A*%
X112411096Y-79250013D03*
%TD*%
%TO.C,REF\u002A\u002A*%
X112411096Y-80000013D03*
%TD*%
%TO.C,REF\u002A\u002A*%
X112411096Y-80750014D03*
%TD*%
%TO.C,REF\u002A\u002A*%
X112411096Y-81500014D03*
%TD*%
%TO.C,REF\u002A\u002A*%
X112411096Y-82250014D03*
%TD*%
%TO.C,REF\u002A\u002A*%
X112411096Y-83000015D03*
%TD*%
%TO.C,REF\u002A\u002A*%
X112411096Y-83750015D03*
%TD*%
%TO.C,REF\u002A\u002A*%
X112411096Y-84500015D03*
%TD*%
%TO.C,REF\u002A\u002A*%
X112411096Y-85250016D03*
%TD*%
%TO.C,REF\u002A\u002A*%
X112411096Y-86000016D03*
%TD*%
%TO.C,REF\u002A\u002A*%
X112411096Y-107750026D03*
%TD*%
%TO.C,REF\u002A\u002A*%
X112411096Y-108500026D03*
%TD*%
%TO.C,REF\u002A\u002A*%
X112411096Y-109250027D03*
%TD*%
%TO.C,REF\u002A\u002A*%
X112411096Y-110000027D03*
%TD*%
%TO.C,REF\u002A\u002A*%
X112411096Y-110750027D03*
%TD*%
%TO.C,REF\u002A\u002A*%
X112411096Y-111500028D03*
%TD*%
%TO.C,REF\u002A\u002A*%
X112411096Y-112250028D03*
%TD*%
%TO.C,REF\u002A\u002A*%
X112411096Y-113000028D03*
%TD*%
%TO.C,REF\u002A\u002A*%
X112411096Y-113750029D03*
%TD*%
%TO.C,REF\u002A\u002A*%
X112411096Y-114500029D03*
%TD*%
%TO.C,REF\u002A\u002A*%
X96808322Y-50000000D03*
%TD*%
%TO.C,REF\u002A\u002A*%
X96808322Y-50750000D03*
%TD*%
%TO.C,REF\u002A\u002A*%
X96808322Y-51500000D03*
%TD*%
%TO.C,REF\u002A\u002A*%
X96808322Y-52250001D03*
%TD*%
%TO.C,REF\u002A\u002A*%
X96808322Y-53000001D03*
%TD*%
%TO.C,REF\u002A\u002A*%
X96808322Y-53750001D03*
%TD*%
%TO.C,REF\u002A\u002A*%
X96808322Y-54500002D03*
%TD*%
%TO.C,REF\u002A\u002A*%
X96808322Y-55250002D03*
%TD*%
%TO.C,REF\u002A\u002A*%
X96808322Y-56000002D03*
%TD*%
%TO.C,REF\u002A\u002A*%
X96808322Y-56750003D03*
%TD*%
%TO.C,REF\u002A\u002A*%
X96808322Y-57500003D03*
%TD*%
%TO.C,REF\u002A\u002A*%
X96808322Y-78500013D03*
%TD*%
%TO.C,REF\u002A\u002A*%
X96808322Y-79250013D03*
%TD*%
%TO.C,REF\u002A\u002A*%
X96808322Y-80000013D03*
%TD*%
%TO.C,REF\u002A\u002A*%
X96808322Y-80750014D03*
%TD*%
%TO.C,REF\u002A\u002A*%
X96808322Y-81500014D03*
%TD*%
%TO.C,REF\u002A\u002A*%
X96808322Y-82250014D03*
%TD*%
%TO.C,REF\u002A\u002A*%
X96808322Y-83000015D03*
%TD*%
%TO.C,REF\u002A\u002A*%
X96808322Y-83750015D03*
%TD*%
%TO.C,REF\u002A\u002A*%
X96808322Y-84500015D03*
%TD*%
%TO.C,REF\u002A\u002A*%
X96808322Y-85250016D03*
%TD*%
%TO.C,REF\u002A\u002A*%
X96808322Y-86000016D03*
%TD*%
%TO.C,REF\u002A\u002A*%
X96808322Y-107000026D03*
%TD*%
%TO.C,REF\u002A\u002A*%
X96808322Y-107750026D03*
%TD*%
%TO.C,REF\u002A\u002A*%
X96808322Y-108500026D03*
%TD*%
%TO.C,REF\u002A\u002A*%
X96808322Y-109250027D03*
%TD*%
%TO.C,REF\u002A\u002A*%
X96808322Y-110000027D03*
%TD*%
%TO.C,REF\u002A\u002A*%
X96808322Y-110750027D03*
%TD*%
%TO.C,REF\u002A\u002A*%
X96808322Y-111500028D03*
%TD*%
%TO.C,REF\u002A\u002A*%
X96808322Y-112250028D03*
%TD*%
%TO.C,REF\u002A\u002A*%
X96808322Y-113000028D03*
%TD*%
%TO.C,REF\u002A\u002A*%
X96808322Y-113750029D03*
%TD*%
%TO.C,REF\u002A\u002A*%
X96808322Y-114500029D03*
%TD*%
%TO.C,REF\u002A\u002A*%
X81205548Y-50000000D03*
%TD*%
%TO.C,REF\u002A\u002A*%
X81205548Y-50750000D03*
%TD*%
%TO.C,REF\u002A\u002A*%
X81205548Y-51500000D03*
%TD*%
%TO.C,REF\u002A\u002A*%
X81205548Y-52250001D03*
%TD*%
%TO.C,REF\u002A\u002A*%
X81205548Y-53000001D03*
%TD*%
%TO.C,REF\u002A\u002A*%
X81205548Y-53750001D03*
%TD*%
%TO.C,REF\u002A\u002A*%
X81205548Y-54500002D03*
%TD*%
%TO.C,REF\u002A\u002A*%
X81205548Y-55250002D03*
%TD*%
%TO.C,REF\u002A\u002A*%
X81205548Y-56000002D03*
%TD*%
%TO.C,REF\u002A\u002A*%
X81205548Y-56750003D03*
%TD*%
%TO.C,REF\u002A\u002A*%
X81205548Y-57500003D03*
%TD*%
%TO.C,REF\u002A\u002A*%
X81205548Y-79250013D03*
%TD*%
%TO.C,REF\u002A\u002A*%
X81205548Y-80000013D03*
%TD*%
%TO.C,REF\u002A\u002A*%
X81205548Y-80750014D03*
%TD*%
%TO.C,REF\u002A\u002A*%
X81205548Y-81500014D03*
%TD*%
%TO.C,REF\u002A\u002A*%
X81205548Y-82250014D03*
%TD*%
%TO.C,REF\u002A\u002A*%
X81205548Y-83000015D03*
%TD*%
%TO.C,REF\u002A\u002A*%
X81205548Y-83750015D03*
%TD*%
%TO.C,REF\u002A\u002A*%
X81205548Y-84500015D03*
%TD*%
%TO.C,REF\u002A\u002A*%
X81205548Y-85250016D03*
%TD*%
%TO.C,REF\u002A\u002A*%
X81205548Y-86000016D03*
%TD*%
%TO.C,REF\u002A\u002A*%
X81205548Y-107750026D03*
%TD*%
%TO.C,REF\u002A\u002A*%
X81205548Y-108500026D03*
%TD*%
%TO.C,REF\u002A\u002A*%
X81205548Y-109250027D03*
%TD*%
%TO.C,REF\u002A\u002A*%
X81205548Y-110000027D03*
%TD*%
%TO.C,REF\u002A\u002A*%
X81205548Y-110750027D03*
%TD*%
%TO.C,REF\u002A\u002A*%
X81205548Y-111500028D03*
%TD*%
%TO.C,REF\u002A\u002A*%
X81205548Y-112250028D03*
%TD*%
%TO.C,REF\u002A\u002A*%
X81205548Y-113000028D03*
%TD*%
%TO.C,REF\u002A\u002A*%
X81205548Y-113750029D03*
%TD*%
%TO.C,REF\u002A\u002A*%
X81205548Y-114500029D03*
%TD*%
%TO.C,REF\u002A\u002A*%
X65602774Y-50000000D03*
%TD*%
%TO.C,REF\u002A\u002A*%
X65602774Y-50750000D03*
%TD*%
%TO.C,REF\u002A\u002A*%
X65602774Y-51500000D03*
%TD*%
%TO.C,REF\u002A\u002A*%
X65602774Y-52250001D03*
%TD*%
%TO.C,REF\u002A\u002A*%
X65602774Y-53000001D03*
%TD*%
%TO.C,REF\u002A\u002A*%
X65602774Y-53750001D03*
%TD*%
%TO.C,REF\u002A\u002A*%
X65602774Y-54500002D03*
%TD*%
%TO.C,REF\u002A\u002A*%
X65602774Y-55250002D03*
%TD*%
%TO.C,REF\u002A\u002A*%
X65602774Y-56000002D03*
%TD*%
%TO.C,REF\u002A\u002A*%
X65602774Y-56750003D03*
%TD*%
%TO.C,REF\u002A\u002A*%
X65602774Y-57500003D03*
%TD*%
%TO.C,REF\u002A\u002A*%
X65602774Y-79250013D03*
%TD*%
%TO.C,REF\u002A\u002A*%
X65602774Y-80000013D03*
%TD*%
%TO.C,REF\u002A\u002A*%
X65602774Y-80750014D03*
%TD*%
%TO.C,REF\u002A\u002A*%
X65602774Y-81500014D03*
%TD*%
%TO.C,REF\u002A\u002A*%
X65602774Y-82250014D03*
%TD*%
%TO.C,REF\u002A\u002A*%
X65602774Y-83000015D03*
%TD*%
%TO.C,REF\u002A\u002A*%
X65602774Y-83750015D03*
%TD*%
%TO.C,REF\u002A\u002A*%
X65602774Y-84500015D03*
%TD*%
%TO.C,REF\u002A\u002A*%
X65602774Y-85250016D03*
%TD*%
%TO.C,REF\u002A\u002A*%
X65602774Y-86000016D03*
%TD*%
%TO.C,REF\u002A\u002A*%
X65602774Y-107750026D03*
%TD*%
%TO.C,REF\u002A\u002A*%
X65602774Y-108500026D03*
%TD*%
%TO.C,REF\u002A\u002A*%
X65602774Y-109250027D03*
%TD*%
%TO.C,REF\u002A\u002A*%
X65602774Y-110000027D03*
%TD*%
%TO.C,REF\u002A\u002A*%
X65602774Y-110750027D03*
%TD*%
%TO.C,REF\u002A\u002A*%
X65602774Y-111500028D03*
%TD*%
%TO.C,REF\u002A\u002A*%
X65602774Y-112250028D03*
%TD*%
%TO.C,REF\u002A\u002A*%
X65602774Y-113000028D03*
%TD*%
%TO.C,REF\u002A\u002A*%
X65602774Y-113750029D03*
%TD*%
%TO.C,REF\u002A\u002A*%
X65602774Y-114500029D03*
%TD*%
%TO.C,REF\u002A\u002A*%
X143616644Y-107000026D03*
%TD*%
%TO.C,REF\u002A\u002A*%
X142861671Y-107000026D03*
%TD*%
%TO.C,REF\u002A\u002A*%
X142106698Y-107000026D03*
%TD*%
%TO.C,REF\u002A\u002A*%
X141351725Y-107000026D03*
%TD*%
%TO.C,REF\u002A\u002A*%
X140596752Y-107000026D03*
%TD*%
%TO.C,REF\u002A\u002A*%
X139841779Y-107000026D03*
%TD*%
%TO.C,REF\u002A\u002A*%
X139086806Y-107000026D03*
%TD*%
%TO.C,REF\u002A\u002A*%
X138331833Y-107000026D03*
%TD*%
%TO.C,REF\u002A\u002A*%
X137576860Y-107000026D03*
%TD*%
%TO.C,REF\u002A\u002A*%
X136821887Y-107000026D03*
%TD*%
%TO.C,REF\u002A\u002A*%
X136066914Y-107000026D03*
%TD*%
%TO.C,REF\u002A\u002A*%
X135311941Y-107000026D03*
%TD*%
%TO.C,REF\u002A\u002A*%
X134556968Y-107000026D03*
%TD*%
%TO.C,REF\u002A\u002A*%
X133801995Y-107000026D03*
%TD*%
%TO.C,REF\u002A\u002A*%
X133047022Y-107000026D03*
%TD*%
%TO.C,REF\u002A\u002A*%
X132292049Y-107000026D03*
%TD*%
%TO.C,REF\u002A\u002A*%
X131537077Y-107000026D03*
%TD*%
%TO.C,REF\u002A\u002A*%
X130782104Y-107000026D03*
%TD*%
%TO.C,REF\u002A\u002A*%
X130027131Y-107000026D03*
%TD*%
%TO.C,REF\u002A\u002A*%
X129272158Y-107000026D03*
%TD*%
%TO.C,REF\u002A\u002A*%
X128517185Y-107000026D03*
%TD*%
%TO.C,REF\u002A\u002A*%
X127762212Y-107000026D03*
%TD*%
%TO.C,REF\u002A\u002A*%
X127007239Y-107000026D03*
%TD*%
%TO.C,REF\u002A\u002A*%
X126252266Y-107000026D03*
%TD*%
%TO.C,REF\u002A\u002A*%
X125497293Y-107000026D03*
%TD*%
%TO.C,REF\u002A\u002A*%
X124742320Y-107000026D03*
%TD*%
%TO.C,REF\u002A\u002A*%
X123987347Y-107000026D03*
%TD*%
%TO.C,REF\u002A\u002A*%
X123232374Y-107000026D03*
%TD*%
%TO.C,REF\u002A\u002A*%
X122477401Y-107000026D03*
%TD*%
%TO.C,REF\u002A\u002A*%
X121722428Y-107000026D03*
%TD*%
%TO.C,REF\u002A\u002A*%
X120967455Y-107000026D03*
%TD*%
%TO.C,REF\u002A\u002A*%
X120212483Y-107000026D03*
%TD*%
%TO.C,REF\u002A\u002A*%
X119457510Y-107000026D03*
%TD*%
%TO.C,REF\u002A\u002A*%
X118702537Y-107000026D03*
%TD*%
%TO.C,REF\u002A\u002A*%
X117947564Y-107000026D03*
%TD*%
%TO.C,REF\u002A\u002A*%
X117192591Y-107000026D03*
%TD*%
%TO.C,REF\u002A\u002A*%
X116437618Y-107000026D03*
%TD*%
%TO.C,REF\u002A\u002A*%
X115682645Y-107000026D03*
%TD*%
%TO.C,REF\u002A\u002A*%
X114927672Y-107000026D03*
%TD*%
%TO.C,REF\u002A\u002A*%
X114172699Y-107000026D03*
%TD*%
%TO.C,REF\u002A\u002A*%
X113417726Y-107000026D03*
%TD*%
%TO.C,REF\u002A\u002A*%
X112662753Y-107000026D03*
%TD*%
%TO.C,REF\u002A\u002A*%
X111907780Y-107000026D03*
%TD*%
%TO.C,REF\u002A\u002A*%
X111152807Y-107000026D03*
%TD*%
%TO.C,REF\u002A\u002A*%
X110397834Y-107000026D03*
%TD*%
%TO.C,REF\u002A\u002A*%
X109642861Y-107000026D03*
%TD*%
%TO.C,REF\u002A\u002A*%
X108887888Y-107000026D03*
%TD*%
%TO.C,REF\u002A\u002A*%
X108132916Y-107000026D03*
%TD*%
%TO.C,REF\u002A\u002A*%
X107377943Y-107000026D03*
%TD*%
%TO.C,REF\u002A\u002A*%
X106622970Y-107000026D03*
%TD*%
%TO.C,REF\u002A\u002A*%
X105867997Y-107000026D03*
%TD*%
%TO.C,REF\u002A\u002A*%
X105113024Y-107000026D03*
%TD*%
%TO.C,REF\u002A\u002A*%
X104358051Y-107000026D03*
%TD*%
%TO.C,REF\u002A\u002A*%
X103603078Y-107000026D03*
%TD*%
%TO.C,REF\u002A\u002A*%
X102848105Y-107000026D03*
%TD*%
%TO.C,REF\u002A\u002A*%
X102093132Y-107000026D03*
%TD*%
%TO.C,REF\u002A\u002A*%
X101338159Y-107000026D03*
%TD*%
%TO.C,REF\u002A\u002A*%
X100583186Y-107000026D03*
%TD*%
%TO.C,REF\u002A\u002A*%
X99828213Y-107000026D03*
%TD*%
%TO.C,REF\u002A\u002A*%
X99073240Y-107000026D03*
%TD*%
%TO.C,REF\u002A\u002A*%
X98318267Y-107000026D03*
%TD*%
%TO.C,REF\u002A\u002A*%
X97563294Y-107000026D03*
%TD*%
%TO.C,REF\u002A\u002A*%
X96808322Y-107000026D03*
%TD*%
%TO.C,REF\u002A\u002A*%
X96053349Y-107000026D03*
%TD*%
%TO.C,REF\u002A\u002A*%
X95298376Y-107000026D03*
%TD*%
%TO.C,REF\u002A\u002A*%
X94543403Y-107000026D03*
%TD*%
%TO.C,REF\u002A\u002A*%
X93788430Y-107000026D03*
%TD*%
%TO.C,REF\u002A\u002A*%
X93033457Y-107000026D03*
%TD*%
%TO.C,REF\u002A\u002A*%
X92278484Y-107000026D03*
%TD*%
%TO.C,REF\u002A\u002A*%
X91523511Y-107000026D03*
%TD*%
%TO.C,REF\u002A\u002A*%
X90768538Y-107000026D03*
%TD*%
%TO.C,REF\u002A\u002A*%
X90013565Y-107000026D03*
%TD*%
%TO.C,REF\u002A\u002A*%
X89258592Y-107000026D03*
%TD*%
%TO.C,REF\u002A\u002A*%
X88503619Y-107000026D03*
%TD*%
%TO.C,REF\u002A\u002A*%
X87748646Y-107000026D03*
%TD*%
%TO.C,REF\u002A\u002A*%
X86993673Y-107000026D03*
%TD*%
%TO.C,REF\u002A\u002A*%
X86238700Y-107000026D03*
%TD*%
%TO.C,REF\u002A\u002A*%
X85483727Y-107000026D03*
%TD*%
%TO.C,REF\u002A\u002A*%
X84728755Y-107000026D03*
%TD*%
%TO.C,REF\u002A\u002A*%
X83973782Y-107000026D03*
%TD*%
%TO.C,REF\u002A\u002A*%
X83218809Y-107000026D03*
%TD*%
%TO.C,REF\u002A\u002A*%
X82463836Y-107000026D03*
%TD*%
%TO.C,REF\u002A\u002A*%
X81708863Y-107000026D03*
%TD*%
%TO.C,REF\u002A\u002A*%
X80953890Y-107000026D03*
%TD*%
%TO.C,REF\u002A\u002A*%
X80198917Y-107000026D03*
%TD*%
%TO.C,REF\u002A\u002A*%
X79443944Y-107000026D03*
%TD*%
%TO.C,REF\u002A\u002A*%
X78688971Y-107000026D03*
%TD*%
%TO.C,REF\u002A\u002A*%
X77933998Y-107000026D03*
%TD*%
%TO.C,REF\u002A\u002A*%
X77179025Y-107000026D03*
%TD*%
%TO.C,REF\u002A\u002A*%
X76424052Y-107000026D03*
%TD*%
%TO.C,REF\u002A\u002A*%
X75669079Y-107000026D03*
%TD*%
%TO.C,REF\u002A\u002A*%
X74914106Y-107000026D03*
%TD*%
%TO.C,REF\u002A\u002A*%
X74159133Y-107000026D03*
%TD*%
%TO.C,REF\u002A\u002A*%
X73404161Y-107000026D03*
%TD*%
%TO.C,REF\u002A\u002A*%
X72649188Y-107000026D03*
%TD*%
%TO.C,REF\u002A\u002A*%
X71894215Y-107000026D03*
%TD*%
%TO.C,REF\u002A\u002A*%
X71139242Y-107000026D03*
%TD*%
%TO.C,REF\u002A\u002A*%
X70384269Y-107000026D03*
%TD*%
%TO.C,REF\u002A\u002A*%
X69629296Y-107000026D03*
%TD*%
%TO.C,REF\u002A\u002A*%
X68874323Y-107000026D03*
%TD*%
%TO.C,REF\u002A\u002A*%
X68119350Y-107000026D03*
%TD*%
%TO.C,REF\u002A\u002A*%
X67364377Y-107000026D03*
%TD*%
%TO.C,REF\u002A\u002A*%
X66609404Y-107000026D03*
%TD*%
%TO.C,REF\u002A\u002A*%
X65854431Y-107000026D03*
%TD*%
%TO.C,REF\u002A\u002A*%
X65099458Y-107000026D03*
%TD*%
%TO.C,REF\u002A\u002A*%
X64344485Y-107000026D03*
%TD*%
%TO.C,REF\u002A\u002A*%
X63589512Y-107000026D03*
%TD*%
%TO.C,REF\u002A\u002A*%
X62834539Y-107000026D03*
%TD*%
%TO.C,REF\u002A\u002A*%
X62079566Y-107000026D03*
%TD*%
%TO.C,REF\u002A\u002A*%
X61324594Y-107000026D03*
%TD*%
%TO.C,REF\u002A\u002A*%
X60569621Y-107000026D03*
%TD*%
%TO.C,REF\u002A\u002A*%
X59814648Y-107000026D03*
%TD*%
%TO.C,REF\u002A\u002A*%
X59059675Y-107000026D03*
%TD*%
%TO.C,REF\u002A\u002A*%
X58304702Y-107000026D03*
%TD*%
%TO.C,REF\u002A\u002A*%
X57549729Y-107000026D03*
%TD*%
%TO.C,REF\u002A\u002A*%
X56794756Y-107000026D03*
%TD*%
%TO.C,REF\u002A\u002A*%
X56039783Y-107000026D03*
%TD*%
%TO.C,REF\u002A\u002A*%
X55284810Y-107000026D03*
%TD*%
%TO.C,REF\u002A\u002A*%
X54529837Y-107000026D03*
%TD*%
%TO.C,REF\u002A\u002A*%
X53774864Y-107000026D03*
%TD*%
%TO.C,REF\u002A\u002A*%
X53019891Y-107000026D03*
%TD*%
%TO.C,REF\u002A\u002A*%
X52264918Y-107000026D03*
%TD*%
%TO.C,REF\u002A\u002A*%
X51509945Y-107000026D03*
%TD*%
%TO.C,REF\u002A\u002A*%
X50754972Y-107000026D03*
%TD*%
%TO.C,REF\u002A\u002A*%
X143616644Y-78500013D03*
%TD*%
%TO.C,REF\u002A\u002A*%
X142861671Y-78500013D03*
%TD*%
%TO.C,REF\u002A\u002A*%
X142106698Y-78500013D03*
%TD*%
%TO.C,REF\u002A\u002A*%
X141351725Y-78500013D03*
%TD*%
%TO.C,REF\u002A\u002A*%
X140596752Y-78500013D03*
%TD*%
%TO.C,REF\u002A\u002A*%
X139841779Y-78500013D03*
%TD*%
%TO.C,REF\u002A\u002A*%
X139086806Y-78500013D03*
%TD*%
%TO.C,REF\u002A\u002A*%
X138331833Y-78500013D03*
%TD*%
%TO.C,REF\u002A\u002A*%
X137576860Y-78500013D03*
%TD*%
%TO.C,REF\u002A\u002A*%
X136821887Y-78500013D03*
%TD*%
%TO.C,REF\u002A\u002A*%
X136066914Y-78500013D03*
%TD*%
%TO.C,REF\u002A\u002A*%
X135311941Y-78500013D03*
%TD*%
%TO.C,REF\u002A\u002A*%
X134556968Y-78500013D03*
%TD*%
%TO.C,REF\u002A\u002A*%
X133801995Y-78500013D03*
%TD*%
%TO.C,REF\u002A\u002A*%
X133047022Y-78500013D03*
%TD*%
%TO.C,REF\u002A\u002A*%
X132292049Y-78500013D03*
%TD*%
%TO.C,REF\u002A\u002A*%
X131537077Y-78500013D03*
%TD*%
%TO.C,REF\u002A\u002A*%
X130782104Y-78500013D03*
%TD*%
%TO.C,REF\u002A\u002A*%
X130027131Y-78500013D03*
%TD*%
%TO.C,REF\u002A\u002A*%
X129272158Y-78500013D03*
%TD*%
%TO.C,REF\u002A\u002A*%
X128517185Y-78500013D03*
%TD*%
%TO.C,REF\u002A\u002A*%
X127762212Y-78500013D03*
%TD*%
%TO.C,REF\u002A\u002A*%
X127007239Y-78500013D03*
%TD*%
%TO.C,REF\u002A\u002A*%
X126252266Y-78500013D03*
%TD*%
%TO.C,REF\u002A\u002A*%
X125497293Y-78500013D03*
%TD*%
%TO.C,REF\u002A\u002A*%
X124742320Y-78500013D03*
%TD*%
%TO.C,REF\u002A\u002A*%
X123987347Y-78500013D03*
%TD*%
%TO.C,REF\u002A\u002A*%
X123232374Y-78500013D03*
%TD*%
%TO.C,REF\u002A\u002A*%
X122477401Y-78500013D03*
%TD*%
%TO.C,REF\u002A\u002A*%
X121722428Y-78500013D03*
%TD*%
%TO.C,REF\u002A\u002A*%
X120967455Y-78500013D03*
%TD*%
%TO.C,REF\u002A\u002A*%
X120212483Y-78500013D03*
%TD*%
%TO.C,REF\u002A\u002A*%
X119457510Y-78500013D03*
%TD*%
%TO.C,REF\u002A\u002A*%
X118702537Y-78500013D03*
%TD*%
%TO.C,REF\u002A\u002A*%
X117947564Y-78500013D03*
%TD*%
%TO.C,REF\u002A\u002A*%
X117192591Y-78500013D03*
%TD*%
%TO.C,REF\u002A\u002A*%
X116437618Y-78500013D03*
%TD*%
%TO.C,REF\u002A\u002A*%
X115682645Y-78500013D03*
%TD*%
%TO.C,REF\u002A\u002A*%
X114927672Y-78500013D03*
%TD*%
%TO.C,REF\u002A\u002A*%
X114172699Y-78500013D03*
%TD*%
%TO.C,REF\u002A\u002A*%
X113417726Y-78500013D03*
%TD*%
%TO.C,REF\u002A\u002A*%
X112662753Y-78500013D03*
%TD*%
%TO.C,REF\u002A\u002A*%
X111907780Y-78500013D03*
%TD*%
%TO.C,REF\u002A\u002A*%
X111152807Y-78500013D03*
%TD*%
%TO.C,REF\u002A\u002A*%
X110397834Y-78500013D03*
%TD*%
%TO.C,REF\u002A\u002A*%
X109642861Y-78500013D03*
%TD*%
%TO.C,REF\u002A\u002A*%
X108887888Y-78500013D03*
%TD*%
%TO.C,REF\u002A\u002A*%
X108132916Y-78500013D03*
%TD*%
%TO.C,REF\u002A\u002A*%
X107377943Y-78500013D03*
%TD*%
%TO.C,REF\u002A\u002A*%
X106622970Y-78500013D03*
%TD*%
%TO.C,REF\u002A\u002A*%
X105867997Y-78500013D03*
%TD*%
%TO.C,REF\u002A\u002A*%
X105113024Y-78500013D03*
%TD*%
%TO.C,REF\u002A\u002A*%
X104358051Y-78500013D03*
%TD*%
%TO.C,REF\u002A\u002A*%
X103603078Y-78500013D03*
%TD*%
%TO.C,REF\u002A\u002A*%
X102848105Y-78500013D03*
%TD*%
%TO.C,REF\u002A\u002A*%
X102093132Y-78500013D03*
%TD*%
%TO.C,REF\u002A\u002A*%
X101338159Y-78500013D03*
%TD*%
%TO.C,REF\u002A\u002A*%
X100583186Y-78500013D03*
%TD*%
%TO.C,REF\u002A\u002A*%
X99828213Y-78500013D03*
%TD*%
%TO.C,REF\u002A\u002A*%
X99073240Y-78500013D03*
%TD*%
%TO.C,REF\u002A\u002A*%
X98318267Y-78500013D03*
%TD*%
%TO.C,REF\u002A\u002A*%
X97563294Y-78500013D03*
%TD*%
%TO.C,REF\u002A\u002A*%
X96808322Y-78500013D03*
%TD*%
%TO.C,REF\u002A\u002A*%
X96053349Y-78500013D03*
%TD*%
%TO.C,REF\u002A\u002A*%
X95298376Y-78500013D03*
%TD*%
%TO.C,REF\u002A\u002A*%
X94543403Y-78500013D03*
%TD*%
%TO.C,REF\u002A\u002A*%
X93788430Y-78500013D03*
%TD*%
%TO.C,REF\u002A\u002A*%
X93033457Y-78500013D03*
%TD*%
%TO.C,REF\u002A\u002A*%
X92278484Y-78500013D03*
%TD*%
%TO.C,REF\u002A\u002A*%
X91523511Y-78500013D03*
%TD*%
%TO.C,REF\u002A\u002A*%
X90768538Y-78500013D03*
%TD*%
%TO.C,REF\u002A\u002A*%
X90013565Y-78500013D03*
%TD*%
%TO.C,REF\u002A\u002A*%
X89258592Y-78500013D03*
%TD*%
%TO.C,REF\u002A\u002A*%
X88503619Y-78500013D03*
%TD*%
%TO.C,REF\u002A\u002A*%
X87748646Y-78500013D03*
%TD*%
%TO.C,REF\u002A\u002A*%
X86993673Y-78500013D03*
%TD*%
%TO.C,REF\u002A\u002A*%
X86238700Y-78500013D03*
%TD*%
%TO.C,REF\u002A\u002A*%
X85483727Y-78500013D03*
%TD*%
%TO.C,REF\u002A\u002A*%
X84728755Y-78500013D03*
%TD*%
%TO.C,REF\u002A\u002A*%
X83973782Y-78500013D03*
%TD*%
%TO.C,REF\u002A\u002A*%
X83218809Y-78500013D03*
%TD*%
%TO.C,REF\u002A\u002A*%
X82463836Y-78500013D03*
%TD*%
%TO.C,REF\u002A\u002A*%
X81708863Y-78500013D03*
%TD*%
%TO.C,REF\u002A\u002A*%
X80953890Y-78500013D03*
%TD*%
%TO.C,REF\u002A\u002A*%
X80198917Y-78500013D03*
%TD*%
%TO.C,REF\u002A\u002A*%
X79443944Y-78500013D03*
%TD*%
%TO.C,REF\u002A\u002A*%
X78688971Y-78500013D03*
%TD*%
%TO.C,REF\u002A\u002A*%
X77933998Y-78500013D03*
%TD*%
%TO.C,REF\u002A\u002A*%
X77179025Y-78500013D03*
%TD*%
%TO.C,REF\u002A\u002A*%
X76424052Y-78500013D03*
%TD*%
%TO.C,REF\u002A\u002A*%
X75669079Y-78500013D03*
%TD*%
%TO.C,REF\u002A\u002A*%
X74914106Y-78500013D03*
%TD*%
%TO.C,REF\u002A\u002A*%
X74159133Y-78500013D03*
%TD*%
%TO.C,REF\u002A\u002A*%
X73404161Y-78500013D03*
%TD*%
%TO.C,REF\u002A\u002A*%
X72649188Y-78500013D03*
%TD*%
%TO.C,REF\u002A\u002A*%
X71894215Y-78500013D03*
%TD*%
%TO.C,REF\u002A\u002A*%
X71139242Y-78500013D03*
%TD*%
%TO.C,REF\u002A\u002A*%
X70384269Y-78500013D03*
%TD*%
%TO.C,REF\u002A\u002A*%
X69629296Y-78500013D03*
%TD*%
%TO.C,REF\u002A\u002A*%
X68874323Y-78500013D03*
%TD*%
%TO.C,REF\u002A\u002A*%
X68119350Y-78500013D03*
%TD*%
%TO.C,REF\u002A\u002A*%
X67364377Y-78500013D03*
%TD*%
%TO.C,REF\u002A\u002A*%
X66609404Y-78500013D03*
%TD*%
%TO.C,REF\u002A\u002A*%
X65854431Y-78500013D03*
%TD*%
%TO.C,REF\u002A\u002A*%
X65099458Y-78500013D03*
%TD*%
%TO.C,REF\u002A\u002A*%
X64344485Y-78500013D03*
%TD*%
%TO.C,REF\u002A\u002A*%
X63589512Y-78500013D03*
%TD*%
%TO.C,REF\u002A\u002A*%
X62834539Y-78500013D03*
%TD*%
%TO.C,REF\u002A\u002A*%
X62079566Y-78500013D03*
%TD*%
%TO.C,REF\u002A\u002A*%
X61324594Y-78500013D03*
%TD*%
%TO.C,REF\u002A\u002A*%
X60569621Y-78500013D03*
%TD*%
%TO.C,REF\u002A\u002A*%
X59814648Y-78500013D03*
%TD*%
%TO.C,REF\u002A\u002A*%
X59059675Y-78500013D03*
%TD*%
%TO.C,REF\u002A\u002A*%
X58304702Y-78500013D03*
%TD*%
%TO.C,REF\u002A\u002A*%
X57549729Y-78500013D03*
%TD*%
%TO.C,REF\u002A\u002A*%
X56794756Y-78500013D03*
%TD*%
%TO.C,REF\u002A\u002A*%
X56039783Y-78500013D03*
%TD*%
%TO.C,REF\u002A\u002A*%
X55284810Y-78500013D03*
%TD*%
%TO.C,REF\u002A\u002A*%
X54529837Y-78500013D03*
%TD*%
%TO.C,REF\u002A\u002A*%
X53774864Y-78500013D03*
%TD*%
%TO.C,REF\u002A\u002A*%
X53019891Y-78500013D03*
%TD*%
%TO.C,REF\u002A\u002A*%
X52264918Y-78500013D03*
%TD*%
%TO.C,REF\u002A\u002A*%
X51509945Y-78500013D03*
%TD*%
%TO.C,REF\u002A\u002A*%
X50754972Y-78500013D03*
%TD*%
D15*
%TO.C,P1*%
X138353871Y-109500027D03*
X133273871Y-109500027D03*
X135813871Y-109500027D03*
%TD*%
D16*
%TO.C,JP1*%
X133313871Y-116576027D03*
X133313871Y-118100027D03*
%TD*%
D15*
%TO.C,P1*%
X122751097Y-109500027D03*
X117671097Y-109500027D03*
X120211097Y-109500027D03*
%TD*%
D16*
%TO.C,JP1*%
X117711097Y-116576027D03*
X117711097Y-118100027D03*
%TD*%
D15*
%TO.C,P1*%
X107148323Y-109500027D03*
X102068323Y-109500027D03*
X104608323Y-109500027D03*
%TD*%
D16*
%TO.C,JP1*%
X102108323Y-116576027D03*
X102108323Y-118100027D03*
%TD*%
D15*
%TO.C,P1*%
X91545549Y-109500027D03*
X86465549Y-109500027D03*
X89005549Y-109500027D03*
%TD*%
D16*
%TO.C,JP1*%
X86505549Y-116576027D03*
X86505549Y-118100027D03*
%TD*%
D15*
%TO.C,P1*%
X75942775Y-109500027D03*
X70862775Y-109500027D03*
X73402775Y-109500027D03*
%TD*%
D16*
%TO.C,JP1*%
X70902775Y-116576027D03*
X70902775Y-118100027D03*
%TD*%
D15*
%TO.C,P1*%
X60340001Y-109500027D03*
X55260001Y-109500027D03*
X57800001Y-109500027D03*
%TD*%
D16*
%TO.C,JP1*%
X55300001Y-116576027D03*
X55300001Y-118100027D03*
%TD*%
D15*
%TO.C,P1*%
X138353871Y-81000014D03*
X133273871Y-81000014D03*
X135813871Y-81000014D03*
%TD*%
D16*
%TO.C,JP1*%
X133313871Y-88076014D03*
X133313871Y-89600014D03*
%TD*%
D15*
%TO.C,P1*%
X122751097Y-81000014D03*
X117671097Y-81000014D03*
X120211097Y-81000014D03*
%TD*%
D16*
%TO.C,JP1*%
X117711097Y-88076014D03*
X117711097Y-89600014D03*
%TD*%
D15*
%TO.C,P1*%
X107148323Y-81000014D03*
X102068323Y-81000014D03*
X104608323Y-81000014D03*
%TD*%
D16*
%TO.C,JP1*%
X102108323Y-88076014D03*
X102108323Y-89600014D03*
%TD*%
D15*
%TO.C,P1*%
X91545549Y-81000014D03*
X86465549Y-81000014D03*
X89005549Y-81000014D03*
%TD*%
D16*
%TO.C,JP1*%
X86505549Y-88076014D03*
X86505549Y-89600014D03*
%TD*%
D15*
%TO.C,P1*%
X75942775Y-81000014D03*
X70862775Y-81000014D03*
X73402775Y-81000014D03*
%TD*%
D16*
%TO.C,JP1*%
X70902775Y-88076014D03*
X70902775Y-89600014D03*
%TD*%
D15*
%TO.C,P1*%
X60340001Y-81000014D03*
X55260001Y-81000014D03*
X57800001Y-81000014D03*
%TD*%
D16*
%TO.C,JP1*%
X55300001Y-88076014D03*
X55300001Y-89600014D03*
%TD*%
D15*
%TO.C,P1*%
X138353871Y-52500001D03*
X133273871Y-52500001D03*
X135813871Y-52500001D03*
%TD*%
D16*
%TO.C,JP1*%
X133313871Y-59576001D03*
X133313871Y-61100001D03*
%TD*%
D15*
%TO.C,P1*%
X122751097Y-52500001D03*
X117671097Y-52500001D03*
X120211097Y-52500001D03*
%TD*%
D16*
%TO.C,JP1*%
X117711097Y-59576001D03*
X117711097Y-61100001D03*
%TD*%
D15*
%TO.C,P1*%
X107148323Y-52500001D03*
X102068323Y-52500001D03*
X104608323Y-52500001D03*
%TD*%
D16*
%TO.C,JP1*%
X102108323Y-59576001D03*
X102108323Y-61100001D03*
%TD*%
D15*
%TO.C,P1*%
X91545549Y-52500001D03*
X86465549Y-52500001D03*
X89005549Y-52500001D03*
%TD*%
D16*
%TO.C,JP1*%
X86505549Y-59576001D03*
X86505549Y-61100001D03*
%TD*%
D15*
%TO.C,P1*%
X75942775Y-52500001D03*
X70862775Y-52500001D03*
X73402775Y-52500001D03*
%TD*%
D16*
%TO.C,JP1*%
X70902775Y-59576001D03*
X70902775Y-61100001D03*
%TD*%
D15*
%TO.C,P1*%
X60340001Y-52500001D03*
X55260001Y-52500001D03*
X57800001Y-52500001D03*
%TD*%
D16*
%TO.C,JP1*%
X55300001Y-59576001D03*
X55300001Y-61100001D03*
%TD*%
M02*
