%TF.GenerationSoftware,KiCad,Pcbnew,5.1.6-c6e7f7d~86~ubuntu18.04.1*%
%TF.CreationDate,2020-06-11T11:06:45+02:00*%
%TF.ProjectId,AVR_ISP_With_POGO_Pin_panelized_corrected,4156525f-4953-4505-9f57-6974685f504f,rev?*%
%TF.SameCoordinates,Original*%
%TF.FileFunction,Profile,NP*%
%FSLAX46Y46*%
G04 Gerber Fmt 4.6, Leading zero omitted, Abs format (unit mm)*
G04 Created by KiCad (PCBNEW 5.1.6-c6e7f7d~86~ubuntu18.04.1) date 2020-06-11 11:06:45*
%MOMM*%
%LPD*%
G01*
G04 APERTURE LIST*
%TA.AperFunction,Profile*%
%ADD10C,0.100000*%
%TD*%
G04 APERTURE END LIST*
D10*
X65601000Y-78789900D02*
X65601800Y-80846800D01*
X65300500Y-78499200D02*
X65601000Y-78789900D01*
X61802400Y-78499000D02*
X65300500Y-78499200D01*
X62801000Y-77500100D02*
X61802400Y-78499000D01*
X62801000Y-67700000D02*
X62801000Y-77500100D01*
X62632800Y-66331600D02*
X62801000Y-67700000D01*
X62617000Y-64953100D02*
X62632800Y-66331600D01*
X62753800Y-63581400D02*
X62617000Y-64953100D01*
X63041500Y-62233100D02*
X62753800Y-63581400D01*
X63476400Y-60925000D02*
X63041500Y-62233100D01*
X64053500Y-59673000D02*
X63476400Y-60925000D01*
X64765400Y-58492600D02*
X64053500Y-59673000D01*
X65601800Y-57400300D02*
X64765400Y-58492600D01*
X66446300Y-58498900D02*
X65601800Y-57400300D01*
X67162800Y-59684300D02*
X66446300Y-58498900D01*
X67742800Y-60942300D02*
X67162800Y-59684300D01*
X68178900Y-62257000D02*
X67742800Y-60942300D01*
X68465800Y-63612200D02*
X68178900Y-62257000D01*
X68599800Y-64990900D02*
X68465800Y-63612200D01*
X68579300Y-66376000D02*
X68599800Y-64990900D01*
X68404500Y-67750300D02*
X68579300Y-66376000D01*
X68381800Y-77480100D02*
X68404500Y-67750300D01*
X69400400Y-78499000D02*
X68381800Y-77480100D01*
X65902200Y-78499200D02*
X69400400Y-78499000D01*
X65601800Y-78799900D02*
X65902200Y-78499200D01*
X65601800Y-80846800D02*
X65601800Y-78799900D01*
X81203800Y-78789900D02*
X81204500Y-80606800D01*
X80903300Y-78499100D02*
X81203800Y-78789900D01*
X77405200Y-78499000D02*
X80903300Y-78499100D01*
X78403800Y-77500100D02*
X77405200Y-78499000D01*
X78403800Y-67700000D02*
X78403800Y-77500100D01*
X78235600Y-66331600D02*
X78403800Y-67700000D01*
X78219800Y-64953100D02*
X78235600Y-66331600D01*
X78356600Y-63581400D02*
X78219800Y-64953100D01*
X78644200Y-62233100D02*
X78356600Y-63581400D01*
X79079200Y-60925000D02*
X78644200Y-62233100D01*
X79656200Y-59673000D02*
X79079200Y-60925000D01*
X80368200Y-58492600D02*
X79656200Y-59673000D01*
X81204600Y-57400300D02*
X80368200Y-58492600D01*
X82049000Y-58498900D02*
X81204600Y-57400300D01*
X82765600Y-59684300D02*
X82049000Y-58498900D01*
X83345600Y-60942300D02*
X82765600Y-59684300D01*
X83781700Y-62257000D02*
X83345600Y-60942300D01*
X84068600Y-63612200D02*
X83781700Y-62257000D01*
X84202600Y-64990900D02*
X84068600Y-63612200D01*
X84182100Y-66376000D02*
X84202600Y-64990900D01*
X84007300Y-67750300D02*
X84182100Y-66376000D01*
X83984500Y-77480100D02*
X84007300Y-67750300D01*
X85003100Y-78499000D02*
X83984500Y-77480100D01*
X81505000Y-78499100D02*
X85003100Y-78499000D01*
X81204500Y-78799900D02*
X81505000Y-78499100D01*
X81204500Y-80606800D02*
X81204500Y-78799900D01*
X96806500Y-78789900D02*
X96807300Y-80811700D01*
X96506000Y-78499200D02*
X96806500Y-78789900D01*
X93007900Y-78499000D02*
X96506000Y-78499200D01*
X94006500Y-77500100D02*
X93007900Y-78499000D01*
X94006500Y-67700000D02*
X94006500Y-77500100D01*
X93838400Y-66331600D02*
X94006500Y-67700000D01*
X93822600Y-64953100D02*
X93838400Y-66331600D01*
X93959400Y-63581400D02*
X93822600Y-64953100D01*
X94247000Y-62233100D02*
X93959400Y-63581400D01*
X94682000Y-60925000D02*
X94247000Y-62233100D01*
X95259000Y-59673000D02*
X94682000Y-60925000D01*
X95970900Y-58492600D02*
X95259000Y-59673000D01*
X96807300Y-57400300D02*
X95970900Y-58492600D01*
X97651800Y-58498900D02*
X96807300Y-57400300D01*
X98368400Y-59684300D02*
X97651800Y-58498900D01*
X98948300Y-60942300D02*
X98368400Y-59684300D01*
X99384500Y-62257000D02*
X98948300Y-60942300D01*
X99671300Y-63612200D02*
X99384500Y-62257000D01*
X99805300Y-64990900D02*
X99671300Y-63612200D01*
X99784800Y-66376000D02*
X99805300Y-64990900D01*
X99610000Y-67750300D02*
X99784800Y-66376000D01*
X99587300Y-77480100D02*
X99610000Y-67750300D01*
X100605900Y-78499000D02*
X99587300Y-77480100D01*
X97107700Y-78499200D02*
X100605900Y-78499000D01*
X96807300Y-78799900D02*
X97107700Y-78499200D01*
X96807300Y-80811700D02*
X96807300Y-78799900D01*
X112409300Y-78789900D02*
X112410100Y-80830600D01*
X112108800Y-78499200D02*
X112409300Y-78789900D01*
X108610700Y-78499000D02*
X112108800Y-78499200D01*
X109609300Y-77500100D02*
X108610700Y-78499000D01*
X109609300Y-67700000D02*
X109609300Y-77500100D01*
X109441200Y-66331600D02*
X109609300Y-67700000D01*
X109425400Y-64953100D02*
X109441200Y-66331600D01*
X109562100Y-63581400D02*
X109425400Y-64953100D01*
X109849800Y-62233100D02*
X109562100Y-63581400D01*
X110284800Y-60925000D02*
X109849800Y-62233100D01*
X110861800Y-59673000D02*
X110284800Y-60925000D01*
X111573700Y-58492600D02*
X110861800Y-59673000D01*
X112410100Y-57400300D02*
X111573700Y-58492600D01*
X113254600Y-58498900D02*
X112410100Y-57400300D01*
X113971200Y-59684300D02*
X113254600Y-58498900D01*
X114551100Y-60942300D02*
X113971200Y-59684300D01*
X114987300Y-62257000D02*
X114551100Y-60942300D01*
X115274100Y-63612200D02*
X114987300Y-62257000D01*
X115408100Y-64990900D02*
X115274100Y-63612200D01*
X115387600Y-66376000D02*
X115408100Y-64990900D01*
X115212800Y-67750300D02*
X115387600Y-66376000D01*
X115190100Y-77480100D02*
X115212800Y-67750300D01*
X116208700Y-78499000D02*
X115190100Y-77480100D01*
X112710500Y-78499200D02*
X116208700Y-78499000D01*
X112410100Y-78799900D02*
X112710500Y-78499200D01*
X112410100Y-80830600D02*
X112410100Y-78799900D01*
X128012100Y-78789900D02*
X128012900Y-80849800D01*
X127711600Y-78499200D02*
X128012100Y-78789900D01*
X124213500Y-78499000D02*
X127711600Y-78499200D01*
X125212100Y-77500100D02*
X124213500Y-78499000D01*
X125212100Y-67700000D02*
X125212100Y-77500100D01*
X125043900Y-66331600D02*
X125212100Y-67700000D01*
X125028100Y-64953100D02*
X125043900Y-66331600D01*
X125164900Y-63581400D02*
X125028100Y-64953100D01*
X125452500Y-62233100D02*
X125164900Y-63581400D01*
X125887500Y-60925000D02*
X125452500Y-62233100D01*
X126464500Y-59673000D02*
X125887500Y-60925000D01*
X127176500Y-58492600D02*
X126464500Y-59673000D01*
X128012900Y-57400300D02*
X127176500Y-58492600D01*
X128857400Y-58498900D02*
X128012900Y-57400300D01*
X129573900Y-59684300D02*
X128857400Y-58498900D01*
X130153900Y-60942300D02*
X129573900Y-59684300D01*
X130590000Y-62257000D02*
X130153900Y-60942300D01*
X130876900Y-63612200D02*
X130590000Y-62257000D01*
X131010900Y-64990900D02*
X130876900Y-63612200D01*
X130990400Y-66376000D02*
X131010900Y-64990900D01*
X130815600Y-67750300D02*
X130990400Y-66376000D01*
X130792900Y-77480100D02*
X130815600Y-67750300D01*
X131811500Y-78499000D02*
X130792900Y-77480100D01*
X128313300Y-78499200D02*
X131811500Y-78499000D01*
X128012900Y-78799900D02*
X128313300Y-78499200D01*
X128012900Y-80849800D02*
X128012900Y-78799900D01*
X65601000Y-107289900D02*
X65601800Y-109346900D01*
X65300500Y-106999200D02*
X65601000Y-107289900D01*
X61802400Y-106999000D02*
X65300500Y-106999200D01*
X62801000Y-106000100D02*
X61802400Y-106999000D01*
X62801000Y-96200000D02*
X62801000Y-106000100D01*
X62632800Y-94831600D02*
X62801000Y-96200000D01*
X62617000Y-93453100D02*
X62632800Y-94831600D01*
X62753800Y-92081400D02*
X62617000Y-93453100D01*
X63041500Y-90733200D02*
X62753800Y-92081400D01*
X63476400Y-89425000D02*
X63041500Y-90733200D01*
X64053500Y-88173100D02*
X63476400Y-89425000D01*
X64765400Y-86992600D02*
X64053500Y-88173100D01*
X65601800Y-85900300D02*
X64765400Y-86992600D01*
X66446300Y-86998900D02*
X65601800Y-85900300D01*
X67162800Y-88184300D02*
X66446300Y-86998900D01*
X67742800Y-89442300D02*
X67162800Y-88184300D01*
X68178900Y-90757000D02*
X67742800Y-89442300D01*
X68465800Y-92112200D02*
X68178900Y-90757000D01*
X68599800Y-93490900D02*
X68465800Y-92112200D01*
X68579300Y-94876000D02*
X68599800Y-93490900D01*
X68404500Y-96250300D02*
X68579300Y-94876000D01*
X68381800Y-105980100D02*
X68404500Y-96250300D01*
X69400400Y-106999000D02*
X68381800Y-105980100D01*
X65902200Y-106999200D02*
X69400400Y-106999000D01*
X65601800Y-107299900D02*
X65902200Y-106999200D01*
X65601800Y-109346900D02*
X65601800Y-107299900D01*
X81203800Y-107289900D02*
X81204500Y-109106800D01*
X80903300Y-106999100D02*
X81203800Y-107289900D01*
X77405200Y-106999000D02*
X80903300Y-106999100D01*
X78403800Y-106000100D02*
X77405200Y-106999000D01*
X78403800Y-96200000D02*
X78403800Y-106000100D01*
X78235600Y-94831600D02*
X78403800Y-96200000D01*
X78219800Y-93453100D02*
X78235600Y-94831600D01*
X78356600Y-92081400D02*
X78219800Y-93453100D01*
X78644200Y-90733200D02*
X78356600Y-92081400D01*
X79079200Y-89425000D02*
X78644200Y-90733200D01*
X79656200Y-88173100D02*
X79079200Y-89425000D01*
X80368200Y-86992600D02*
X79656200Y-88173100D01*
X81204600Y-85900300D02*
X80368200Y-86992600D01*
X82049000Y-86998900D02*
X81204600Y-85900300D01*
X82765600Y-88184300D02*
X82049000Y-86998900D01*
X83345600Y-89442300D02*
X82765600Y-88184300D01*
X83781700Y-90757000D02*
X83345600Y-89442300D01*
X84068600Y-92112200D02*
X83781700Y-90757000D01*
X84202600Y-93490900D02*
X84068600Y-92112200D01*
X84182100Y-94876000D02*
X84202600Y-93490900D01*
X84007300Y-96250300D02*
X84182100Y-94876000D01*
X83984500Y-105980100D02*
X84007300Y-96250300D01*
X85003100Y-106999000D02*
X83984500Y-105980100D01*
X81505000Y-106999100D02*
X85003100Y-106999000D01*
X81204500Y-107299900D02*
X81505000Y-106999100D01*
X81204500Y-109106800D02*
X81204500Y-107299900D01*
X96806500Y-107289900D02*
X96807300Y-109311700D01*
X96506000Y-106999200D02*
X96806500Y-107289900D01*
X93007900Y-106999000D02*
X96506000Y-106999200D01*
X94006500Y-106000100D02*
X93007900Y-106999000D01*
X94006500Y-96200000D02*
X94006500Y-106000100D01*
X93838400Y-94831600D02*
X94006500Y-96200000D01*
X93822600Y-93453100D02*
X93838400Y-94831600D01*
X93959400Y-92081400D02*
X93822600Y-93453100D01*
X94247000Y-90733200D02*
X93959400Y-92081400D01*
X94682000Y-89425000D02*
X94247000Y-90733200D01*
X95259000Y-88173100D02*
X94682000Y-89425000D01*
X95970900Y-86992600D02*
X95259000Y-88173100D01*
X96807400Y-85900300D02*
X95970900Y-86992600D01*
X97651800Y-86998900D02*
X96807400Y-85900300D01*
X98368400Y-88184300D02*
X97651800Y-86998900D01*
X98948300Y-89442300D02*
X98368400Y-88184300D01*
X99384500Y-90757000D02*
X98948300Y-89442300D01*
X99671300Y-92112200D02*
X99384500Y-90757000D01*
X99805300Y-93490900D02*
X99671300Y-92112200D01*
X99784800Y-94876000D02*
X99805300Y-93490900D01*
X99610000Y-96250300D02*
X99784800Y-94876000D01*
X99587300Y-105980100D02*
X99610000Y-96250300D01*
X100605900Y-106999000D02*
X99587300Y-105980100D01*
X97107700Y-106999200D02*
X100605900Y-106999000D01*
X96807300Y-107299900D02*
X97107700Y-106999200D01*
X96807300Y-109311700D02*
X96807300Y-107299900D01*
X112409300Y-107289900D02*
X112410100Y-109330600D01*
X112108800Y-106999200D02*
X112409300Y-107289900D01*
X108610700Y-106999000D02*
X112108800Y-106999200D01*
X109609300Y-106000100D02*
X108610700Y-106999000D01*
X109609300Y-96200000D02*
X109609300Y-106000100D01*
X109441200Y-94831600D02*
X109609300Y-96200000D01*
X109425400Y-93453100D02*
X109441200Y-94831600D01*
X109562100Y-92081400D02*
X109425400Y-93453100D01*
X109849800Y-90733200D02*
X109562100Y-92081400D01*
X110284800Y-89425000D02*
X109849800Y-90733200D01*
X110861800Y-88173100D02*
X110284800Y-89425000D01*
X111573700Y-86992600D02*
X110861800Y-88173100D01*
X112410100Y-85900300D02*
X111573700Y-86992600D01*
X113254600Y-86998900D02*
X112410100Y-85900300D01*
X113971200Y-88184300D02*
X113254600Y-86998900D01*
X114551100Y-89442300D02*
X113971200Y-88184300D01*
X114987300Y-90757000D02*
X114551100Y-89442300D01*
X115274100Y-92112200D02*
X114987300Y-90757000D01*
X115408100Y-93490900D02*
X115274100Y-92112200D01*
X115387600Y-94876000D02*
X115408100Y-93490900D01*
X115212800Y-96250300D02*
X115387600Y-94876000D01*
X115190100Y-105980100D02*
X115212800Y-96250300D01*
X116208700Y-106999000D02*
X115190100Y-105980100D01*
X112710500Y-106999200D02*
X116208700Y-106999000D01*
X112410100Y-107299900D02*
X112710500Y-106999200D01*
X112410100Y-109330600D02*
X112410100Y-107299900D01*
X128012100Y-107289900D02*
X128012900Y-109349800D01*
X127711600Y-106999200D02*
X128012100Y-107289900D01*
X124213500Y-106999000D02*
X127711600Y-106999200D01*
X125212100Y-106000100D02*
X124213500Y-106999000D01*
X125212100Y-96200000D02*
X125212100Y-106000100D01*
X125043900Y-94831600D02*
X125212100Y-96200000D01*
X125028100Y-93453100D02*
X125043900Y-94831600D01*
X125164900Y-92081400D02*
X125028100Y-93453100D01*
X125452500Y-90733200D02*
X125164900Y-92081400D01*
X125887500Y-89425000D02*
X125452500Y-90733200D01*
X126464500Y-88173100D02*
X125887500Y-89425000D01*
X127176500Y-86992600D02*
X126464500Y-88173100D01*
X128012900Y-85900300D02*
X127176500Y-86992600D01*
X128857400Y-86998900D02*
X128012900Y-85900300D01*
X129573900Y-88184300D02*
X128857400Y-86998900D01*
X130153900Y-89442300D02*
X129573900Y-88184300D01*
X130590000Y-90757000D02*
X130153900Y-89442300D01*
X130876900Y-92112200D02*
X130590000Y-90757000D01*
X131010900Y-93490900D02*
X130876900Y-92112200D01*
X130990400Y-94876000D02*
X131010900Y-93490900D01*
X130815600Y-96250300D02*
X130990400Y-94876000D01*
X130792900Y-105980100D02*
X130815600Y-96250300D01*
X131811500Y-106999000D02*
X130792900Y-105980100D01*
X128313300Y-106999200D02*
X131811500Y-106999000D01*
X128012900Y-107299900D02*
X128313300Y-106999200D01*
X128012900Y-109349800D02*
X128012900Y-107299900D01*
X140814900Y-106000100D02*
X139816300Y-106999000D01*
X140814900Y-96200000D02*
X140814900Y-106000100D01*
X140646700Y-94831600D02*
X140814900Y-96200000D01*
X140630900Y-93453100D02*
X140646700Y-94831600D01*
X140767700Y-92081400D02*
X140630900Y-93453100D01*
X141055300Y-90733200D02*
X140767700Y-92081400D01*
X141490300Y-89425000D02*
X141055300Y-90733200D01*
X142067300Y-88173100D02*
X141490300Y-89425000D01*
X142779300Y-86992600D02*
X142067300Y-88173100D01*
X143617600Y-85897500D02*
X142779300Y-86992600D01*
X143614800Y-78789500D02*
X143617600Y-85897500D01*
X143314000Y-78499000D02*
X143614800Y-78789500D01*
X139816300Y-78499000D02*
X143314000Y-78499000D01*
X140814900Y-77500100D02*
X139816300Y-78499000D01*
X140814900Y-67700000D02*
X140814900Y-77500100D01*
X140646700Y-66331600D02*
X140814900Y-67700000D01*
X140630900Y-64953100D02*
X140646700Y-66331600D01*
X140767700Y-63581400D02*
X140630900Y-64953100D01*
X141055300Y-62233100D02*
X140767700Y-63581400D01*
X141490300Y-60925000D02*
X141055300Y-62233100D01*
X142067300Y-59673000D02*
X141490300Y-60925000D01*
X142779300Y-58492600D02*
X142067300Y-59673000D01*
X143617600Y-57397500D02*
X142779300Y-58492600D01*
X143614900Y-50290000D02*
X143617600Y-57397500D01*
X143314400Y-49999200D02*
X143614900Y-50290000D01*
X128313700Y-49999000D02*
X143314400Y-49999200D01*
X128012900Y-50299900D02*
X128313700Y-49999000D01*
X128012900Y-52349800D02*
X128012900Y-50299900D01*
X128012100Y-50289900D02*
X128012900Y-52349800D01*
X127711100Y-49999000D02*
X128012100Y-50289900D01*
X112710900Y-49999000D02*
X127711100Y-49999000D01*
X112410100Y-50299900D02*
X112710900Y-49999000D01*
X112410100Y-52330600D02*
X112410100Y-50299900D01*
X112409300Y-50289900D02*
X112410100Y-52330600D01*
X112108300Y-49999000D02*
X112409300Y-50289900D01*
X97108100Y-49999000D02*
X112108300Y-49999000D01*
X96807300Y-50299900D02*
X97108100Y-49999000D01*
X96807300Y-52311700D02*
X96807300Y-50299900D01*
X96806500Y-50289900D02*
X96807300Y-52311700D01*
X96505500Y-49999000D02*
X96806500Y-50289900D01*
X81505400Y-49999000D02*
X96505500Y-49999000D01*
X81204500Y-50299900D02*
X81505400Y-49999000D01*
X81204500Y-52106800D02*
X81204500Y-50299900D01*
X81203800Y-50289900D02*
X81204500Y-52106800D01*
X80902900Y-49999000D02*
X81203800Y-50289900D01*
X65902700Y-49999000D02*
X80902900Y-49999000D01*
X65601800Y-50299900D02*
X65902700Y-49999000D01*
X65601800Y-52346800D02*
X65601800Y-50299900D01*
X65601000Y-50289900D02*
X65601800Y-52346800D01*
X65300100Y-49999000D02*
X65601000Y-50289900D01*
X50300000Y-49999000D02*
X65300100Y-49999000D01*
X49999200Y-50299400D02*
X50300000Y-49999000D01*
X49999000Y-57400200D02*
X49999200Y-50299400D01*
X50843500Y-58498900D02*
X49999000Y-57400200D01*
X51560100Y-59684300D02*
X50843500Y-58498900D01*
X52140000Y-60942300D02*
X51560100Y-59684300D01*
X52576200Y-62257000D02*
X52140000Y-60942300D01*
X52863000Y-63612200D02*
X52576200Y-62257000D01*
X52997000Y-64990900D02*
X52863000Y-63612200D01*
X52976500Y-66376000D02*
X52997000Y-64990900D01*
X52801700Y-67750300D02*
X52976500Y-66376000D01*
X52779000Y-77480100D02*
X52801700Y-67750300D01*
X53797600Y-78499000D02*
X52779000Y-77480100D01*
X50299900Y-78499000D02*
X53797600Y-78499000D01*
X49999100Y-78799500D02*
X50299900Y-78499000D01*
X49999000Y-85900100D02*
X49999100Y-78799500D01*
X50843500Y-86998900D02*
X49999000Y-85900100D01*
X51560100Y-88184300D02*
X50843500Y-86998900D01*
X52140000Y-89442300D02*
X51560100Y-88184300D01*
X52576200Y-90757000D02*
X52140000Y-89442300D01*
X52863000Y-92112200D02*
X52576200Y-90757000D01*
X52997000Y-93490900D02*
X52863000Y-92112200D01*
X52976500Y-94876000D02*
X52997000Y-93490900D01*
X52801700Y-96250300D02*
X52976500Y-94876000D01*
X52779000Y-105980100D02*
X52801700Y-96250300D01*
X53797600Y-106999000D02*
X52779000Y-105980100D01*
X50299900Y-106999000D02*
X53797600Y-106999000D01*
X49999100Y-107299500D02*
X50299900Y-106999000D01*
X49999000Y-114400000D02*
X49999100Y-107299500D01*
X50843500Y-115498900D02*
X49999000Y-114400000D01*
X51560100Y-116684300D02*
X50843500Y-115498900D01*
X52140000Y-117942300D02*
X51560100Y-116684300D01*
X52576200Y-119257100D02*
X52140000Y-117942300D01*
X52863000Y-120612200D02*
X52576200Y-119257100D01*
X52997000Y-121990900D02*
X52863000Y-120612200D01*
X52976500Y-123376000D02*
X52997000Y-121990900D01*
X52801700Y-124750300D02*
X52976500Y-123376000D01*
X52779000Y-134480100D02*
X52801700Y-124750300D01*
X53799400Y-135500800D02*
X52779000Y-134480100D01*
X61800100Y-135501000D02*
X53799400Y-135500800D01*
X62800900Y-134500500D02*
X61800100Y-135501000D01*
X62801000Y-124700000D02*
X62800900Y-134500500D01*
X62632800Y-123331600D02*
X62801000Y-124700000D01*
X62617000Y-121953100D02*
X62632800Y-123331600D01*
X62753800Y-120581400D02*
X62617000Y-121953100D01*
X63041500Y-119233200D02*
X62753800Y-120581400D01*
X63476400Y-117925000D02*
X63041500Y-119233200D01*
X64053500Y-116673100D02*
X63476400Y-117925000D01*
X64765400Y-115492600D02*
X64053500Y-116673100D01*
X65601800Y-114400300D02*
X64765400Y-115492600D01*
X66446300Y-115498900D02*
X65601800Y-114400300D01*
X67162800Y-116684300D02*
X66446300Y-115498900D01*
X67742800Y-117942300D02*
X67162800Y-116684300D01*
X68178900Y-119257100D02*
X67742800Y-117942300D01*
X68465800Y-120612200D02*
X68178900Y-119257100D01*
X68599800Y-121990900D02*
X68465800Y-120612200D01*
X68579300Y-123376000D02*
X68599800Y-121990900D01*
X68404500Y-124750300D02*
X68579300Y-123376000D01*
X68381800Y-134480100D02*
X68404500Y-124750300D01*
X69402200Y-135500800D02*
X68381800Y-134480100D01*
X77402900Y-135501000D02*
X69402200Y-135500800D01*
X78403700Y-134500500D02*
X77402900Y-135501000D01*
X78403800Y-124700000D02*
X78403700Y-134500500D01*
X78235600Y-123331600D02*
X78403800Y-124700000D01*
X78219800Y-121953100D02*
X78235600Y-123331600D01*
X78356600Y-120581400D02*
X78219800Y-121953100D01*
X78644200Y-119233200D02*
X78356600Y-120581400D01*
X79079200Y-117925000D02*
X78644200Y-119233200D01*
X79656200Y-116673100D02*
X79079200Y-117925000D01*
X80368200Y-115492600D02*
X79656200Y-116673100D01*
X81204600Y-114400300D02*
X80368200Y-115492600D01*
X82049000Y-115498900D02*
X81204600Y-114400300D01*
X82765600Y-116684300D02*
X82049000Y-115498900D01*
X83345600Y-117942300D02*
X82765600Y-116684300D01*
X83781700Y-119257100D02*
X83345600Y-117942300D01*
X84068600Y-120612200D02*
X83781700Y-119257100D01*
X84202600Y-121990900D02*
X84068600Y-120612200D01*
X84182100Y-123376000D02*
X84202600Y-121990900D01*
X84007300Y-124750300D02*
X84182100Y-123376000D01*
X83984600Y-134480500D02*
X84007300Y-124750300D01*
X85005400Y-135501000D02*
X83984600Y-134480500D01*
X93006000Y-135500900D02*
X85005400Y-135501000D01*
X94006500Y-134500100D02*
X93006000Y-135500900D01*
X94006500Y-124700000D02*
X94006500Y-134500100D01*
X93838400Y-123331600D02*
X94006500Y-124700000D01*
X93822600Y-121953100D02*
X93838400Y-123331600D01*
X93959400Y-120581400D02*
X93822600Y-121953100D01*
X94247000Y-119233200D02*
X93959400Y-120581400D01*
X94682000Y-117925000D02*
X94247000Y-119233200D01*
X95259000Y-116673100D02*
X94682000Y-117925000D01*
X95970900Y-115492600D02*
X95259000Y-116673100D01*
X96807400Y-114400300D02*
X95970900Y-115492600D01*
X97651800Y-115498900D02*
X96807400Y-114400300D01*
X98368400Y-116684300D02*
X97651800Y-115498900D01*
X98948300Y-117942300D02*
X98368400Y-116684300D01*
X99384500Y-119257100D02*
X98948300Y-117942300D01*
X99671300Y-120612200D02*
X99384500Y-119257100D01*
X99805300Y-121990900D02*
X99671300Y-120612200D01*
X99784800Y-123376000D02*
X99805300Y-121990900D01*
X99610000Y-124750300D02*
X99784800Y-123376000D01*
X99587400Y-134480500D02*
X99610000Y-124750300D01*
X100608200Y-135501000D02*
X99587400Y-134480500D01*
X108608700Y-135500900D02*
X100608200Y-135501000D01*
X109609300Y-134500100D02*
X108608700Y-135500900D01*
X109609300Y-124700000D02*
X109609300Y-134500100D01*
X109441200Y-123331600D02*
X109609300Y-124700000D01*
X109425400Y-121953100D02*
X109441200Y-123331600D01*
X109562100Y-120581400D02*
X109425400Y-121953100D01*
X109849800Y-119233200D02*
X109562100Y-120581400D01*
X110284800Y-117925000D02*
X109849800Y-119233200D01*
X110861800Y-116673100D02*
X110284800Y-117925000D01*
X111573700Y-115492600D02*
X110861800Y-116673100D01*
X112410100Y-114400300D02*
X111573700Y-115492600D01*
X113254600Y-115498900D02*
X112410100Y-114400300D01*
X113971200Y-116684300D02*
X113254600Y-115498900D01*
X114551100Y-117942300D02*
X113971200Y-116684300D01*
X114987300Y-119257100D02*
X114551100Y-117942300D01*
X115274100Y-120612200D02*
X114987300Y-119257100D01*
X115408100Y-121990900D02*
X115274100Y-120612200D01*
X115387600Y-123376000D02*
X115408100Y-121990900D01*
X115212800Y-124750300D02*
X115387600Y-123376000D01*
X115190200Y-134480500D02*
X115212800Y-124750300D01*
X116211000Y-135501000D02*
X115190200Y-134480500D01*
X124211400Y-135501000D02*
X116211000Y-135501000D01*
X125212100Y-134500100D02*
X124211400Y-135501000D01*
X125212100Y-124700000D02*
X125212100Y-134500100D01*
X125043900Y-123331600D02*
X125212100Y-124700000D01*
X125028100Y-121953100D02*
X125043900Y-123331600D01*
X125164900Y-120581400D02*
X125028100Y-121953100D01*
X125452500Y-119233200D02*
X125164900Y-120581400D01*
X125887500Y-117925000D02*
X125452500Y-119233200D01*
X126464500Y-116673100D02*
X125887500Y-117925000D01*
X127176500Y-115492600D02*
X126464500Y-116673100D01*
X128012900Y-114400300D02*
X127176500Y-115492600D01*
X128857400Y-115498900D02*
X128012900Y-114400300D01*
X129573900Y-116684300D02*
X128857400Y-115498900D01*
X130153900Y-117942300D02*
X129573900Y-116684300D01*
X130590000Y-119257100D02*
X130153900Y-117942300D01*
X130876900Y-120612200D02*
X130590000Y-119257100D01*
X131010900Y-121990900D02*
X130876900Y-120612200D01*
X130990400Y-123376000D02*
X131010900Y-121990900D01*
X130815600Y-124750300D02*
X130990400Y-123376000D01*
X130793000Y-134480500D02*
X130815600Y-124750300D01*
X131813800Y-135501000D02*
X130793000Y-134480500D01*
X139814200Y-135501000D02*
X131813800Y-135501000D01*
X140814900Y-134500100D02*
X139814200Y-135501000D01*
X140814900Y-124700000D02*
X140814900Y-134500100D01*
X140646700Y-123331600D02*
X140814900Y-124700000D01*
X140630900Y-121953100D02*
X140646700Y-123331600D01*
X140767700Y-120581400D02*
X140630900Y-121953100D01*
X141055300Y-119233200D02*
X140767700Y-120581400D01*
X141490300Y-117925000D02*
X141055300Y-119233200D01*
X142067300Y-116673100D02*
X141490300Y-117925000D01*
X142779300Y-115492600D02*
X142067300Y-116673100D01*
X143617600Y-114397400D02*
X142779300Y-115492600D01*
X143614800Y-107289500D02*
X143617600Y-114397400D01*
X143314000Y-106999000D02*
X143614800Y-107289500D01*
X139816300Y-106999000D02*
X143314000Y-106999000D01*
M02*
